<ttFont>
    <TTGlyph name="A" xMin="38" yMin="24" xMax="1179" yMax="1428">
      <contour>
        <pt x="811" y="1201" on="0"/>
        <pt x="756" y="1097" on="0"/>
        <pt x="733" y="1059" on="1"/>
        <pt x="498" y="667" on="0"/>
        <pt x="498" y="602" on="1"/>
        <pt x="498" y="585" on="0"/>
        <pt x="697" y="585" on="1"/>
        <pt x="777" y="584" on="1"/>
        <pt x="838" y="584" on="1"/>
        <pt x="907" y="584" on="0"/>
        <pt x="907" y="619" on="1"/>
        <pt x="907" y="628" on="1"/>
        <pt x="907" y="686" on="0"/>
        <pt x="873" y="877" on="0"/>
        <pt x="873" y="880" on="1"/>
        <pt x="846" y="1063" on="1"/>
        <pt x="845" y="1072" on="1"/>
        <pt x="840" y="1098" on="1"/>
        <pt x="822" y="1201" on="0"/>
      </contour>
      <contour>
        <pt x="851" y="1428" on="1"/>
        <pt x="873" y="1428" on="1"/>
        <pt x="921" y="1428" on="0"/>
        <pt x="965" y="1373" on="0"/>
        <pt x="1021" y="1130" on="0"/>
        <pt x="1047" y="941" on="0"/>
        <pt x="1085" y="735" on="0"/>
        <pt x="1099" y="608" on="0"/>
        <pt x="1105" y="563" on="1"/>
        <pt x="1110" y="512" on="1"/>
        <pt x="1119" y="426" on="0"/>
        <pt x="1179" y="129" on="0"/>
        <pt x="1179" y="101" on="1"/>
        <pt x="1179" y="82" on="1"/>
        <pt x="1179" y="28" on="0"/>
        <pt x="1135" y="28" on="1"/>
        <pt x="1037" y="28" on="0"/>
        <pt x="998" y="88" on="1"/>
        <pt x="983" y="111" on="0"/>
        <pt x="934" y="372" on="0"/>
        <pt x="880" y="424" on="0"/>
        <pt x="736" y="424" on="1"/>
        <pt x="713" y="425" on="1"/>
        <pt x="690" y="426" on="0"/>
        <pt x="666" y="426" on="1"/>
        <pt x="594" y="427" on="1"/>
        <pt x="467" y="427" on="0"/>
        <pt x="391" y="370" on="0"/>
        <pt x="243" y="104" on="0"/>
        <pt x="231" y="92" on="1"/>
        <pt x="163" y="24" on="0"/>
        <pt x="80" y="24" on="1"/>
        <pt x="38" y="24" on="0"/>
        <pt x="38" y="52" on="1"/>
        <pt x="38" y="68" on="0"/>
        <pt x="83" y="172" on="1"/>
        <pt x="238" y="531" on="0"/>
        <pt x="542" y="1057" on="1"/>
        <pt x="687" y="1308" on="0"/>
        <pt x="780" y="1428" on="0"/>
      </contour>
    </TTGlyph>
    <TTGlyph name="AE" xMin="161" yMin="86" xMax="1751" yMax="1372">
      <contour>
        <pt x="837" y="573" on="1"/>
        <pt x="853" y="573" on="1"/>
        <pt x="872" y="573" on="0"/>
        <pt x="872" y="595" on="1"/>
        <pt x="859" y="637" on="1"/>
        <pt x="859" y="743" on="0"/>
        <pt x="975" y="1052" on="1"/>
        <pt x="981" y="1069" on="0"/>
        <pt x="1026" y="1136" on="1"/>
        <pt x="1075" y="1219" on="0"/>
        <pt x="1075" y="1220" on="1"/>
        <pt x="1075" y="1225" on="1"/>
        <pt x="1075" y="1257" on="0"/>
        <pt x="1047" y="1257" on="1"/>
        <pt x="997" y="1257" on="0"/>
        <pt x="977" y="1209" on="1"/>
        <pt x="882" y="988" on="0"/>
        <pt x="740" y="801" on="0"/>
        <pt x="632" y="660" on="0"/>
        <pt x="611" y="660" on="1"/>
        <pt x="612" y="660" on="0"/>
        <pt x="618" y="642" on="0"/>
        <pt x="717" y="589" on="0"/>
        <pt x="781" y="589" on="0"/>
        <pt x="835" y="573" on="0"/>
      </contour>
      <contour>
        <pt x="1653" y="772" on="1"/>
        <pt x="1653" y="720" on="0"/>
        <pt x="1614" y="700" on="1"/>
        <pt x="1600" y="693" on="0"/>
        <pt x="1269" y="658" on="0"/>
        <pt x="1183" y="596" on="0"/>
        <pt x="1161" y="490" on="0"/>
        <pt x="1161" y="247" on="0"/>
        <pt x="1236" y="217" on="1"/>
        <pt x="1264" y="206" on="0"/>
        <pt x="1465" y="206" on="1"/>
        <pt x="1494" y="207" on="1"/>
        <pt x="1523" y="209" on="1"/>
        <pt x="1609" y="209" on="0"/>
        <pt x="1609" y="115" on="0"/>
        <pt x="1547" y="86" on="0"/>
        <pt x="1448" y="86" on="1"/>
        <pt x="1049" y="86" on="0"/>
        <pt x="978" y="109" on="1"/>
        <pt x="954" y="117" on="0"/>
        <pt x="900" y="182" on="0"/>
        <pt x="900" y="252" on="1"/>
        <pt x="902" y="287" on="1"/>
        <pt x="907" y="345" on="0"/>
        <pt x="907" y="356" on="1"/>
        <pt x="907" y="408" on="0"/>
        <pt x="847" y="446" on="0"/>
        <pt x="787" y="446" on="1"/>
        <pt x="638" y="446" on="0"/>
        <pt x="565" y="403" on="1"/>
        <pt x="524" y="379" on="0"/>
        <pt x="350" y="182" on="0"/>
        <pt x="240" y="104" on="0"/>
        <pt x="161" y="104" on="0"/>
        <pt x="161" y="118" on="1"/>
        <pt x="161" y="156" on="0"/>
        <pt x="274" y="327" on="1"/>
        <pt x="840" y="1182" on="0"/>
        <pt x="868" y="1214" on="1"/>
        <pt x="954" y="1312" on="0"/>
        <pt x="1035" y="1334" on="1"/>
        <pt x="1078" y="1346" on="0"/>
        <pt x="1338" y="1346" on="0"/>
        <pt x="1595" y="1372" on="0"/>
        <pt x="1605" y="1372" on="1"/>
        <pt x="1751" y="1372" on="0"/>
        <pt x="1751" y="1321" on="1"/>
        <pt x="1751" y="1310" on="0"/>
        <pt x="1734" y="1294" on="1"/>
        <pt x="1704" y="1265" on="0"/>
        <pt x="1389" y="1265" on="0"/>
        <pt x="1302" y="1190" on="0"/>
        <pt x="1246" y="996" on="0"/>
        <pt x="1246" y="881" on="0"/>
        <pt x="1317" y="847" on="0"/>
        <pt x="1417" y="842" on="1"/>
        <pt x="1490" y="839" on="1"/>
        <pt x="1557" y="836" on="0"/>
        <pt x="1564" y="835" on="1"/>
        <pt x="1653" y="819" on="0"/>
      </contour>
    </TTGlyph>
    <TTGlyph name="Aacute" xMin="64" yMin="69" xMax="1198" yMax="1897">
      <contour>
        <pt x="884" y="641" on="1"/>
        <pt x="934" y="641" on="0"/>
        <pt x="934" y="672" on="1"/>
        <pt x="933" y="680" on="1"/>
        <pt x="933" y="688" on="1"/>
        <pt x="933" y="759" on="0"/>
        <pt x="851" y="1226" on="0"/>
        <pt x="839" y="1262" on="0"/>
        <pt x="833" y="1262" on="0"/>
        <pt x="510" y="688" on="0"/>
        <pt x="510" y="655" on="1"/>
        <pt x="510" y="639" on="0"/>
        <pt x="706" y="639" on="1"/>
        <pt x="733" y="638" on="1"/>
        <pt x="841" y="638" on="1"/>
        <pt x="868" y="641" on="0"/>
      </contour>
      <contour>
        <pt x="1161" y="1888" on="1"/>
        <pt x="1161" y="1882" on="1"/>
        <pt x="1161" y="1825" on="0"/>
        <pt x="916" y="1634" on="1"/>
        <pt x="838" y="1573" on="0"/>
        <pt x="795" y="1573" on="1"/>
        <pt x="767" y="1573" on="1"/>
        <pt x="752" y="1573" on="0"/>
        <pt x="752" y="1588" on="1"/>
        <pt x="752" y="1651" on="0"/>
        <pt x="933" y="1809" on="1"/>
        <pt x="1030" y="1894" on="0"/>
        <pt x="1098" y="1894" on="1"/>
        <pt x="1124" y="1897" on="1"/>
        <pt x="1139" y="1897" on="1"/>
        <pt x="1161" y="1897" on="0"/>
      </contour>
      <contour>
        <pt x="104" y="69" on="1"/>
        <pt x="87" y="69" on="1"/>
        <pt x="64" y="69" on="0"/>
        <pt x="64" y="132" on="0"/>
        <pt x="111" y="230" on="1"/>
        <pt x="363" y="757" on="0"/>
        <pt x="725" y="1374" on="0"/>
        <pt x="807" y="1464" on="0"/>
        <pt x="925" y="1464" on="0"/>
        <pt x="951" y="1421" on="1"/>
        <pt x="964" y="1399" on="0"/>
        <pt x="1005" y="1239" on="1"/>
        <pt x="1013" y="1210" on="0"/>
        <pt x="1131" y="469" on="1"/>
        <pt x="1139" y="420" on="0"/>
        <pt x="1198" y="156" on="0"/>
        <pt x="1198" y="137" on="1"/>
        <pt x="1198" y="71" on="0"/>
        <pt x="1153" y="71" on="1"/>
        <pt x="1074" y="71" on="0"/>
        <pt x="1028" y="143" on="1"/>
        <pt x="1007" y="176" on="0"/>
        <pt x="959" y="398" on="0"/>
        <pt x="942" y="417" on="1"/>
        <pt x="902" y="463" on="0"/>
        <pt x="778" y="463" on="1"/>
        <pt x="641" y="467" on="1"/>
        <pt x="494" y="467" on="0"/>
        <pt x="406" y="408" on="0"/>
        <pt x="249" y="142" on="0"/>
        <pt x="247" y="140" on="1"/>
        <pt x="176" y="69" on="0"/>
      </contour>
    </TTGlyph>
    <TTGlyph name="Acircumflex" xMin="62" yMin="57" xMax="1199" yMax="1874">
      <contour>
        <pt x="834" y="1244" on="0"/>
        <pt x="826" y="1244" on="0"/>
        <pt x="508" y="678" on="0"/>
        <pt x="508" y="641" on="1"/>
        <pt x="508" y="630" on="0"/>
        <pt x="715" y="630" on="1"/>
        <pt x="806" y="628" on="1"/>
        <pt x="858" y="628" on="1"/>
        <pt x="932" y="628" on="0"/>
        <pt x="932" y="659" on="1"/>
        <pt x="932" y="666" on="1"/>
        <pt x="928" y="708" on="1"/>
        <pt x="928" y="738" on="0"/>
        <pt x="855" y="1176" on="0"/>
      </contour>
      <contour>
        <pt x="639" y="1567" on="1"/>
        <pt x="624" y="1567" on="1"/>
        <pt x="603" y="1567" on="0"/>
        <pt x="603" y="1582" on="1"/>
        <pt x="603" y="1626" on="0"/>
        <pt x="830" y="1818" on="1"/>
        <pt x="896" y="1874" on="0"/>
        <pt x="948" y="1874" on="1"/>
        <pt x="956" y="1874" on="1"/>
        <pt x="986" y="1874" on="0"/>
        <pt x="1178" y="1647" on="0"/>
        <pt x="1178" y="1601" on="1"/>
        <pt x="1178" y="1595" on="1"/>
        <pt x="1178" y="1574" on="0"/>
        <pt x="1081" y="1574" on="0"/>
        <pt x="938" y="1759" on="0"/>
        <pt x="924" y="1759" on="1"/>
        <pt x="923" y="1759" on="0"/>
        <pt x="696" y="1567" on="0"/>
      </contour>
      <contour>
        <pt x="103" y="57" on="1"/>
        <pt x="84" y="57" on="1"/>
        <pt x="62" y="57" on="0"/>
        <pt x="62" y="117" on="0"/>
        <pt x="110" y="218" on="1"/>
        <pt x="355" y="731" on="0"/>
        <pt x="720" y="1354" on="0"/>
        <pt x="804" y="1450" on="0"/>
        <pt x="920" y="1450" on="0"/>
        <pt x="951" y="1406" on="1"/>
        <pt x="965" y="1386" on="0"/>
        <pt x="1029" y="1138" on="0"/>
        <pt x="1063" y="921" on="0"/>
        <pt x="1092" y="784" on="0"/>
        <pt x="1138" y="396" on="0"/>
        <pt x="1199" y="156" on="0"/>
        <pt x="1199" y="126" on="1"/>
        <pt x="1199" y="60" on="0"/>
        <pt x="1151" y="60" on="1"/>
        <pt x="1137" y="60" on="0"/>
        <pt x="1037" y="107" on="0"/>
        <pt x="1002" y="172" on="0"/>
        <pt x="956" y="386" on="0"/>
        <pt x="940" y="406" on="1"/>
        <pt x="905" y="450" on="0"/>
        <pt x="776" y="450" on="1"/>
        <pt x="709" y="453" on="1"/>
        <pt x="664" y="455" on="0"/>
        <pt x="639" y="455" on="1"/>
        <pt x="544" y="453" on="1"/>
        <pt x="472" y="453" on="0"/>
        <pt x="418" y="399" on="1"/>
        <pt x="397" y="378" on="0"/>
        <pt x="253" y="131" on="0"/>
        <pt x="231" y="111" on="1"/>
        <pt x="170" y="57" on="0"/>
      </contour>
    </TTGlyph>
    <TTGlyph name="Adieresis" xMin="66" yMin="57" xMax="1204" yMax="1821">
      <contour>
        <pt x="832" y="626" on="1"/>
        <pt x="930" y="626" on="0"/>
        <pt x="930" y="661" on="1"/>
        <pt x="930" y="669" on="1"/>
        <pt x="930" y="699" on="0"/>
        <pt x="847" y="1197" on="0"/>
        <pt x="832" y="1242" on="0"/>
        <pt x="826" y="1242" on="0"/>
        <pt x="749" y="1105" on="1"/>
        <pt x="512" y="684" on="0"/>
        <pt x="512" y="643" on="1"/>
        <pt x="512" y="628" on="0"/>
        <pt x="717" y="628" on="1"/>
        <pt x="815" y="626" on="1"/>
      </contour>
      <contour>
        <pt x="732" y="1618" on="1"/>
        <pt x="715" y="1618" on="1"/>
        <pt x="647" y="1618" on="0"/>
        <pt x="647" y="1665" on="1"/>
        <pt x="644" y="1680" on="1"/>
        <pt x="644" y="1707" on="1"/>
        <pt x="644" y="1746" on="0"/>
        <pt x="701" y="1817" on="0"/>
        <pt x="730" y="1817" on="1"/>
        <pt x="736" y="1819" on="0"/>
        <pt x="740" y="1819" on="1"/>
        <pt x="753" y="1821" on="1"/>
        <pt x="777" y="1821" on="1"/>
        <pt x="847" y="1821" on="0"/>
        <pt x="847" y="1752" on="1"/>
        <pt x="847" y="1739" on="1"/>
        <pt x="843" y="1712" on="1"/>
        <pt x="843" y="1681" on="0"/>
        <pt x="780" y="1618" on="0"/>
      </contour>
      <contour>
        <pt x="1025" y="1586" on="1"/>
        <pt x="993" y="1586" on="0"/>
        <pt x="993" y="1626" on="1"/>
        <pt x="990" y="1635" on="0"/>
        <pt x="990" y="1636" on="1"/>
        <pt x="990" y="1659" on="1"/>
        <pt x="990" y="1702" on="0"/>
        <pt x="1064" y="1794" on="0"/>
        <pt x="1107" y="1794" on="1"/>
        <pt x="1113" y="1796" on="0"/>
        <pt x="1117" y="1796" on="1"/>
        <pt x="1130" y="1798" on="1"/>
        <pt x="1146" y="1798" on="1"/>
        <pt x="1155" y="1795" on="0"/>
        <pt x="1164" y="1795" on="1"/>
        <pt x="1194" y="1795" on="0"/>
        <pt x="1194" y="1768" on="1"/>
        <pt x="1197" y="1760" on="1"/>
        <pt x="1197" y="1742" on="1"/>
        <pt x="1196" y="1738" on="1"/>
        <pt x="1196" y="1735" on="1"/>
        <pt x="1196" y="1668" on="0"/>
        <pt x="1115" y="1587" on="0"/>
        <pt x="1078" y="1587" on="1"/>
        <pt x="1070" y="1585" on="0"/>
        <pt x="1067" y="1585" on="1"/>
        <pt x="1052" y="1583" on="1"/>
        <pt x="1038" y="1583" on="1"/>
        <pt x="1032" y="1586" on="0"/>
      </contour>
      <contour>
        <pt x="809" y="1450" on="0"/>
        <pt x="926" y="1450" on="0"/>
        <pt x="955" y="1407" on="1"/>
        <pt x="967" y="1389" on="0"/>
        <pt x="986" y="1321" on="1"/>
        <pt x="1084" y="966" on="0"/>
        <pt x="1127" y="529" on="1"/>
        <pt x="1140" y="406" on="0"/>
        <pt x="1204" y="158" on="0"/>
        <pt x="1204" y="126" on="1"/>
        <pt x="1204" y="61" on="0"/>
        <pt x="1156" y="61" on="1"/>
        <pt x="1068" y="61" on="0"/>
        <pt x="1020" y="146" on="1"/>
        <pt x="1003" y="176" on="0"/>
        <pt x="964" y="381" on="0"/>
        <pt x="944" y="406" on="1"/>
        <pt x="908" y="451" on="0"/>
        <pt x="780" y="451" on="1"/>
        <pt x="713" y="454" on="1"/>
        <pt x="691" y="455" on="0"/>
        <pt x="593" y="455" on="1"/>
        <pt x="495" y="454" on="0"/>
        <pt x="456" y="428" on="1"/>
        <pt x="396" y="387" on="0"/>
        <pt x="305" y="209" on="1"/>
        <pt x="275" y="150" on="0"/>
        <pt x="252" y="127" on="1"/>
        <pt x="182" y="57" on="0"/>
        <pt x="107" y="57" on="1"/>
        <pt x="66" y="57" on="0"/>
        <pt x="66" y="82" on="1"/>
        <pt x="66" y="115" on="0"/>
        <pt x="115" y="218" on="1"/>
        <pt x="381" y="775" on="0"/>
        <pt x="742" y="1376" on="0"/>
      </contour>
    </TTGlyph>
    <TTGlyph name="Agrave" xMin="65" yMin="68" xMax="1202" yMax="1898">
      <contour>
        <pt x="894" y="639" on="1"/>
        <pt x="930" y="639" on="0"/>
        <pt x="930" y="673" on="1"/>
        <pt x="930" y="681" on="1"/>
        <pt x="930" y="711" on="0"/>
        <pt x="877" y="1011" on="0"/>
        <pt x="872" y="1044" on="0"/>
        <pt x="870" y="1050" on="0"/>
        <pt x="834" y="1255" on="0"/>
        <pt x="824" y="1255" on="1"/>
        <pt x="818" y="1255" on="0"/>
        <pt x="510" y="677" on="0"/>
        <pt x="510" y="659" on="1"/>
        <pt x="510" y="654" on="1"/>
        <pt x="510" y="640" on="0"/>
        <pt x="699" y="640" on="1"/>
        <pt x="834" y="636" on="1"/>
        <pt x="851" y="636" on="1"/>
        <pt x="878" y="639" on="0"/>
      </contour>
      <contour>
        <pt x="1004" y="1599" on="1"/>
        <pt x="1004" y="1591" on="1"/>
        <pt x="1004" y="1573" on="0"/>
        <pt x="977" y="1573" on="1"/>
        <pt x="972" y="1573" on="1"/>
        <pt x="882" y="1574" on="0"/>
        <pt x="736" y="1768" on="1"/>
        <pt x="666" y="1860" on="0"/>
        <pt x="666" y="1873" on="1"/>
        <pt x="666" y="1880" on="1"/>
        <pt x="666" y="1896" on="0"/>
        <pt x="704" y="1896" on="1"/>
        <pt x="712" y="1898" on="1"/>
        <pt x="717" y="1898" on="1"/>
        <pt x="741" y="1895" on="1"/>
        <pt x="797" y="1895" on="0"/>
        <pt x="866" y="1826" on="1"/>
        <pt x="1004" y="1688" on="0"/>
      </contour>
      <contour>
        <pt x="807" y="1461" on="0"/>
        <pt x="923" y="1461" on="0"/>
        <pt x="953" y="1418" on="1"/>
        <pt x="965" y="1401" on="0"/>
        <pt x="984" y="1332" on="1"/>
        <pt x="1084" y="972" on="0"/>
        <pt x="1126" y="540" on="1"/>
        <pt x="1136" y="434" on="0"/>
        <pt x="1202" y="154" on="0"/>
        <pt x="1202" y="137" on="1"/>
        <pt x="1202" y="72" on="0"/>
        <pt x="1154" y="72" on="1"/>
        <pt x="1079" y="72" on="0"/>
        <pt x="1028" y="142" on="1"/>
        <pt x="1005" y="174" on="0"/>
        <pt x="958" y="420" on="0"/>
        <pt x="868" y="466" on="0"/>
        <pt x="619" y="466" on="1"/>
        <pt x="495" y="466" on="0"/>
        <pt x="400" y="404" on="0"/>
        <pt x="269" y="158" on="0"/>
        <pt x="266" y="154" on="1"/>
        <pt x="197" y="68" on="0"/>
        <pt x="105" y="68" on="1"/>
        <pt x="65" y="68" on="0"/>
        <pt x="65" y="93" on="1"/>
        <pt x="65" y="128" on="0"/>
        <pt x="113" y="229" on="1"/>
        <pt x="363" y="752" on="0"/>
        <pt x="728" y="1375" on="0"/>
      </contour>
    </TTGlyph>
    <TTGlyph name="Aring" xMin="59" yMin="57" xMax="1196" yMax="1946">
      <contour>
        <pt x="911" y="1867" on="1"/>
        <pt x="894" y="1867" on="1"/>
        <pt x="855" y="1867" on="0"/>
        <pt x="790" y="1802" on="0"/>
        <pt x="790" y="1762" on="1"/>
        <pt x="790" y="1741" on="1"/>
        <pt x="790" y="1704" on="0"/>
        <pt x="845" y="1660" on="0"/>
        <pt x="870" y="1660" on="1"/>
        <pt x="887" y="1660" on="1"/>
        <pt x="926" y="1660" on="0"/>
        <pt x="992" y="1726" on="0"/>
        <pt x="992" y="1765" on="1"/>
        <pt x="992" y="1782" on="1"/>
        <pt x="991" y="1785" on="1"/>
        <pt x="991" y="1792" on="1"/>
        <pt x="989" y="1798" on="0"/>
        <pt x="989" y="1814" on="0"/>
        <pt x="947" y="1867" on="0"/>
      </contour>
      <contour>
        <pt x="862" y="638" on="1"/>
        <pt x="933" y="638" on="0"/>
        <pt x="933" y="673" on="1"/>
        <pt x="933" y="837" on="0"/>
        <pt x="832" y="1241" on="1"/>
        <pt x="826" y="1264" on="0"/>
        <pt x="822" y="1264" on="1"/>
        <pt x="743" y="1124" on="1"/>
        <pt x="508" y="706" on="0"/>
        <pt x="508" y="658" on="1"/>
        <pt x="508" y="640" on="0"/>
        <pt x="719" y="640" on="1"/>
        <pt x="809" y="638" on="1"/>
      </contour>
      <contour>
        <pt x="882" y="1582" on="1"/>
        <pt x="863" y="1582" on="1"/>
        <pt x="800" y="1582" on="0"/>
        <pt x="700" y="1671" on="0"/>
        <pt x="700" y="1740" on="1"/>
        <pt x="700" y="1752" on="1"/>
        <pt x="700" y="1832" on="0"/>
        <pt x="828" y="1946" on="0"/>
        <pt x="901" y="1946" on="1"/>
        <pt x="913" y="1946" on="1"/>
        <pt x="982" y="1946" on="0"/>
        <pt x="1082" y="1857" on="0"/>
        <pt x="1082" y="1793" on="1"/>
        <pt x="1082" y="1769" on="1"/>
        <pt x="1082" y="1694" on="0"/>
        <pt x="956" y="1582" on="0"/>
      </contour>
      <contour>
        <pt x="781" y="1476" on="0"/>
        <pt x="923" y="1476" on="0"/>
        <pt x="980" y="1359" on="0"/>
        <pt x="1095" y="926" on="0"/>
        <pt x="1133" y="540" on="1"/>
        <pt x="1140" y="467" on="0"/>
        <pt x="1196" y="188" on="0"/>
        <pt x="1196" y="141" on="1"/>
        <pt x="1196" y="119" on="1"/>
        <pt x="1196" y="57" on="0"/>
        <pt x="1152" y="57" on="1"/>
        <pt x="1134" y="57" on="1"/>
        <pt x="1116" y="57" on="0"/>
        <pt x="1029" y="104" on="0"/>
        <pt x="997" y="167" on="0"/>
        <pt x="956" y="435" on="0"/>
        <pt x="942" y="452" on="1"/>
        <pt x="910" y="493" on="0"/>
        <pt x="494" y="493" on="0"/>
        <pt x="404" y="427" on="0"/>
        <pt x="257" y="140" on="0"/>
        <pt x="248" y="130" on="1"/>
        <pt x="183" y="61" on="0"/>
        <pt x="84" y="61" on="1"/>
        <pt x="59" y="61" on="0"/>
        <pt x="59" y="117" on="0"/>
        <pt x="108" y="222" on="1"/>
        <pt x="441" y="935" on="0"/>
        <pt x="475" y="997" on="1"/>
        <pt x="667" y="1345" on="0"/>
        <pt x="738" y="1426" on="1"/>
      </contour>
    </TTGlyph>
    <TTGlyph name="Atilde" xMin="59" yMin="50" xMax="1236" yMax="1783">
      <contour>
        <pt x="838" y="619" on="1"/>
        <pt x="929" y="619" on="0"/>
        <pt x="929" y="653" on="1"/>
        <pt x="929" y="661" on="1"/>
        <pt x="929" y="871" on="0"/>
        <pt x="840" y="1205" on="1"/>
        <pt x="833" y="1233" on="0"/>
        <pt x="818" y="1233" on="0"/>
        <pt x="505" y="646" on="0"/>
        <pt x="505" y="622" on="0"/>
        <pt x="713" y="622" on="1"/>
        <pt x="812" y="619" on="1"/>
      </contour>
      <contour>
        <pt x="787" y="1783" on="1"/>
        <pt x="804" y="1783" on="1"/>
        <pt x="864" y="1783" on="0"/>
        <pt x="1005" y="1689" on="0"/>
        <pt x="1087" y="1689" on="0"/>
        <pt x="1174" y="1776" on="0"/>
        <pt x="1236" y="1776" on="0"/>
        <pt x="1236" y="1755" on="1"/>
        <pt x="1236" y="1688" on="0"/>
        <pt x="1152" y="1630" on="1"/>
        <pt x="1101" y="1595" on="0"/>
        <pt x="1022" y="1595" on="1"/>
        <pt x="990" y="1597" on="1"/>
        <pt x="960" y="1597" on="0"/>
        <pt x="814" y="1670" on="0"/>
        <pt x="743" y="1670" on="0"/>
        <pt x="633" y="1579" on="0"/>
        <pt x="608" y="1579" on="1"/>
        <pt x="594" y="1579" on="1"/>
        <pt x="572" y="1579" on="0"/>
        <pt x="572" y="1598" on="1"/>
        <pt x="572" y="1658" on="0"/>
        <pt x="720" y="1783" on="0"/>
      </contour>
      <contour>
        <pt x="99" y="50" on="1"/>
        <pt x="81" y="50" on="1"/>
        <pt x="59" y="50" on="0"/>
        <pt x="59" y="109" on="0"/>
        <pt x="107" y="210" on="1"/>
        <pt x="357" y="733" on="0"/>
        <pt x="688" y="1298" on="0"/>
        <pt x="791" y="1442" on="0"/>
        <pt x="917" y="1442" on="0"/>
        <pt x="947" y="1399" on="1"/>
        <pt x="959" y="1382" on="0"/>
        <pt x="991" y="1266" on="1"/>
        <pt x="1078" y="953" on="0"/>
        <pt x="1120" y="521" on="1"/>
        <pt x="1130" y="422" on="0"/>
        <pt x="1196" y="133" on="0"/>
        <pt x="1196" y="118" on="1"/>
        <pt x="1196" y="53" on="0"/>
        <pt x="1148" y="53" on="1"/>
        <pt x="1073" y="53" on="0"/>
        <pt x="1022" y="123" on="1"/>
        <pt x="1002" y="150" on="0"/>
        <pt x="954" y="378" on="0"/>
        <pt x="937" y="399" on="1"/>
        <pt x="902" y="443" on="0"/>
        <pt x="773" y="443" on="1"/>
        <pt x="613" y="447" on="1"/>
        <pt x="487" y="447" on="0"/>
        <pt x="409" y="394" on="0"/>
        <pt x="323" y="253" on="0"/>
        <pt x="266" y="142" on="0"/>
        <pt x="260" y="135" on="1"/>
        <pt x="192" y="50" on="0"/>
      </contour>
    </TTGlyph>
    <TTGlyph name="B" xMin="121" yMin="15" xMax="1152" yMax="1427">
      <contour>
        <pt x="467" y="825" on="1"/>
        <pt x="619" y="825" on="1"/>
        <pt x="781" y="825" on="0"/>
        <pt x="963" y="965" on="0"/>
        <pt x="963" y="1088" on="1"/>
        <pt x="963" y="1106" on="1"/>
        <pt x="962" y="1115" on="1"/>
        <pt x="962" y="1186" on="0"/>
        <pt x="854" y="1274" on="0"/>
        <pt x="772" y="1274" on="1"/>
        <pt x="754" y="1276" on="0"/>
        <pt x="745" y="1276" on="1"/>
        <pt x="726" y="1276" on="1"/>
        <pt x="700" y="1277" on="1"/>
        <pt x="683" y="1277" on="1"/>
        <pt x="675" y="1276" on="1"/>
        <pt x="658" y="1276" on="1"/>
        <pt x="528" y="1276" on="0"/>
        <pt x="511" y="1249" on="0"/>
        <pt x="444" y="870" on="0"/>
        <pt x="444" y="825" on="0"/>
      </contour>
      <contour>
        <pt x="372" y="170" on="1"/>
        <pt x="524" y="170" on="1"/>
        <pt x="534" y="171" on="1"/>
        <pt x="573" y="172" on="1"/>
        <pt x="633" y="175" on="1"/>
        <pt x="755" y="175" on="0"/>
        <pt x="925" y="345" on="0"/>
        <pt x="925" y="464" on="1"/>
        <pt x="925" y="484" on="1"/>
        <pt x="925" y="677" on="0"/>
        <pt x="645" y="677" on="1"/>
        <pt x="578" y="677" on="1"/>
        <pt x="568" y="676" on="1"/>
        <pt x="421" y="676" on="0"/>
        <pt x="403" y="631" on="0"/>
        <pt x="359" y="352" on="0"/>
        <pt x="333" y="230" on="0"/>
        <pt x="333" y="203" on="1"/>
        <pt x="333" y="195" on="1"/>
        <pt x="333" y="170" on="0"/>
      </contour>
      <contour>
        <pt x="740" y="1427" on="1"/>
        <pt x="1152" y="1427" on="0"/>
        <pt x="1152" y="1123" on="1"/>
        <pt x="1152" y="1013" on="0"/>
        <pt x="1062" y="869" on="0"/>
        <pt x="923" y="758" on="0"/>
        <pt x="923" y="749" on="0"/>
        <pt x="990" y="709" on="0"/>
        <pt x="1041" y="671" on="0"/>
        <pt x="1111" y="562" on="0"/>
        <pt x="1111" y="359" on="0"/>
        <pt x="1063" y="270" on="1"/>
        <pt x="925" y="15" on="0"/>
        <pt x="527" y="15" on="1"/>
        <pt x="389" y="15" on="1"/>
        <pt x="367" y="16" on="1"/>
        <pt x="168" y="16" on="0"/>
        <pt x="121" y="31" on="0"/>
        <pt x="121" y="64" on="1"/>
        <pt x="121" y="84" on="1"/>
        <pt x="121" y="90" on="0"/>
        <pt x="135" y="154" on="0"/>
        <pt x="169" y="353" on="1"/>
        <pt x="181" y="421" on="1"/>
        <pt x="188" y="466" on="0"/>
        <pt x="192" y="489" on="1"/>
        <pt x="216" y="626" on="1"/>
        <pt x="269" y="933" on="0"/>
        <pt x="284" y="1023" on="0"/>
        <pt x="306" y="1147" on="0"/>
        <pt x="329" y="1339" on="0"/>
        <pt x="335" y="1360" on="1"/>
        <pt x="353" y="1422" on="0"/>
        <pt x="462" y="1422" on="1"/>
        <pt x="508" y="1424" on="1"/>
        <pt x="693" y="1427" on="1"/>
      </contour>
    </TTGlyph>
    <TTGlyph name="C" xMin="139" yMin="-16" xMax="1266" yMax="1435">
      <contour>
        <pt x="139" y="533" on="1"/>
        <pt x="139" y="563" on="1"/>
        <pt x="139" y="566" on="0"/>
        <pt x="139" y="569" on="1"/>
        <pt x="139" y="751" on="0"/>
        <pt x="204" y="914" on="1"/>
        <pt x="336" y="1248" on="0"/>
        <pt x="610" y="1377" on="1"/>
        <pt x="735" y="1435" on="0"/>
        <pt x="866" y="1435" on="1"/>
        <pt x="895" y="1435" on="1"/>
        <pt x="925" y="1434" on="1"/>
        <pt x="1062" y="1434" on="0"/>
        <pt x="1147" y="1393" on="1"/>
        <pt x="1266" y="1336" on="0"/>
        <pt x="1266" y="1273" on="1"/>
        <pt x="1266" y="1237" on="0"/>
        <pt x="1215" y="1177" on="0"/>
        <pt x="1151" y="1177" on="0"/>
        <pt x="914" y="1264" on="0"/>
        <pt x="736" y="1264" on="0"/>
        <pt x="641" y="1206" on="1"/>
        <pt x="458" y="1095" on="0"/>
        <pt x="382" y="828" on="1"/>
        <pt x="345" y="700" on="0"/>
        <pt x="345" y="366" on="0"/>
        <pt x="531" y="154" on="0"/>
        <pt x="697" y="154" on="1"/>
        <pt x="753" y="154" on="0"/>
        <pt x="1038" y="242" on="0"/>
        <pt x="1063" y="242" on="1"/>
        <pt x="1112" y="242" on="0"/>
        <pt x="1112" y="174" on="1"/>
        <pt x="1112" y="156" on="0"/>
        <pt x="1089" y="133" on="1"/>
        <pt x="1034" y="78" on="0"/>
        <pt x="792" y="-16" on="0"/>
        <pt x="666" y="-16" on="1"/>
        <pt x="291" y="-16" on="0"/>
        <pt x="179" y="295" on="1"/>
        <pt x="139" y="405" on="0"/>
      </contour>
    </TTGlyph>
    <TTGlyph name="Ccedilla" xMin="173" yMin="-431" xMax="1346" yMax="1494">
      <contour>
        <pt x="173" y="544" on="1"/>
        <pt x="173" y="608" on="1"/>
        <pt x="173" y="772" on="0"/>
        <pt x="296" y="1107" on="0"/>
        <pt x="406" y="1233" on="1"/>
        <pt x="634" y="1494" on="0"/>
        <pt x="971" y="1494" on="1"/>
        <pt x="1123" y="1494" on="0"/>
        <pt x="1210" y="1458" on="1"/>
        <pt x="1346" y="1402" on="0"/>
        <pt x="1346" y="1338" on="1"/>
        <pt x="1346" y="1311" on="0"/>
        <pt x="1299" y="1238" on="0"/>
        <pt x="1242" y="1238" on="0"/>
        <pt x="1016" y="1312" on="0"/>
        <pt x="904" y="1312" on="1"/>
        <pt x="677" y="1312" on="0"/>
        <pt x="385" y="882" on="0"/>
        <pt x="385" y="590" on="1"/>
        <pt x="385" y="367" on="0"/>
        <pt x="495" y="251" on="1"/>
        <pt x="581" y="161" on="0"/>
        <pt x="758" y="161" on="1"/>
        <pt x="812" y="161" on="0"/>
        <pt x="1112" y="249" on="0"/>
        <pt x="1118" y="249" on="1"/>
        <pt x="1175" y="249" on="0"/>
        <pt x="1175" y="167" on="1"/>
        <pt x="1175" y="152" on="0"/>
        <pt x="1154" y="128" on="1"/>
        <pt x="1102" y="67" on="0"/>
        <pt x="871" y="-15" on="0"/>
        <pt x="733" y="-15" on="1"/>
        <pt x="477" y="-15" on="0"/>
        <pt x="331" y="131" on="1"/>
        <pt x="252" y="210" on="0"/>
        <pt x="173" y="435" on="0"/>
      </contour>
      <contour>
        <pt x="805" y="-215" on="1"/>
        <pt x="805" y="-238" on="1"/>
        <pt x="805" y="-307" on="0"/>
        <pt x="669" y="-431" on="0"/>
        <pt x="469" y="-431" on="0"/>
        <pt x="469" y="-374" on="1"/>
        <pt x="469" y="-365" on="1"/>
        <pt x="469" y="-353" on="0"/>
        <pt x="502" y="-353" on="1"/>
        <pt x="527" y="-351" on="1"/>
        <pt x="585" y="-351" on="0"/>
        <pt x="650" y="-286" on="0"/>
        <pt x="650" y="-219" on="0"/>
        <pt x="581" y="-167" on="0"/>
        <pt x="581" y="-159" on="1"/>
        <pt x="581" y="-103" on="0"/>
        <pt x="627" y="-47" on="1"/>
        <pt x="650" y="-19" on="0"/>
        <pt x="704" y="-19" on="1"/>
        <pt x="711" y="-19" on="1"/>
        <pt x="729" y="-19" on="0"/>
        <pt x="729" y="-102" on="0"/>
        <pt x="805" y="-169" on="0"/>
      </contour>
    </TTGlyph>
    <TTGlyph name="D" xMin="112" yMin="7" xMax="1294" yMax="1419">
      <contour>
        <pt x="1095" y="825" on="1"/>
        <pt x="1095" y="875" on="1"/>
        <pt x="1095" y="1058" on="0"/>
        <pt x="988" y="1172" on="1"/>
        <pt x="902" y="1262" on="0"/>
        <pt x="731" y="1262" on="1"/>
        <pt x="699" y="1262" on="1"/>
        <pt x="683" y="1261" on="1"/>
        <pt x="573" y="1261" on="0"/>
        <pt x="513" y="1242" on="0"/>
        <pt x="489" y="1168" on="0"/>
        <pt x="428" y="783" on="0"/>
        <pt x="329" y="269" on="0"/>
        <pt x="329" y="198" on="1"/>
        <pt x="329" y="166" on="0"/>
        <pt x="628" y="166" on="0"/>
        <pt x="822" y="235" on="0"/>
        <pt x="992" y="413" on="0"/>
        <pt x="1095" y="693" on="0"/>
      </contour>
      <contour>
        <pt x="1294" y="911" on="1"/>
        <pt x="1294" y="842" on="1"/>
        <pt x="1294" y="668" on="0"/>
        <pt x="1159" y="334" on="0"/>
        <pt x="1052" y="224" on="1"/>
        <pt x="841" y="7" on="0"/>
        <pt x="455" y="7" on="1"/>
        <pt x="343" y="7" on="1"/>
        <pt x="112" y="7" on="0"/>
        <pt x="112" y="44" on="1"/>
        <pt x="112" y="63" on="1"/>
        <pt x="112" y="81" on="0"/>
        <pt x="136" y="194" on="0"/>
        <pt x="158" y="322" on="0"/>
        <pt x="177" y="438" on="0"/>
        <pt x="225" y="707" on="0"/>
        <pt x="330" y="1366" on="0"/>
        <pt x="330" y="1367" on="1"/>
        <pt x="349" y="1415" on="0"/>
        <pt x="510" y="1415" on="1"/>
        <pt x="532" y="1416" on="1"/>
        <pt x="554" y="1417" on="0"/>
        <pt x="576" y="1417" on="1"/>
        <pt x="687" y="1419" on="1"/>
        <pt x="734" y="1419" on="1"/>
        <pt x="1111" y="1419" on="0"/>
        <pt x="1241" y="1147" on="1"/>
        <pt x="1294" y="1035" on="0"/>
      </contour>
    </TTGlyph>
    <TTGlyph name="E" xMin="116" yMin="-2" xMax="1147" yMax="1420">
      <contour>
        <pt x="493" y="159" on="1"/>
        <pt x="834" y="174" on="1"/>
        <pt x="910" y="174" on="0"/>
        <pt x="955" y="124" on="0"/>
        <pt x="955" y="105" on="1"/>
        <pt x="955" y="35" on="0"/>
        <pt x="800" y="-2" on="0"/>
        <pt x="503" y="-2" on="1"/>
        <pt x="362" y="-2" on="1"/>
        <pt x="176" y="-2" on="0"/>
        <pt x="116" y="43" on="0"/>
        <pt x="116" y="100" on="1"/>
        <pt x="116" y="228" on="0"/>
        <pt x="262" y="900" on="1"/>
        <pt x="266" y="917" on="0"/>
        <pt x="317" y="1205" on="0"/>
        <pt x="328" y="1332" on="0"/>
        <pt x="341" y="1355" on="1"/>
        <pt x="361" y="1392" on="0"/>
        <pt x="443" y="1402" on="1"/>
        <pt x="589" y="1420" on="0"/>
        <pt x="790" y="1420" on="1"/>
        <pt x="966" y="1420" on="1"/>
        <pt x="1087" y="1420" on="0"/>
        <pt x="1147" y="1386" on="0"/>
        <pt x="1147" y="1351" on="1"/>
        <pt x="1147" y="1299" on="0"/>
        <pt x="1068" y="1265" on="1"/>
        <pt x="1026" y="1247" on="0"/>
        <pt x="922" y="1247" on="1"/>
        <pt x="686" y="1258" on="1"/>
        <pt x="586" y="1258" on="0"/>
        <pt x="539" y="1195" on="1"/>
        <pt x="462" y="1092" on="0"/>
        <pt x="462" y="920" on="1"/>
        <pt x="462" y="854" on="0"/>
        <pt x="511" y="841" on="1"/>
        <pt x="595" y="818" on="0"/>
        <pt x="929" y="818" on="0"/>
        <pt x="957" y="794" on="0"/>
        <pt x="957" y="757" on="1"/>
        <pt x="957" y="679" on="0"/>
        <pt x="898" y="662" on="1"/>
        <pt x="892" y="660" on="0"/>
        <pt x="444" y="634" on="0"/>
        <pt x="392" y="584" on="0"/>
        <pt x="385" y="558" on="1"/>
        <pt x="355" y="450" on="0"/>
        <pt x="355" y="258" on="1"/>
        <pt x="355" y="200" on="0"/>
        <pt x="432" y="159" on="0"/>
      </contour>
    </TTGlyph>
    <TTGlyph name="Eacute" xMin="152" yMin="20" xMax="1145" yMax="1904">
      <contour>
        <pt x="704" y="1593" on="1"/>
        <pt x="681" y="1593" on="0"/>
        <pt x="681" y="1606" on="1"/>
        <pt x="681" y="1613" on="1"/>
        <pt x="681" y="1623" on="0"/>
        <pt x="783" y="1776" on="0"/>
        <pt x="871" y="1853" on="1"/>
        <pt x="925" y="1900" on="0"/>
        <pt x="989" y="1900" on="1"/>
        <pt x="1001" y="1902" on="0"/>
        <pt x="1006" y="1902" on="1"/>
        <pt x="1032" y="1904" on="1"/>
        <pt x="1038" y="1904" on="1"/>
        <pt x="1081" y="1904" on="0"/>
        <pt x="1081" y="1888" on="1"/>
        <pt x="1081" y="1885" on="1"/>
        <pt x="1081" y="1849" on="0"/>
        <pt x="797" y="1596" on="0"/>
        <pt x="746" y="1596" on="1"/>
        <pt x="730" y="1593" on="1"/>
      </contour>
      <contour>
        <pt x="517" y="167" on="1"/>
        <pt x="860" y="186" on="1"/>
        <pt x="924" y="186" on="0"/>
        <pt x="972" y="144" on="0"/>
        <pt x="972" y="126" on="1"/>
        <pt x="972" y="63" on="0"/>
        <pt x="903" y="45" on="1"/>
        <pt x="810" y="20" on="0"/>
        <pt x="524" y="20" on="1"/>
        <pt x="417" y="20" on="1"/>
        <pt x="241" y="20" on="0"/>
        <pt x="152" y="60" on="0"/>
        <pt x="152" y="107" on="1"/>
        <pt x="152" y="250" on="0"/>
        <pt x="303" y="935" on="1"/>
        <pt x="308" y="956" on="0"/>
        <pt x="343" y="1211" on="0"/>
        <pt x="350" y="1359" on="0"/>
        <pt x="358" y="1374" on="1"/>
        <pt x="375" y="1408" on="0"/>
        <pt x="427" y="1421" on="1"/>
        <pt x="563" y="1455" on="0"/>
        <pt x="835" y="1455" on="1"/>
        <pt x="906" y="1455" on="1"/>
        <pt x="941" y="1454" on="1"/>
        <pt x="1063" y="1454" on="0"/>
        <pt x="1145" y="1423" on="0"/>
        <pt x="1145" y="1338" on="0"/>
        <pt x="1071" y="1308" on="1"/>
        <pt x="1032" y="1292" on="0"/>
        <pt x="933" y="1292" on="1"/>
        <pt x="732" y="1304" on="1"/>
        <pt x="657" y="1304" on="0"/>
        <pt x="585" y="1265" on="0"/>
        <pt x="550" y="1212" on="1"/>
        <pt x="475" y="1097" on="0"/>
        <pt x="475" y="936" on="1"/>
        <pt x="475" y="891" on="0"/>
        <pt x="611" y="863" on="0"/>
        <pt x="750" y="852" on="0"/>
        <pt x="894" y="844" on="0"/>
        <pt x="909" y="840" on="1"/>
        <pt x="944" y="830" on="0"/>
        <pt x="944" y="784" on="1"/>
        <pt x="944" y="717" on="0"/>
        <pt x="879" y="696" on="1"/>
        <pt x="874" y="694" on="0"/>
        <pt x="456" y="650" on="0"/>
        <pt x="433" y="633" on="1"/>
        <pt x="375" y="590" on="0"/>
        <pt x="375" y="293" on="1"/>
        <pt x="375" y="214" on="0"/>
        <pt x="427" y="184" on="1"/>
        <pt x="457" y="167" on="0"/>
      </contour>
    </TTGlyph>
    <TTGlyph name="Ecircumflex" xMin="150" yMin="16" xMax="1152" yMax="1899">
      <contour>
        <pt x="523" y="1607" on="1"/>
        <pt x="523" y="1631" on="0"/>
        <pt x="815" y="1899" on="0"/>
        <pt x="912" y="1899" on="0"/>
        <pt x="956" y="1842" on="1"/>
        <pt x="1093" y="1664" on="0"/>
        <pt x="1093" y="1621" on="1"/>
        <pt x="1093" y="1615" on="1"/>
        <pt x="1093" y="1591" on="0"/>
        <pt x="999" y="1591" on="0"/>
        <pt x="897" y="1703" on="0"/>
        <pt x="853" y="1766" on="0"/>
        <pt x="840" y="1766" on="1"/>
        <pt x="834" y="1766" on="0"/>
        <pt x="772" y="1714" on="1"/>
        <pt x="766" y="1708" on="1"/>
        <pt x="759" y="1703" on="1"/>
        <pt x="622" y="1589" on="0"/>
        <pt x="523" y="1589" on="0"/>
      </contour>
      <contour>
        <pt x="994" y="1282" on="1"/>
        <pt x="711" y="1294" on="1"/>
        <pt x="606" y="1294" on="0"/>
        <pt x="551" y="1214" on="1"/>
        <pt x="477" y="1105" on="0"/>
        <pt x="477" y="936" on="1"/>
        <pt x="477" y="889" on="0"/>
        <pt x="510" y="878" on="1"/>
        <pt x="571" y="857" on="0"/>
        <pt x="885" y="841" on="0"/>
        <pt x="901" y="836" on="1"/>
        <pt x="944" y="823" on="0"/>
        <pt x="944" y="785" on="1"/>
        <pt x="944" y="708" on="0"/>
        <pt x="891" y="689" on="1"/>
        <pt x="881" y="685" on="0"/>
        <pt x="447" y="647" on="0"/>
        <pt x="418" y="614" on="1"/>
        <pt x="375" y="566" on="0"/>
        <pt x="375" y="297" on="1"/>
        <pt x="375" y="164" on="0"/>
        <pt x="537" y="164" on="1"/>
        <pt x="839" y="185" on="1"/>
        <pt x="914" y="185" on="0"/>
        <pt x="970" y="140" on="0"/>
        <pt x="970" y="127" on="1"/>
        <pt x="970" y="53" on="0"/>
        <pt x="790" y="18" on="0"/>
        <pt x="569" y="18" on="1"/>
        <pt x="499" y="16" on="1"/>
        <pt x="428" y="16" on="1"/>
        <pt x="262" y="16" on="0"/>
        <pt x="198" y="36" on="1"/>
        <pt x="150" y="51" on="0"/>
        <pt x="150" y="125" on="1"/>
        <pt x="150" y="276" on="0"/>
        <pt x="343" y="1097" on="0"/>
        <pt x="343" y="1300" on="1"/>
        <pt x="343" y="1393" on="0"/>
        <pt x="415" y="1413" on="1"/>
        <pt x="540" y="1447" on="0"/>
        <pt x="825" y="1447" on="1"/>
        <pt x="967" y="1447" on="1"/>
        <pt x="1084" y="1447" on="0"/>
        <pt x="1152" y="1412" on="0"/>
        <pt x="1152" y="1333" on="0"/>
        <pt x="1082" y="1299" on="1"/>
        <pt x="1047" y="1282" on="0"/>
      </contour>
    </TTGlyph>
    <TTGlyph name="Edieresis" xMin="166" yMin="21" xMax="1168" yMax="1821">
      <contour>
        <pt x="698" y="1820" on="1"/>
        <pt x="770" y="1820" on="0"/>
        <pt x="770" y="1756" on="1"/>
        <pt x="770" y="1730" on="1"/>
        <pt x="766" y="1707" on="1"/>
        <pt x="766" y="1679" on="0"/>
        <pt x="709" y="1622" on="0"/>
        <pt x="685" y="1622" on="1"/>
        <pt x="679" y="1620" on="0"/>
        <pt x="675" y="1620" on="1"/>
        <pt x="655" y="1617" on="1"/>
        <pt x="634" y="1617" on="1"/>
        <pt x="567" y="1617" on="0"/>
        <pt x="567" y="1683" on="1"/>
        <pt x="567" y="1699" on="1"/>
        <pt x="571" y="1726" on="1"/>
        <pt x="571" y="1758" on="0"/>
        <pt x="628" y="1815" on="0"/>
        <pt x="651" y="1815" on="1"/>
        <pt x="660" y="1818" on="0"/>
        <pt x="664" y="1818" on="1"/>
        <pt x="681" y="1820" on="1"/>
      </contour>
      <contour>
        <pt x="1137" y="1757" on="1"/>
        <pt x="1137" y="1731" on="1"/>
        <pt x="1133" y="1708" on="1"/>
        <pt x="1133" y="1687" on="0"/>
        <pt x="1080" y="1621" on="0"/>
        <pt x="1046" y="1621" on="1"/>
        <pt x="1032" y="1618" on="1"/>
        <pt x="1026" y="1618" on="1"/>
        <pt x="1015" y="1617" on="1"/>
        <pt x="1008" y="1617" on="1"/>
        <pt x="938" y="1617" on="0"/>
        <pt x="938" y="1661" on="1"/>
        <pt x="934" y="1683" on="1"/>
        <pt x="934" y="1703" on="1"/>
        <pt x="938" y="1726" on="1"/>
        <pt x="938" y="1750" on="0"/>
        <pt x="994" y="1820" on="0"/>
        <pt x="1051" y="1820" on="1"/>
        <pt x="1057" y="1821" on="1"/>
        <pt x="1090" y="1816" on="1"/>
        <pt x="1137" y="1816" on="0"/>
      </contour>
      <contour>
        <pt x="986" y="132" on="1"/>
        <pt x="986" y="59" on="0"/>
        <pt x="803" y="21" on="0"/>
        <pt x="515" y="21" on="1"/>
        <pt x="444" y="21" on="1"/>
        <pt x="278" y="21" on="0"/>
        <pt x="214" y="41" on="1"/>
        <pt x="166" y="56" on="0"/>
        <pt x="166" y="130" on="1"/>
        <pt x="166" y="253" on="0"/>
        <pt x="358" y="1123" on="0"/>
        <pt x="358" y="1274" on="1"/>
        <pt x="358" y="1335" on="0"/>
        <pt x="387" y="1406" on="0"/>
        <pt x="431" y="1418" on="1"/>
        <pt x="556" y="1452" on="0"/>
        <pt x="877" y="1452" on="1"/>
        <pt x="947" y="1453" on="1"/>
        <pt x="1068" y="1453" on="0"/>
        <pt x="1168" y="1426" on="0"/>
        <pt x="1168" y="1338" on="0"/>
        <pt x="1098" y="1304" on="1"/>
        <pt x="1063" y="1287" on="0"/>
        <pt x="962" y="1287" on="1"/>
        <pt x="727" y="1300" on="1"/>
        <pt x="621" y="1300" on="0"/>
        <pt x="567" y="1219" on="1"/>
        <pt x="492" y="1106" on="0"/>
        <pt x="492" y="944" on="1"/>
        <pt x="492" y="897" on="0"/>
        <pt x="532" y="883" on="1"/>
        <pt x="603" y="858" on="0"/>
        <pt x="895" y="848" on="0"/>
        <pt x="917" y="841" on="1"/>
        <pt x="960" y="828" on="0"/>
        <pt x="960" y="790" on="1"/>
        <pt x="960" y="714" on="0"/>
        <pt x="906" y="694" on="1"/>
        <pt x="884" y="686" on="0"/>
        <pt x="804" y="681" on="1"/>
        <pt x="471" y="660" on="0"/>
        <pt x="391" y="574" on="0"/>
        <pt x="391" y="302" on="1"/>
        <pt x="391" y="169" on="0"/>
        <pt x="553" y="169" on="1"/>
        <pt x="854" y="190" on="1"/>
        <pt x="928" y="190" on="0"/>
        <pt x="986" y="146" on="0"/>
      </contour>
    </TTGlyph>
    <TTGlyph name="Egrave" xMin="150" yMin="21" xMax="1152" yMax="1909">
      <contour>
        <pt x="908" y="1621" on="1"/>
        <pt x="908" y="1613" on="1"/>
        <pt x="908" y="1591" on="0"/>
        <pt x="869" y="1591" on="1"/>
        <pt x="849" y="1595" on="0"/>
        <pt x="833" y="1595" on="1"/>
        <pt x="793" y="1595" on="0"/>
        <pt x="577" y="1842" on="0"/>
        <pt x="577" y="1875" on="1"/>
        <pt x="577" y="1886" on="1"/>
        <pt x="577" y="1909" on="0"/>
        <pt x="625" y="1909" on="1"/>
        <pt x="635" y="1909" on="1"/>
        <pt x="675" y="1905" on="1"/>
        <pt x="733" y="1905" on="0"/>
        <pt x="784" y="1846" on="1"/>
        <pt x="908" y="1701" on="0"/>
      </contour>
      <contour>
        <pt x="375" y="302" on="1"/>
        <pt x="375" y="168" on="0"/>
        <pt x="537" y="168" on="1"/>
        <pt x="600" y="168" on="0"/>
        <pt x="778" y="189" on="0"/>
        <pt x="915" y="189" on="0"/>
        <pt x="970" y="145" on="0"/>
        <pt x="970" y="132" on="1"/>
        <pt x="970" y="59" on="0"/>
        <pt x="788" y="21" on="0"/>
        <pt x="534" y="21" on="1"/>
        <pt x="428" y="21" on="1"/>
        <pt x="255" y="21" on="0"/>
        <pt x="150" y="56" on="0"/>
        <pt x="150" y="129" on="1"/>
        <pt x="150" y="275" on="0"/>
        <pt x="343" y="1107" on="0"/>
        <pt x="343" y="1304" on="1"/>
        <pt x="343" y="1397" on="0"/>
        <pt x="415" y="1418" on="1"/>
        <pt x="533" y="1452" on="0"/>
        <pt x="861" y="1452" on="1"/>
        <pt x="967" y="1452" on="1"/>
        <pt x="1082" y="1452" on="0"/>
        <pt x="1152" y="1418" on="0"/>
        <pt x="1152" y="1338" on="0"/>
        <pt x="1082" y="1304" on="1"/>
        <pt x="1045" y="1286" on="0"/>
        <pt x="946" y="1286" on="1"/>
        <pt x="711" y="1299" on="1"/>
        <pt x="605" y="1299" on="0"/>
        <pt x="551" y="1218" on="1"/>
        <pt x="477" y="1107" on="0"/>
        <pt x="477" y="941" on="1"/>
        <pt x="477" y="895" on="0"/>
        <pt x="510" y="884" on="1"/>
        <pt x="572" y="863" on="0"/>
        <pt x="786" y="850" on="1"/>
        <pt x="816" y="849" on="1"/>
        <pt x="865" y="847" on="0"/>
        <pt x="874" y="846" on="1"/>
        <pt x="944" y="836" on="0"/>
        <pt x="944" y="790" on="1"/>
        <pt x="944" y="712" on="0"/>
        <pt x="891" y="693" on="1"/>
        <pt x="871" y="686" on="0"/>
        <pt x="791" y="681" on="1"/>
        <pt x="455" y="660" on="0"/>
        <pt x="375" y="571" on="0"/>
      </contour>
    </TTGlyph>
    <TTGlyph name="Eth" xMin="103" yMin="11" xMax="1332" yMax="1430">
      <contour>
        <pt x="412" y="162" on="1"/>
        <pt x="470" y="162" on="1"/>
        <pt x="488" y="163" on="1"/>
        <pt x="651" y="163" on="0"/>
        <pt x="864" y="236" on="0"/>
        <pt x="1040" y="412" on="0"/>
        <pt x="1144" y="687" on="0"/>
        <pt x="1144" y="843" on="1"/>
        <pt x="1143" y="863" on="1"/>
        <pt x="1143" y="883" on="1"/>
        <pt x="1143" y="885" on="0"/>
        <pt x="1143" y="888" on="1"/>
        <pt x="1143" y="967" on="0"/>
        <pt x="1112" y="1048" on="1"/>
        <pt x="1025" y="1282" on="0"/>
        <pt x="721" y="1282" on="1"/>
        <pt x="702" y="1282" on="1"/>
        <pt x="683" y="1281" on="1"/>
        <pt x="664" y="1281" on="1"/>
        <pt x="540" y="1281" on="0"/>
        <pt x="514" y="1228" on="1"/>
        <pt x="454" y="1104" on="0"/>
        <pt x="454" y="894" on="1"/>
        <pt x="454" y="811" on="0"/>
        <pt x="591" y="794" on="1"/>
        <pt x="689" y="782" on="0"/>
        <pt x="689" y="698" on="0"/>
        <pt x="643" y="660" on="0"/>
        <pt x="571" y="660" on="1"/>
        <pt x="436" y="660" on="0"/>
        <pt x="407" y="605" on="1"/>
        <pt x="397" y="585" on="0"/>
        <pt x="344" y="252" on="0"/>
        <pt x="344" y="220" on="1"/>
        <pt x="344" y="162" on="0"/>
      </contour>
      <contour>
        <pt x="103" y="717" on="1"/>
        <pt x="103" y="780" on="0"/>
        <pt x="247" y="812" on="0"/>
        <pt x="281" y="914" on="0"/>
        <pt x="332" y="1378" on="0"/>
        <pt x="344" y="1391" on="1"/>
        <pt x="380" y="1430" on="0"/>
        <pt x="700" y="1430" on="1"/>
        <pt x="724" y="1430" on="1"/>
        <pt x="1016" y="1430" on="0"/>
        <pt x="1332" y="1144" on="0"/>
        <pt x="1332" y="882" on="1"/>
        <pt x="1332" y="833" on="1"/>
        <pt x="1332" y="660" on="0"/>
        <pt x="1266" y="498" on="1"/>
        <pt x="1129" y="164" on="0"/>
        <pt x="802" y="56" on="1"/>
        <pt x="667" y="11" on="0"/>
        <pt x="466" y="11" on="1"/>
        <pt x="345" y="11" on="1"/>
        <pt x="202" y="11" on="0"/>
        <pt x="137" y="33" on="0"/>
        <pt x="137" y="64" on="1"/>
        <pt x="220" y="600" on="1"/>
        <pt x="220" y="641" on="0"/>
        <pt x="174" y="660" on="1"/>
        <pt x="103" y="689" on="0"/>
      </contour>
    </TTGlyph>
    <TTGlyph name="Euro" xMin="118" yMin="13" xMax="1215" yMax="1394">
      <contour>
        <pt x="842" y="567" on="1"/>
        <pt x="842" y="520" on="0"/>
        <pt x="556" y="466" on="0"/>
        <pt x="492" y="430" on="0"/>
        <pt x="492" y="394" on="1"/>
        <pt x="492" y="295" on="0"/>
        <pt x="640" y="192" on="0"/>
        <pt x="764" y="192" on="1"/>
        <pt x="801" y="192" on="0"/>
        <pt x="961" y="223" on="0"/>
        <pt x="964" y="223" on="1"/>
        <pt x="1048" y="223" on="0"/>
        <pt x="1048" y="183" on="1"/>
        <pt x="1048" y="137" on="0"/>
        <pt x="832" y="13" on="0"/>
        <pt x="710" y="13" on="1"/>
        <pt x="671" y="13" on="1"/>
        <pt x="492" y="13" on="0"/>
        <pt x="379" y="140" on="1"/>
        <pt x="351" y="171" on="0"/>
        <pt x="225" y="440" on="0"/>
        <pt x="118" y="537" on="0"/>
        <pt x="118" y="612" on="0"/>
        <pt x="156" y="625" on="1"/>
        <pt x="241" y="654" on="0"/>
        <pt x="244" y="658" on="1"/>
        <pt x="260" y="682" on="0"/>
        <pt x="260" y="754" on="0"/>
        <pt x="164" y="787" on="0"/>
        <pt x="164" y="846" on="0"/>
        <pt x="213" y="886" on="1"/>
        <pt x="369" y="1013" on="0"/>
        <pt x="388" y="1044" on="1"/>
        <pt x="490" y="1210" on="0"/>
        <pt x="572" y="1272" on="1"/>
        <pt x="732" y="1394" on="0"/>
        <pt x="930" y="1394" on="1"/>
        <pt x="1036" y="1394" on="0"/>
        <pt x="1215" y="1303" on="0"/>
        <pt x="1215" y="1246" on="1"/>
        <pt x="1215" y="1219" on="0"/>
        <pt x="1153" y="1168" on="0"/>
        <pt x="1096" y="1168" on="0"/>
        <pt x="951" y="1200" on="0"/>
        <pt x="774" y="1200" on="0"/>
        <pt x="604" y="1067" on="0"/>
        <pt x="604" y="999" on="1"/>
        <pt x="604" y="955" on="0"/>
        <pt x="929" y="891" on="0"/>
        <pt x="929" y="857" on="1"/>
        <pt x="929" y="809" on="0"/>
        <pt x="857" y="789" on="1"/>
        <pt x="803" y="774" on="0"/>
        <pt x="529" y="774" on="0"/>
        <pt x="464" y="733" on="0"/>
        <pt x="464" y="677" on="1"/>
        <pt x="464" y="635" on="0"/>
        <pt x="741" y="635" on="0"/>
        <pt x="842" y="605" on="0"/>
      </contour>
    </TTGlyph>
    <TTGlyph name="F" xMin="125" yMin="27" xMax="1128" yMax="1425">
      <contour>
        <pt x="1046" y="1425" on="1"/>
        <pt x="1128" y="1425" on="0"/>
        <pt x="1128" y="1318" on="0"/>
        <pt x="1045" y="1267" on="0"/>
        <pt x="980" y="1267" on="1"/>
        <pt x="957" y="1268" on="1"/>
        <pt x="935" y="1270" on="1"/>
        <pt x="889" y="1273" on="0"/>
        <pt x="862" y="1273" on="1"/>
        <pt x="605" y="1273" on="0"/>
        <pt x="566" y="1228" on="1"/>
        <pt x="539" y="1197" on="0"/>
        <pt x="487" y="962" on="0"/>
        <pt x="487" y="859" on="1"/>
        <pt x="487" y="810" on="0"/>
        <pt x="728" y="810" on="1"/>
        <pt x="877" y="810" on="0"/>
        <pt x="946" y="774" on="0"/>
        <pt x="946" y="656" on="0"/>
        <pt x="900" y="642" on="1"/>
        <pt x="891" y="639" on="0"/>
        <pt x="535" y="613" on="0"/>
        <pt x="529" y="612" on="1"/>
        <pt x="464" y="596" on="0"/>
        <pt x="381" y="508" on="0"/>
        <pt x="308" y="127" on="0"/>
        <pt x="294" y="91" on="1"/>
        <pt x="270" y="27" on="0"/>
        <pt x="182" y="27" on="1"/>
        <pt x="125" y="27" on="0"/>
        <pt x="125" y="70" on="1"/>
        <pt x="125" y="163" on="0"/>
        <pt x="300" y="1072" on="0"/>
        <pt x="315" y="1178" on="0"/>
        <pt x="321" y="1318" on="0"/>
        <pt x="350" y="1378" on="0"/>
        <pt x="381" y="1387" on="1"/>
        <pt x="474" y="1415" on="0"/>
        <pt x="736" y="1415" on="1"/>
        <pt x="764" y="1416" on="1"/>
        <pt x="793" y="1417" on="0"/>
        <pt x="822" y="1417" on="1"/>
        <pt x="992" y="1425" on="1"/>
      </contour>
    </TTGlyph>
    <TTGlyph name="G" xMin="154" yMin="-39" xMax="1260" yMax="1421">
      <contour>
        <pt x="927" y="1421" on="1"/>
        <pt x="964" y="1421" on="1"/>
        <pt x="1079" y="1421" on="0"/>
        <pt x="1260" y="1328" on="0"/>
        <pt x="1260" y="1271" on="1"/>
        <pt x="1260" y="1251" on="0"/>
        <pt x="1211" y="1195" on="0"/>
        <pt x="1151" y="1195" on="1"/>
        <pt x="1138" y="1195" on="0"/>
        <pt x="931" y="1252" on="0"/>
        <pt x="829" y="1252" on="1"/>
        <pt x="728" y="1252" on="0"/>
        <pt x="640" y="1196" on="1"/>
        <pt x="450" y="1075" on="0"/>
        <pt x="379" y="827" on="1"/>
        <pt x="347" y="714" on="0"/>
        <pt x="347" y="597" on="1"/>
        <pt x="347" y="410" on="0"/>
        <pt x="538" y="205" on="0"/>
        <pt x="836" y="205" on="0"/>
        <pt x="1000" y="317" on="0"/>
        <pt x="1000" y="397" on="1"/>
        <pt x="1000" y="423" on="0"/>
        <pt x="881" y="551" on="0"/>
        <pt x="881" y="626" on="0"/>
        <pt x="1081" y="626" on="0"/>
        <pt x="1165" y="558" on="0"/>
        <pt x="1165" y="415" on="0"/>
        <pt x="1102" y="152" on="0"/>
        <pt x="1014" y="49" on="0"/>
        <pt x="922" y="17" on="1"/>
        <pt x="759" y="-39" on="0"/>
        <pt x="662" y="-39" on="1"/>
        <pt x="471" y="-39" on="0"/>
        <pt x="154" y="320" on="0"/>
        <pt x="154" y="602" on="1"/>
        <pt x="154" y="769" on="0"/>
        <pt x="281" y="1089" on="0"/>
        <pt x="391" y="1203" on="1"/>
        <pt x="601" y="1421" on="0"/>
      </contour>
    </TTGlyph>
    <TTGlyph name="H" xMin="113" yMin="17" xMax="1353" yMax="1396">
      <contour>
        <pt x="1084" y="19" on="1"/>
        <pt x="1007" y="19" on="0"/>
        <pt x="960" y="73" on="0"/>
        <pt x="960" y="176" on="0"/>
        <pt x="1012" y="517" on="0"/>
        <pt x="1012" y="553" on="1"/>
        <pt x="1012" y="619" on="0"/>
        <pt x="909" y="651" on="0"/>
        <pt x="655" y="651" on="1"/>
        <pt x="475" y="651" on="0"/>
        <pt x="395" y="555" on="0"/>
        <pt x="324" y="219" on="1"/>
        <pt x="299" y="101" on="0"/>
        <pt x="294" y="90" on="1"/>
        <pt x="263" y="17" on="0"/>
        <pt x="113" y="17" on="0"/>
        <pt x="113" y="50" on="1"/>
        <pt x="113" y="55" on="0"/>
        <pt x="245" y="732" on="0"/>
        <pt x="307" y="1256" on="0"/>
        <pt x="323" y="1325" on="1"/>
        <pt x="334" y="1373" on="0"/>
        <pt x="412" y="1373" on="1"/>
        <pt x="459" y="1373" on="0"/>
        <pt x="504" y="1330" on="0"/>
        <pt x="504" y="1264" on="0"/>
        <pt x="487" y="1117" on="1"/>
        <pt x="464" y="942" on="1"/>
        <pt x="463" y="909" on="1"/>
        <pt x="463" y="843" on="0"/>
        <pt x="517" y="828" on="1"/>
        <pt x="598" y="805" on="0"/>
        <pt x="909" y="805" on="1"/>
        <pt x="1038" y="805" on="0"/>
        <pt x="1071" y="871" on="1"/>
        <pt x="1090" y="908" on="0"/>
        <pt x="1160" y="1282" on="0"/>
        <pt x="1182" y="1326" on="1"/>
        <pt x="1216" y="1396" on="0"/>
        <pt x="1293" y="1396" on="1"/>
        <pt x="1321" y="1396" on="1"/>
        <pt x="1353" y="1396" on="0"/>
        <pt x="1353" y="1365" on="1"/>
        <pt x="1353" y="1333" on="1"/>
        <pt x="1353" y="1207" on="0"/>
        <pt x="1193" y="531" on="0"/>
        <pt x="1149" y="73" on="0"/>
        <pt x="1147" y="66" on="1"/>
        <pt x="1136" y="19" on="0"/>
      </contour>
    </TTGlyph>
    <TTGlyph name="I" xMin="138" yMin="-1" xMax="594" yMax="1411">
      <contour>
        <pt x="278" y="-1" on="1"/>
        <pt x="245" y="-1" on="1"/>
        <pt x="176" y="-1" on="0"/>
        <pt x="138" y="35" on="0"/>
        <pt x="138" y="78" on="1"/>
        <pt x="138" y="93" on="1"/>
        <pt x="138" y="150" on="0"/>
        <pt x="194" y="284" on="0"/>
        <pt x="228" y="424" on="0"/>
        <pt x="325" y="1008" on="0"/>
        <pt x="325" y="1141" on="1"/>
        <pt x="322" y="1227" on="1"/>
        <pt x="322" y="1344" on="0"/>
        <pt x="373" y="1383" on="1"/>
        <pt x="409" y="1411" on="0"/>
        <pt x="498" y="1411" on="1"/>
        <pt x="515" y="1411" on="1"/>
        <pt x="594" y="1411" on="0"/>
        <pt x="594" y="1345" on="1"/>
        <pt x="594" y="1316" on="1"/>
        <pt x="594" y="1271" on="0"/>
        <pt x="538" y="1121" on="0"/>
        <pt x="410" y="351" on="0"/>
        <pt x="410" y="97" on="0"/>
        <pt x="350" y="-1" on="0"/>
      </contour>
    </TTGlyph>
    <TTGlyph name="Iacute" xMin="158" yMin="14" xMax="770" yMax="1885">
      <contour>
        <pt x="400" y="1578" on="1"/>
        <pt x="371" y="1578" on="0"/>
        <pt x="371" y="1591" on="1"/>
        <pt x="371" y="1595" on="1"/>
        <pt x="371" y="1607" on="0"/>
        <pt x="426" y="1689" on="1"/>
        <pt x="555" y="1881" on="0"/>
        <pt x="667" y="1881" on="1"/>
        <pt x="679" y="1883" on="0"/>
        <pt x="684" y="1883" on="1"/>
        <pt x="710" y="1885" on="1"/>
        <pt x="732" y="1885" on="1"/>
        <pt x="770" y="1885" on="0"/>
        <pt x="770" y="1870" on="1"/>
        <pt x="770" y="1867" on="1"/>
        <pt x="770" y="1829" on="0"/>
        <pt x="488" y="1582" on="0"/>
        <pt x="443" y="1582" on="1"/>
        <pt x="433" y="1580" on="0"/>
        <pt x="427" y="1580" on="1"/>
        <pt x="405" y="1578" on="1"/>
      </contour>
      <contour>
        <pt x="477" y="1442" on="1"/>
        <pt x="493" y="1442" on="1"/>
        <pt x="556" y="1442" on="0"/>
        <pt x="556" y="1371" on="1"/>
        <pt x="556" y="1357" on="1"/>
        <pt x="556" y="1324" on="0"/>
        <pt x="383" y="315" on="0"/>
        <pt x="383" y="94" on="0"/>
        <pt x="334" y="14" on="0"/>
        <pt x="198" y="14" on="0"/>
        <pt x="158" y="43" on="0"/>
        <pt x="158" y="160" on="0"/>
        <pt x="206" y="304" on="0"/>
        <pt x="216" y="362" on="1"/>
        <pt x="222" y="397" on="1"/>
        <pt x="227" y="433" on="1"/>
        <pt x="239" y="504" on="1"/>
        <pt x="245" y="540" on="0"/>
        <pt x="252" y="579" on="0"/>
        <pt x="256" y="613" on="0"/>
        <pt x="265" y="663" on="1"/>
        <pt x="334" y="1066" on="0"/>
        <pt x="334" y="1188" on="1"/>
        <pt x="332" y="1202" on="1"/>
        <pt x="329" y="1275" on="1"/>
        <pt x="329" y="1373" on="0"/>
        <pt x="394" y="1442" on="0"/>
      </contour>
    </TTGlyph>
    <TTGlyph name="Icircumflex" xMin="141" yMin="10" xMax="768" yMax="1877">
      <contour>
        <pt x="537" y="1877" on="1"/>
        <pt x="544" y="1877" on="1"/>
        <pt x="589" y="1877" on="0"/>
        <pt x="649" y="1793" on="1"/>
        <pt x="768" y="1626" on="0"/>
        <pt x="768" y="1603" on="1"/>
        <pt x="768" y="1596" on="1"/>
        <pt x="768" y="1575" on="0"/>
        <pt x="719" y="1575" on="1"/>
        <pt x="649" y="1575" on="0"/>
        <pt x="557" y="1695" on="1"/>
        <pt x="521" y="1742" on="0"/>
        <pt x="503" y="1742" on="0"/>
        <pt x="302" y="1572" on="0"/>
        <pt x="237" y="1572" on="1"/>
        <pt x="230" y="1572" on="1"/>
        <pt x="198" y="1572" on="0"/>
        <pt x="198" y="1586" on="1"/>
        <pt x="198" y="1591" on="1"/>
        <pt x="198" y="1617" on="0"/>
        <pt x="419" y="1820" on="1"/>
        <pt x="481" y="1877" on="0"/>
      </contour>
      <contour>
        <pt x="313" y="1218" on="0"/>
        <pt x="313" y="1356" on="0"/>
        <pt x="370" y="1435" on="0"/>
        <pt x="462" y="1435" on="1"/>
        <pt x="478" y="1435" on="1"/>
        <pt x="542" y="1435" on="0"/>
        <pt x="542" y="1365" on="1"/>
        <pt x="542" y="1351" on="1"/>
        <pt x="542" y="1323" on="0"/>
        <pt x="368" y="308" on="0"/>
        <pt x="368" y="98" on="0"/>
        <pt x="351" y="63" on="1"/>
        <pt x="326" y="10" on="0"/>
        <pt x="258" y="10" on="1"/>
        <pt x="243" y="10" on="1"/>
        <pt x="181" y="10" on="0"/>
        <pt x="141" y="37" on="0"/>
        <pt x="141" y="83" on="1"/>
        <pt x="141" y="113" on="1"/>
        <pt x="141" y="154" on="0"/>
        <pt x="187" y="293" on="0"/>
        <pt x="201" y="373" on="1"/>
        <pt x="251" y="673" on="1"/>
        <pt x="318" y="1075" on="0"/>
        <pt x="318" y="1183" on="1"/>
      </contour>
    </TTGlyph>
    <TTGlyph name="Idieresis" xMin="160" yMin="12" xMax="809" yMax="1805">
      <contour>
        <pt x="314" y="1596" on="1"/>
        <pt x="243" y="1596" on="0"/>
        <pt x="243" y="1646" on="1"/>
        <pt x="240" y="1662" on="1"/>
        <pt x="240" y="1685" on="1"/>
        <pt x="241" y="1689" on="1"/>
        <pt x="241" y="1696" on="1"/>
        <pt x="243" y="1702" on="0"/>
        <pt x="243" y="1733" on="0"/>
        <pt x="301" y="1805" on="0"/>
        <pt x="354" y="1805" on="1"/>
        <pt x="367" y="1805" on="1"/>
        <pt x="379" y="1802" on="0"/>
        <pt x="387" y="1802" on="1"/>
        <pt x="443" y="1802" on="0"/>
        <pt x="443" y="1739" on="1"/>
        <pt x="443" y="1712" on="1"/>
        <pt x="439" y="1688" on="1"/>
        <pt x="439" y="1659" on="0"/>
        <pt x="380" y="1600" on="0"/>
        <pt x="351" y="1600" on="1"/>
        <pt x="345" y="1598" on="0"/>
        <pt x="341" y="1598" on="1"/>
        <pt x="324" y="1596" on="1"/>
      </contour>
      <contour>
        <pt x="805" y="1692" on="1"/>
        <pt x="805" y="1660" on="0"/>
        <pt x="745" y="1600" on="0"/>
        <pt x="716" y="1600" on="1"/>
        <pt x="710" y="1598" on="1"/>
        <pt x="703" y="1598" on="1"/>
        <pt x="682" y="1597" on="1"/>
        <pt x="605" y="1597" on="0"/>
        <pt x="605" y="1665" on="1"/>
        <pt x="605" y="1679" on="1"/>
        <pt x="606" y="1682" on="1"/>
        <pt x="609" y="1706" on="1"/>
        <pt x="610" y="1710" on="0"/>
        <pt x="610" y="1735" on="0"/>
        <pt x="663" y="1801" on="0"/>
        <pt x="693" y="1801" on="1"/>
        <pt x="699" y="1803" on="0"/>
        <pt x="702" y="1803" on="1"/>
        <pt x="716" y="1805" on="1"/>
        <pt x="740" y="1805" on="1"/>
        <pt x="749" y="1802" on="0"/>
        <pt x="756" y="1802" on="1"/>
        <pt x="804" y="1802" on="0"/>
        <pt x="804" y="1758" on="1"/>
        <pt x="807" y="1749" on="0"/>
        <pt x="807" y="1745" on="1"/>
        <pt x="809" y="1729" on="1"/>
        <pt x="809" y="1722" on="1"/>
        <pt x="808" y="1719" on="1"/>
        <pt x="808" y="1709" on="1"/>
        <pt x="808" y="1709" on="0"/>
      </contour>
      <contour>
        <pt x="160" y="85" on="1"/>
        <pt x="160" y="114" on="1"/>
        <pt x="160" y="155" on="0"/>
        <pt x="224" y="347" on="0"/>
        <pt x="337" y="1151" on="0"/>
        <pt x="337" y="1186" on="1"/>
        <pt x="334" y="1214" on="1"/>
        <pt x="332" y="1233" on="0"/>
        <pt x="332" y="1258" on="1"/>
        <pt x="332" y="1369" on="0"/>
        <pt x="396" y="1437" on="0"/>
        <pt x="483" y="1437" on="1"/>
        <pt x="498" y="1437" on="1"/>
        <pt x="563" y="1437" on="0"/>
        <pt x="563" y="1368" on="1"/>
        <pt x="563" y="1354" on="1"/>
        <pt x="563" y="1320" on="0"/>
        <pt x="389" y="305" on="0"/>
        <pt x="389" y="87" on="0"/>
        <pt x="340" y="12" on="0"/>
        <pt x="278" y="12" on="1"/>
        <pt x="263" y="12" on="1"/>
        <pt x="202" y="12" on="0"/>
        <pt x="160" y="39" on="0"/>
      </contour>
    </TTGlyph>
    <TTGlyph name="Igrave" xMin="141" yMin="15" xMax="590" yMax="1885">
      <contour>
        <pt x="590" y="1605" on="1"/>
        <pt x="590" y="1597" on="1"/>
        <pt x="590" y="1576" on="0"/>
        <pt x="554" y="1576" on="1"/>
        <pt x="544" y="1576" on="1"/>
        <pt x="524" y="1580" on="0"/>
        <pt x="508" y="1580" on="1"/>
        <pt x="467" y="1580" on="0"/>
        <pt x="256" y="1821" on="0"/>
        <pt x="256" y="1862" on="1"/>
        <pt x="256" y="1885" on="0"/>
        <pt x="301" y="1885" on="1"/>
        <pt x="326" y="1885" on="1"/>
        <pt x="366" y="1881" on="1"/>
        <pt x="422" y="1881" on="0"/>
        <pt x="467" y="1829" on="1"/>
        <pt x="590" y="1685" on="0"/>
      </contour>
      <contour>
        <pt x="258" y="15" on="1"/>
        <pt x="228" y="15" on="1"/>
        <pt x="180" y="15" on="0"/>
        <pt x="141" y="44" on="0"/>
        <pt x="141" y="158" on="0"/>
        <pt x="187" y="292" on="0"/>
        <pt x="243" y="616" on="0"/>
        <pt x="319" y="1164" on="0"/>
        <pt x="319" y="1174" on="1"/>
        <pt x="314" y="1239" on="0"/>
        <pt x="314" y="1274" on="1"/>
        <pt x="314" y="1370" on="0"/>
        <pt x="379" y="1439" on="0"/>
        <pt x="463" y="1439" on="1"/>
        <pt x="494" y="1439" on="1"/>
        <pt x="543" y="1439" on="0"/>
        <pt x="543" y="1355" on="1"/>
        <pt x="543" y="1328" on="0"/>
        <pt x="368" y="307" on="0"/>
        <pt x="368" y="91" on="0"/>
        <pt x="318" y="15" on="0"/>
      </contour>
    </TTGlyph>
    <TTGlyph name="J" xMin="-22" yMin="-136" xMax="766" yMax="1407">
      <contour>
        <pt x="-22" y="-52" on="1"/>
        <pt x="-22" y="57" on="0"/>
        <pt x="137" y="57" on="1"/>
        <pt x="219" y="57" on="0"/>
        <pt x="278" y="105" on="1"/>
        <pt x="404" y="207" on="0"/>
        <pt x="488" y="675" on="1"/>
        <pt x="542" y="972" on="0"/>
        <pt x="542" y="1087" on="1"/>
        <pt x="542" y="1304" on="0"/>
        <pt x="563" y="1347" on="1"/>
        <pt x="592" y="1407" on="0"/>
        <pt x="708" y="1407" on="1"/>
        <pt x="747" y="1407" on="0"/>
        <pt x="765" y="1343" on="0"/>
        <pt x="765" y="1244" on="1"/>
        <pt x="766" y="1226" on="1"/>
        <pt x="766" y="1125" on="0"/>
        <pt x="612" y="279" on="0"/>
        <pt x="501" y="17" on="0"/>
        <pt x="305" y="-136" on="0"/>
        <pt x="184" y="-136" on="1"/>
        <pt x="165" y="-136" on="1"/>
        <pt x="80" y="-136" on="0"/>
        <pt x="-22" y="-92" on="0"/>
      </contour>
    </TTGlyph>
    <TTGlyph name="K" xMin="139" yMin="1" xMax="1246" yMax="1396">
      <contour>
        <pt x="449" y="833" on="1"/>
        <pt x="505" y="833" on="0"/>
        <pt x="738" y="1056" on="1"/>
        <pt x="874" y="1186" on="0"/>
        <pt x="1023" y="1332" on="0"/>
        <pt x="1029" y="1336" on="1"/>
        <pt x="1115" y="1396" on="0"/>
        <pt x="1205" y="1396" on="1"/>
        <pt x="1246" y="1396" on="0"/>
        <pt x="1246" y="1375" on="1"/>
        <pt x="1246" y="1373" on="0"/>
        <pt x="714" y="798" on="0"/>
        <pt x="714" y="748" on="1"/>
        <pt x="714" y="720" on="0"/>
        <pt x="1086" y="61" on="0"/>
        <pt x="1086" y="21" on="1"/>
        <pt x="1086" y="1" on="0"/>
        <pt x="1022" y="1" on="1"/>
        <pt x="918" y="1" on="0"/>
        <pt x="854" y="85" on="1"/>
        <pt x="825" y="124" on="0"/>
        <pt x="626" y="541" on="0"/>
        <pt x="564" y="637" on="0"/>
        <pt x="509" y="637" on="1"/>
        <pt x="443" y="637" on="0"/>
        <pt x="396" y="510" on="1"/>
        <pt x="377" y="458" on="0"/>
        <pt x="314" y="114" on="0"/>
        <pt x="259" y="19" on="0"/>
        <pt x="139" y="19" on="0"/>
        <pt x="139" y="72" on="1"/>
        <pt x="139" y="97" on="0"/>
        <pt x="238" y="752" on="0"/>
        <pt x="269" y="929" on="0"/>
        <pt x="309" y="1269" on="0"/>
        <pt x="338" y="1370" on="0"/>
        <pt x="441" y="1370" on="0"/>
        <pt x="484" y="1337" on="0"/>
        <pt x="484" y="1295" on="1"/>
        <pt x="429" y="856" on="1"/>
        <pt x="429" y="833" on="0"/>
      </contour>
    </TTGlyph>
    <TTGlyph name="L" xMin="123" yMin="-13" xMax="951" yMax="1408">
      <contour>
        <pt x="860" y="151" on="1"/>
        <pt x="951" y="151" on="0"/>
        <pt x="951" y="74" on="1"/>
        <pt x="951" y="16" on="0"/>
        <pt x="920" y="-13" on="0"/>
        <pt x="852" y="-13" on="1"/>
        <pt x="716" y="-13" on="1"/>
        <pt x="693" y="-12" on="1"/>
        <pt x="670" y="-11" on="0"/>
        <pt x="647" y="-11" on="1"/>
        <pt x="601" y="-9" on="1"/>
        <pt x="578" y="-8" on="0"/>
        <pt x="554" y="-8" on="1"/>
        <pt x="531" y="-7" on="1"/>
        <pt x="508" y="-6" on="0"/>
        <pt x="485" y="-6" on="1"/>
        <pt x="439" y="-4" on="1"/>
        <pt x="369" y="-3" on="1"/>
        <pt x="217" y="-3" on="0"/>
        <pt x="123" y="20" on="0"/>
        <pt x="123" y="68" on="1"/>
        <pt x="123" y="75" on="0"/>
        <pt x="226" y="681" on="0"/>
        <pt x="272" y="994" on="0"/>
        <pt x="308" y="1203" on="0"/>
        <pt x="318" y="1339" on="0"/>
        <pt x="323" y="1359" on="1"/>
        <pt x="335" y="1408" on="0"/>
        <pt x="400" y="1408" on="1"/>
        <pt x="442" y="1408" on="1"/>
        <pt x="490" y="1408" on="0"/>
        <pt x="518" y="1372" on="0"/>
        <pt x="518" y="1225" on="0"/>
        <pt x="352" y="292" on="0"/>
        <pt x="352" y="179" on="0"/>
        <pt x="435" y="152" on="0"/>
        <pt x="564" y="152" on="1"/>
        <pt x="587" y="151" on="1"/>
        <pt x="610" y="150" on="0"/>
        <pt x="632" y="150" on="1"/>
        <pt x="793" y="150" on="1"/>
        <pt x="815" y="151" on="1"/>
      </contour>
    </TTGlyph>
    <TTGlyph name="Lslash" xMin="120" yMin="-46" xMax="1008" yMax="1352">
      <contour>
        <pt x="784" y="918" on="1"/>
        <pt x="784" y="880" on="0"/>
        <pt x="523" y="697" on="0"/>
        <pt x="479" y="622" on="1"/>
        <pt x="459" y="588" on="0"/>
        <pt x="412" y="339" on="0"/>
        <pt x="412" y="200" on="0"/>
        <pt x="459" y="174" on="1"/>
        <pt x="531" y="134" on="0"/>
        <pt x="728" y="134" on="1"/>
        <pt x="757" y="132" on="1"/>
        <pt x="787" y="131" on="1"/>
        <pt x="875" y="131" on="1"/>
        <pt x="960" y="131" on="0"/>
        <pt x="1008" y="90" on="0"/>
        <pt x="1008" y="49" on="1"/>
        <pt x="1008" y="26" on="1"/>
        <pt x="1008" y="-15" on="0"/>
        <pt x="959" y="-46" on="0"/>
        <pt x="849" y="-46" on="1"/>
        <pt x="465" y="-46" on="0"/>
        <pt x="233" y="-5" on="1"/>
        <pt x="174" y="5" on="0"/>
        <pt x="174" y="145" on="0"/>
        <pt x="226" y="462" on="0"/>
        <pt x="226" y="480" on="1"/>
        <pt x="226" y="515" on="0"/>
        <pt x="186" y="515" on="1"/>
        <pt x="120" y="515" on="0"/>
        <pt x="120" y="654" on="0"/>
        <pt x="261" y="829" on="0"/>
        <pt x="300" y="927" on="0"/>
        <pt x="300" y="1048" on="0"/>
        <pt x="343" y="1313" on="1"/>
        <pt x="349" y="1352" on="0"/>
        <pt x="385" y="1352" on="1"/>
        <pt x="460" y="1352" on="0"/>
        <pt x="484" y="1308" on="1"/>
        <pt x="490" y="1297" on="0"/>
        <pt x="490" y="1000" on="0"/>
        <pt x="516" y="936" on="0"/>
        <pt x="553" y="936" on="1"/>
        <pt x="723" y="987" on="1"/>
        <pt x="784" y="987" on="0"/>
      </contour>
    </TTGlyph>
    <TTGlyph name="M" xMin="135" yMin="42" xMax="1618" yMax="1384">
      <contour>
        <pt x="487" y="991" on="1"/>
        <pt x="485" y="991" on="0"/>
        <pt x="357" y="521" on="0"/>
        <pt x="302" y="254" on="0"/>
        <pt x="292" y="224" on="1"/>
        <pt x="244" y="81" on="0"/>
        <pt x="173" y="81" on="1"/>
        <pt x="135" y="81" on="0"/>
        <pt x="135" y="145" on="1"/>
        <pt x="143" y="190" on="1"/>
        <pt x="153" y="236" on="1"/>
        <pt x="165" y="284" on="1"/>
        <pt x="197" y="419" on="0"/>
        <pt x="218" y="573" on="1"/>
        <pt x="237" y="717" on="1"/>
        <pt x="310" y="1219" on="0"/>
        <pt x="350" y="1328" on="0"/>
        <pt x="425" y="1384" on="0"/>
        <pt x="449" y="1384" on="1"/>
        <pt x="485" y="1384" on="1"/>
        <pt x="513" y="1384" on="0"/>
        <pt x="593" y="1310" on="0"/>
        <pt x="667" y="1144" on="0"/>
        <pt x="867" y="543" on="0"/>
        <pt x="879" y="543" on="0"/>
        <pt x="1117" y="883" on="0"/>
        <pt x="1162" y="951" on="1"/>
        <pt x="1298" y="1156" on="1"/>
        <pt x="1333" y="1211" on="0"/>
        <pt x="1350" y="1234" on="1"/>
        <pt x="1377" y="1270" on="1"/>
        <pt x="1462" y="1373" on="0"/>
        <pt x="1533" y="1373" on="1"/>
        <pt x="1561" y="1373" on="0"/>
        <pt x="1618" y="1316" on="0"/>
        <pt x="1618" y="1190" on="0"/>
        <pt x="1580" y="946" on="0"/>
        <pt x="1487" y="190" on="0"/>
        <pt x="1450" y="42" on="0"/>
        <pt x="1410" y="42" on="1"/>
        <pt x="1383" y="42" on="1"/>
        <pt x="1362" y="42" on="0"/>
        <pt x="1309" y="129" on="0"/>
        <pt x="1309" y="274" on="0"/>
        <pt x="1343" y="557" on="0"/>
        <pt x="1385" y="977" on="0"/>
        <pt x="1385" y="999" on="0"/>
        <pt x="1376" y="999" on="1"/>
        <pt x="1355" y="999" on="0"/>
        <pt x="1023" y="424" on="0"/>
        <pt x="929" y="303" on="1"/>
        <pt x="877" y="236" on="0"/>
        <pt x="754" y="236" on="0"/>
        <pt x="696" y="365" on="0"/>
        <pt x="594" y="782" on="0"/>
        <pt x="523" y="991" on="0"/>
      </contour>
    </TTGlyph>
    <TTGlyph name="N" xMin="126" yMin="28" xMax="1410" yMax="1388">
      <contour>
        <pt x="1126" y="28" on="1"/>
        <pt x="1014" y="28" on="0"/>
        <pt x="950" y="124" on="1"/>
        <pt x="925" y="162" on="0"/>
        <pt x="517" y="1085" on="0"/>
        <pt x="483" y="1085" on="1"/>
        <pt x="473" y="1085" on="0"/>
        <pt x="318" y="226" on="0"/>
        <pt x="284" y="95" on="0"/>
        <pt x="230" y="32" on="0"/>
        <pt x="126" y="32" on="0"/>
        <pt x="126" y="76" on="1"/>
        <pt x="126" y="111" on="0"/>
        <pt x="174" y="354" on="0"/>
        <pt x="268" y="933" on="0"/>
        <pt x="299" y="1091" on="0"/>
        <pt x="306" y="1147" on="1"/>
        <pt x="320" y="1265" on="1"/>
        <pt x="326" y="1303" on="1"/>
        <pt x="342" y="1386" on="0"/>
        <pt x="403" y="1386" on="1"/>
        <pt x="476" y="1386" on="0"/>
        <pt x="575" y="1325" on="0"/>
        <pt x="625" y="1244" on="1"/>
        <pt x="718" y="1093" on="0"/>
        <pt x="1042" y="360" on="0"/>
        <pt x="1045" y="360" on="1"/>
        <pt x="1067" y="360" on="0"/>
        <pt x="1210" y="1211" on="0"/>
        <pt x="1239" y="1316" on="0"/>
        <pt x="1303" y="1388" on="0"/>
        <pt x="1350" y="1388" on="1"/>
        <pt x="1381" y="1388" on="1"/>
        <pt x="1410" y="1388" on="0"/>
        <pt x="1410" y="1350" on="1"/>
        <pt x="1410" y="1343" on="0"/>
        <pt x="1282" y="705" on="0"/>
        <pt x="1245" y="486" on="0"/>
        <pt x="1241" y="465" on="1"/>
        <pt x="1234" y="423" on="1"/>
        <pt x="1224" y="361" on="0"/>
        <pt x="1221" y="342" on="1"/>
        <pt x="1214" y="301" on="1"/>
        <pt x="1203" y="231" on="0"/>
        <pt x="1201" y="220" on="1"/>
        <pt x="1180" y="99" on="1"/>
        <pt x="1162" y="28" on="0"/>
      </contour>
    </TTGlyph>
    <TTGlyph name="Nacute" xMin="188" yMin="80" xMax="1509" yMax="1981">
      <contour>
        <pt x="1221" y="1981" on="1"/>
        <pt x="1295" y="1981" on="1"/>
        <pt x="1387" y="1981" on="0"/>
        <pt x="1387" y="1964" on="1"/>
        <pt x="1387" y="1942" on="0"/>
        <pt x="1070" y="1660" on="0"/>
        <pt x="1027" y="1660" on="1"/>
        <pt x="1009" y="1660" on="1"/>
        <pt x="1003" y="1661" on="1"/>
        <pt x="991" y="1661" on="1"/>
        <pt x="930" y="1661" on="0"/>
        <pt x="930" y="1682" on="1"/>
        <pt x="930" y="1712" on="0"/>
        <pt x="1115" y="1920" on="1"/>
        <pt x="1169" y="1981" on="0"/>
      </contour>
      <contour>
        <pt x="1186" y="80" on="1"/>
        <pt x="1066" y="80" on="0"/>
        <pt x="1025" y="155" on="1"/>
        <pt x="1010" y="182" on="0"/>
        <pt x="961" y="319" on="1"/>
        <pt x="782" y="818" on="0"/>
        <pt x="618" y="1137" on="0"/>
        <pt x="577" y="1137" on="1"/>
        <pt x="559" y="1137" on="0"/>
        <pt x="395" y="367" on="0"/>
        <pt x="350" y="242" on="1"/>
        <pt x="331" y="189" on="0"/>
        <pt x="260" y="130" on="0"/>
        <pt x="246" y="130" on="1"/>
        <pt x="188" y="130" on="0"/>
        <pt x="188" y="209" on="1"/>
        <pt x="188" y="233" on="0"/>
        <pt x="232" y="487" on="0"/>
        <pt x="244" y="582" on="0"/>
        <pt x="268" y="681" on="0"/>
        <pt x="271" y="708" on="1"/>
        <pt x="275" y="764" on="1"/>
        <pt x="279" y="823" on="0"/>
        <pt x="284" y="858" on="1"/>
        <pt x="346" y="1316" on="0"/>
        <pt x="399" y="1461" on="0"/>
        <pt x="523" y="1461" on="1"/>
        <pt x="587" y="1461" on="0"/>
        <pt x="639" y="1406" on="1"/>
        <pt x="842" y="1191" on="0"/>
        <pt x="992" y="817" on="1"/>
        <pt x="1019" y="749" on="0"/>
        <pt x="1121" y="475" on="0"/>
        <pt x="1126" y="475" on="1"/>
        <pt x="1150" y="475" on="0"/>
        <pt x="1307" y="1282" on="0"/>
        <pt x="1312" y="1293" on="1"/>
        <pt x="1372" y="1426" on="0"/>
        <pt x="1488" y="1426" on="1"/>
        <pt x="1509" y="1426" on="0"/>
        <pt x="1509" y="1358" on="0"/>
        <pt x="1436" y="1076" on="1"/>
        <pt x="1392" y="913" on="1"/>
        <pt x="1340" y="718" on="0"/>
        <pt x="1321" y="627" on="0"/>
        <pt x="1239" y="113" on="0"/>
        <pt x="1236" y="106" on="1"/>
        <pt x="1224" y="80" on="0"/>
      </contour>
    </TTGlyph>
    <TTGlyph name="Ntilde" xMin="152" yMin="41" xMax="1448" yMax="1804">
      <contour>
        <pt x="848" y="1804" on="1"/>
        <pt x="872" y="1804" on="1"/>
        <pt x="920" y="1804" on="0"/>
        <pt x="1065" y="1717" on="0"/>
        <pt x="1132" y="1717" on="0"/>
        <pt x="1226" y="1795" on="0"/>
        <pt x="1294" y="1795" on="0"/>
        <pt x="1294" y="1769" on="1"/>
        <pt x="1294" y="1711" on="0"/>
        <pt x="1167" y="1595" on="0"/>
        <pt x="1095" y="1595" on="1"/>
        <pt x="1079" y="1595" on="1"/>
        <pt x="1034" y="1595" on="0"/>
        <pt x="872" y="1686" on="0"/>
        <pt x="807" y="1686" on="0"/>
        <pt x="718" y="1605" on="0"/>
        <pt x="647" y="1605" on="0"/>
        <pt x="647" y="1624" on="1"/>
        <pt x="647" y="1631" on="1"/>
        <pt x="647" y="1685" on="0"/>
        <pt x="777" y="1804" on="0"/>
      </contour>
      <contour>
        <pt x="1171" y="41" on="1"/>
        <pt x="1119" y="41" on="0"/>
        <pt x="1036" y="94" on="0"/>
        <pt x="950" y="240" on="0"/>
        <pt x="870" y="413" on="1"/>
        <pt x="548" y="1106" on="0"/>
        <pt x="499" y="1106" on="1"/>
        <pt x="485" y="1106" on="0"/>
        <pt x="330" y="230" on="0"/>
        <pt x="316" y="177" on="1"/>
        <pt x="282" y="48" on="0"/>
        <pt x="213" y="48" on="1"/>
        <pt x="152" y="48" on="0"/>
        <pt x="152" y="120" on="0"/>
        <pt x="277" y="889" on="0"/>
        <pt x="317" y="1106" on="0"/>
        <pt x="337" y="1329" on="0"/>
        <pt x="344" y="1349" on="1"/>
        <pt x="362" y="1399" on="0"/>
        <pt x="410" y="1399" on="1"/>
        <pt x="496" y="1399" on="0"/>
        <pt x="563" y="1348" on="1"/>
        <pt x="595" y="1324" on="0"/>
        <pt x="755" y="1087" on="0"/>
        <pt x="1098" y="373" on="0"/>
        <pt x="1117" y="373" on="0"/>
        <pt x="1198" y="855" on="0"/>
        <pt x="1205" y="896" on="1"/>
        <pt x="1226" y="1019" on="1"/>
        <pt x="1261" y="1242" on="0"/>
        <pt x="1266" y="1260" on="1"/>
        <pt x="1288" y="1343" on="0"/>
        <pt x="1365" y="1407" on="0"/>
        <pt x="1419" y="1407" on="1"/>
        <pt x="1448" y="1407" on="0"/>
        <pt x="1448" y="1371" on="1"/>
        <pt x="1448" y="1352" on="0"/>
        <pt x="1320" y="738" on="0"/>
        <pt x="1231" y="140" on="0"/>
        <pt x="1225" y="111" on="1"/>
        <pt x="1209" y="41" on="0"/>
      </contour>
    </TTGlyph>
    <TTGlyph name="O" xMin="142" yMin="-15" xMax="1411" yMax="1444">
      <contour>
        <pt x="1210" y="848" on="1"/>
        <pt x="1210" y="880" on="1"/>
        <pt x="1210" y="983" on="0"/>
        <pt x="1150" y="1141" on="0"/>
        <pt x="1108" y="1187" on="1"/>
        <pt x="1021" y="1282" on="0"/>
        <pt x="866" y="1282" on="1"/>
        <pt x="649" y="1282" on="0"/>
        <pt x="496" y="1072" on="1"/>
        <pt x="430" y="982" on="0"/>
        <pt x="344" y="714" on="0"/>
        <pt x="344" y="599" on="1"/>
        <pt x="344" y="550" on="1"/>
        <pt x="344" y="364" on="0"/>
        <pt x="522" y="149" on="0"/>
        <pt x="654" y="149" on="1"/>
        <pt x="704" y="149" on="1"/>
        <pt x="797" y="150" on="0"/>
        <pt x="888" y="202" on="1"/>
        <pt x="1091" y="319" on="0"/>
        <pt x="1174" y="604" on="1"/>
        <pt x="1210" y="728" on="0"/>
      </contour>
      <contour>
        <pt x="1411" y="900" on="1"/>
        <pt x="1411" y="855" on="1"/>
        <pt x="1411" y="698" on="0"/>
        <pt x="1294" y="355" on="0"/>
        <pt x="1083" y="114" on="0"/>
        <pt x="817" y="-15" on="0"/>
        <pt x="675" y="-15" on="1"/>
        <pt x="652" y="-15" on="1"/>
        <pt x="291" y="-15" on="0"/>
        <pt x="177" y="310" on="1"/>
        <pt x="142" y="410" on="0"/>
        <pt x="142" y="526" on="1"/>
        <pt x="142" y="594" on="1"/>
        <pt x="142" y="741" on="0"/>
        <pt x="264" y="1074" on="0"/>
        <pt x="471" y="1318" on="0"/>
        <pt x="744" y="1444" on="0"/>
        <pt x="878" y="1444" on="1"/>
        <pt x="925" y="1444" on="1"/>
        <pt x="1020" y="1444" on="0"/>
        <pt x="1116" y="1405" on="1"/>
        <pt x="1303" y="1329" on="0"/>
        <pt x="1376" y="1117" on="1"/>
        <pt x="1411" y="1014" on="0"/>
      </contour>
    </TTGlyph>
    <TTGlyph name="OE" xMin="205" yMin="5" xMax="1975" yMax="1436">
      <contour>
        <pt x="1102" y="890" on="1"/>
        <pt x="1102" y="1122" on="0"/>
        <pt x="990" y="1283" on="0"/>
        <pt x="847" y="1283" on="1"/>
        <pt x="833" y="1283" on="1"/>
        <pt x="733" y="1283" on="0"/>
        <pt x="648" y="1214" on="1"/>
        <pt x="610" y="1182" on="0"/>
        <pt x="534" y="1066" on="1"/>
        <pt x="376" y="823" on="0"/>
        <pt x="376" y="570" on="1"/>
        <pt x="376" y="537" on="1"/>
        <pt x="376" y="380" on="0"/>
        <pt x="533" y="172" on="0"/>
        <pt x="672" y="172" on="1"/>
        <pt x="688" y="172" on="1"/>
        <pt x="766" y="172" on="0"/>
        <pt x="891" y="227" on="0"/>
        <pt x="919" y="266" on="1"/>
        <pt x="1099" y="510" on="0"/>
        <pt x="1099" y="788" on="1"/>
        <pt x="1101" y="817" on="1"/>
        <pt x="1102" y="861" on="1"/>
      </contour>
      <contour>
        <pt x="1624" y="1436" on="1"/>
        <pt x="1975" y="1436" on="0"/>
        <pt x="1975" y="1344" on="1"/>
        <pt x="1975" y="1328" on="0"/>
        <pt x="1886" y="1272" on="0"/>
        <pt x="1819" y="1272" on="1"/>
        <pt x="1696" y="1275" on="1"/>
        <pt x="1613" y="1274" on="1"/>
        <pt x="1465" y="1274" on="0"/>
        <pt x="1415" y="1210" on="1"/>
        <pt x="1388" y="1175" on="0"/>
        <pt x="1352" y="967" on="0"/>
        <pt x="1352" y="855" on="0"/>
        <pt x="1402" y="840" on="1"/>
        <pt x="1436" y="830" on="0"/>
        <pt x="1761" y="830" on="0"/>
        <pt x="1800" y="808" on="0"/>
        <pt x="1800" y="711" on="0"/>
        <pt x="1748" y="683" on="1"/>
        <pt x="1715" y="665" on="0"/>
        <pt x="1352" y="665" on="0"/>
        <pt x="1300" y="620" on="0"/>
        <pt x="1245" y="430" on="0"/>
        <pt x="1245" y="309" on="1"/>
        <pt x="1245" y="233" on="0"/>
        <pt x="1334" y="180" on="0"/>
        <pt x="1766" y="180" on="0"/>
        <pt x="1766" y="129" on="1"/>
        <pt x="1766" y="87" on="0"/>
        <pt x="1588" y="26" on="0"/>
        <pt x="1228" y="26" on="0"/>
        <pt x="1112" y="110" on="0"/>
        <pt x="1076" y="110" on="0"/>
        <pt x="808" y="5" on="0"/>
        <pt x="693" y="5" on="1"/>
        <pt x="652" y="5" on="1"/>
        <pt x="555" y="5" on="0"/>
        <pt x="471" y="44" on="1"/>
        <pt x="299" y="124" on="0"/>
        <pt x="237" y="316" on="1"/>
        <pt x="205" y="416" on="0"/>
        <pt x="205" y="523" on="1"/>
        <pt x="205" y="567" on="1"/>
        <pt x="205" y="733" on="0"/>
        <pt x="325" y="1075" on="0"/>
        <pt x="426" y="1193" on="1"/>
        <pt x="634" y="1436" on="0"/>
        <pt x="909" y="1436" on="1"/>
        <pt x="1052" y="1436" on="0"/>
        <pt x="1169" y="1374" on="1"/>
        <pt x="1237" y="1338" on="0"/>
        <pt x="1267" y="1338" on="0"/>
        <pt x="1369" y="1407" on="0"/>
        <pt x="1499" y="1436" on="0"/>
      </contour>
    </TTGlyph>
    <TTGlyph name="Oacute" xMin="143" yMin="14" xMax="1436" yMax="1881">
      <contour>
        <pt x="718" y="199" on="1"/>
        <pt x="720" y="199" on="0"/>
        <pt x="721" y="199" on="1"/>
        <pt x="825" y="199" on="0"/>
        <pt x="924" y="258" on="1"/>
        <pt x="1123" y="376" on="0"/>
        <pt x="1207" y="635" on="1"/>
        <pt x="1250" y="768" on="0"/>
        <pt x="1250" y="899" on="1"/>
        <pt x="1250" y="916" on="1"/>
        <pt x="1250" y="1110" on="0"/>
        <pt x="1053" y="1345" on="0"/>
        <pt x="910" y="1345" on="1"/>
        <pt x="876" y="1345" on="1"/>
        <pt x="785" y="1345" on="0"/>
        <pt x="596" y="1250" on="0"/>
        <pt x="441" y="1059" on="0"/>
        <pt x="345" y="789" on="0"/>
        <pt x="345" y="661" on="1"/>
        <pt x="345" y="610" on="1"/>
        <pt x="345" y="431" on="0"/>
        <pt x="537" y="199" on="0"/>
        <pt x="684" y="199" on="1"/>
      </contour>
      <contour>
        <pt x="1176" y="1881" on="1"/>
        <pt x="1203" y="1881" on="0"/>
        <pt x="1203" y="1868" on="1"/>
        <pt x="1203" y="1817" on="0"/>
        <pt x="943" y="1615" on="1"/>
        <pt x="875" y="1562" on="0"/>
        <pt x="825" y="1562" on="1"/>
        <pt x="800" y="1562" on="1"/>
        <pt x="788" y="1562" on="0"/>
        <pt x="788" y="1569" on="1"/>
        <pt x="788" y="1576" on="1"/>
        <pt x="788" y="1580" on="0"/>
        <pt x="815" y="1620" on="1"/>
        <pt x="886" y="1726" on="0"/>
        <pt x="1000" y="1826" on="1"/>
        <pt x="1061" y="1879" on="0"/>
        <pt x="1141" y="1879" on="1"/>
        <pt x="1151" y="1881" on="1"/>
      </contour>
      <contour>
        <pt x="1436" y="903" on="1"/>
        <pt x="1436" y="880" on="1"/>
        <pt x="1436" y="527" on="0"/>
        <pt x="1218" y="271" on="1"/>
        <pt x="1114" y="148" on="0"/>
        <pt x="838" y="14" on="0"/>
        <pt x="705" y="14" on="1"/>
        <pt x="659" y="14" on="1"/>
        <pt x="437" y="14" on="0"/>
        <pt x="290" y="170" on="1"/>
        <pt x="214" y="251" on="0"/>
        <pt x="143" y="475" on="0"/>
        <pt x="143" y="591" on="1"/>
        <pt x="143" y="614" on="1"/>
        <pt x="143" y="958" on="0"/>
        <pt x="358" y="1220" on="1"/>
        <pt x="459" y="1344" on="0"/>
        <pt x="744" y="1483" on="0"/>
        <pt x="874" y="1483" on="1"/>
        <pt x="920" y="1483" on="1"/>
        <pt x="1141" y="1483" on="0"/>
        <pt x="1290" y="1325" on="1"/>
        <pt x="1359" y="1252" on="0"/>
        <pt x="1436" y="1025" on="0"/>
      </contour>
    </TTGlyph>
    <TTGlyph name="Ocircumflex" xMin="142" yMin="5" xMax="1435" yMax="1853">
      <contour>
        <pt x="1246" y="867" on="1"/>
        <pt x="1246" y="900" on="1"/>
        <pt x="1246" y="1084" on="0"/>
        <pt x="1148" y="1208" on="1"/>
        <pt x="1050" y="1331" on="0"/>
        <pt x="887" y="1331" on="1"/>
        <pt x="871" y="1331" on="1"/>
        <pt x="871" y="1331" on="0"/>
        <pt x="867" y="1331" on="1"/>
        <pt x="762" y="1331" on="0"/>
        <pt x="664" y="1272" on="1"/>
        <pt x="465" y="1153" on="0"/>
        <pt x="382" y="896" on="1"/>
        <pt x="339" y="763" on="0"/>
        <pt x="339" y="633" on="1"/>
        <pt x="340" y="616" on="1"/>
        <pt x="340" y="420" on="0"/>
        <pt x="439" y="306" on="1"/>
        <pt x="537" y="193" on="0"/>
        <pt x="696" y="193" on="1"/>
        <pt x="697" y="193" on="0"/>
        <pt x="699" y="193" on="1"/>
        <pt x="917" y="193" on="0"/>
        <pt x="1075" y="381" on="1"/>
        <pt x="1161" y="483" on="0"/>
        <pt x="1246" y="747" on="0"/>
      </contour>
      <contour>
        <pt x="1217" y="1608" on="1"/>
        <pt x="1217" y="1596" on="1"/>
        <pt x="1217" y="1578" on="0"/>
        <pt x="1101" y="1578" on="0"/>
        <pt x="1001" y="1686" on="1"/>
        <pt x="954" y="1737" on="0"/>
        <pt x="944" y="1737" on="0"/>
        <pt x="729" y="1555" on="0"/>
        <pt x="668" y="1555" on="1"/>
        <pt x="637" y="1555" on="0"/>
        <pt x="637" y="1567" on="1"/>
        <pt x="637" y="1572" on="1"/>
        <pt x="637" y="1619" on="0"/>
        <pt x="872" y="1800" on="1"/>
        <pt x="941" y="1853" on="0"/>
        <pt x="1031" y="1853" on="0"/>
        <pt x="1066" y="1818" on="1"/>
        <pt x="1217" y="1667" on="0"/>
      </contour>
      <contour>
        <pt x="1435" y="894" on="1"/>
        <pt x="1435" y="848" on="1"/>
        <pt x="1435" y="696" on="0"/>
        <pt x="1318" y="375" on="0"/>
        <pt x="1109" y="138" on="0"/>
        <pt x="836" y="5" on="0"/>
        <pt x="706" y="5" on="1"/>
        <pt x="660" y="5" on="1"/>
        <pt x="426" y="5" on="0"/>
        <pt x="276" y="175" on="1"/>
        <pt x="210" y="251" on="0"/>
        <pt x="142" y="470" on="0"/>
        <pt x="142" y="580" on="1"/>
        <pt x="142" y="603" on="1"/>
        <pt x="142" y="762" on="0"/>
        <pt x="246" y="1075" on="0"/>
        <pt x="457" y="1332" on="0"/>
        <pt x="742" y="1471" on="0"/>
        <pt x="872" y="1471" on="1"/>
        <pt x="918" y="1471" on="1"/>
        <pt x="1031" y="1471" on="0"/>
        <pt x="1127" y="1429" on="1"/>
        <pt x="1323" y="1343" on="0"/>
        <pt x="1395" y="1133" on="1"/>
        <pt x="1435" y="1016" on="0"/>
      </contour>
    </TTGlyph>
    <TTGlyph name="Odieresis" xMin="143" yMin="3" xMax="1436" yMax="1808">
      <contour>
        <pt x="1238" y="865" on="1"/>
        <pt x="1238" y="916" on="1"/>
        <pt x="1238" y="1006" on="0"/>
        <pt x="1178" y="1169" on="0"/>
        <pt x="1128" y="1224" on="1"/>
        <pt x="1034" y="1327" on="0"/>
        <pt x="885" y="1327" on="1"/>
        <pt x="868" y="1327" on="1"/>
        <pt x="764" y="1326" on="0"/>
        <pt x="665" y="1270" on="1"/>
        <pt x="466" y="1156" on="0"/>
        <pt x="379" y="880" on="1"/>
        <pt x="342" y="762" on="0"/>
        <pt x="342" y="633" on="1"/>
        <pt x="342" y="616" on="1"/>
        <pt x="342" y="428" on="0"/>
        <pt x="532" y="189" on="0"/>
        <pt x="678" y="189" on="1"/>
        <pt x="713" y="189" on="1"/>
        <pt x="918" y="189" on="0"/>
        <pt x="1080" y="391" on="1"/>
        <pt x="1145" y="473" on="0"/>
        <pt x="1238" y="734" on="0"/>
      </contour>
      <contour>
        <pt x="749" y="1604" on="1"/>
        <pt x="732" y="1604" on="1"/>
        <pt x="728" y="1605" on="1"/>
        <pt x="722" y="1605" on="1"/>
        <pt x="714" y="1607" on="0"/>
        <pt x="712" y="1607" on="1"/>
        <pt x="663" y="1607" on="0"/>
        <pt x="663" y="1655" on="1"/>
        <pt x="660" y="1674" on="1"/>
        <pt x="660" y="1687" on="1"/>
        <pt x="665" y="1718" on="1"/>
        <pt x="665" y="1747" on="0"/>
        <pt x="723" y="1805" on="0"/>
        <pt x="752" y="1805" on="1"/>
        <pt x="772" y="1808" on="1"/>
        <pt x="796" y="1808" on="1"/>
        <pt x="866" y="1808" on="0"/>
        <pt x="866" y="1741" on="1"/>
        <pt x="866" y="1725" on="1"/>
        <pt x="862" y="1698" on="1"/>
        <pt x="862" y="1676" on="0"/>
        <pt x="804" y="1604" on="0"/>
      </contour>
      <contour>
        <pt x="1154" y="1798" on="1"/>
        <pt x="1164" y="1798" on="1"/>
        <pt x="1217" y="1798" on="0"/>
        <pt x="1217" y="1753" on="1"/>
        <pt x="1217" y="1726" on="1"/>
        <pt x="1216" y="1723" on="1"/>
        <pt x="1216" y="1716" on="1"/>
        <pt x="1214" y="1708" on="0"/>
        <pt x="1214" y="1705" on="1"/>
        <pt x="1214" y="1657" on="0"/>
        <pt x="1132" y="1575" on="0"/>
        <pt x="1092" y="1575" on="1"/>
        <pt x="1086" y="1573" on="1"/>
        <pt x="1060" y="1573" on="1"/>
        <pt x="1017" y="1573" on="0"/>
        <pt x="1017" y="1620" on="1"/>
        <pt x="1017" y="1637" on="1"/>
        <pt x="1021" y="1665" on="1"/>
        <pt x="1021" y="1715" on="0"/>
        <pt x="1104" y="1798" on="0"/>
      </contour>
      <contour>
        <pt x="1436" y="914" on="1"/>
        <pt x="1436" y="846" on="1"/>
        <pt x="1436" y="692" on="0"/>
        <pt x="1323" y="382" on="0"/>
        <pt x="1121" y="145" on="0"/>
        <pt x="845" y="3" on="0"/>
        <pt x="707" y="3" on="1"/>
        <pt x="661" y="3" on="1"/>
        <pt x="658" y="3" on="0"/>
        <pt x="656" y="3" on="1"/>
        <pt x="544" y="3" on="0"/>
        <pt x="450" y="44" on="1"/>
        <pt x="261" y="126" on="0"/>
        <pt x="184" y="337" on="1"/>
        <pt x="143" y="449" on="0"/>
        <pt x="143" y="761" on="0"/>
        <pt x="253" y="1083" on="0"/>
        <pt x="463" y="1331" on="0"/>
        <pt x="740" y="1469" on="0"/>
        <pt x="873" y="1469" on="1"/>
        <pt x="919" y="1469" on="1"/>
        <pt x="1038" y="1469" on="0"/>
        <pt x="1132" y="1425" on="1"/>
        <pt x="1317" y="1339" on="0"/>
        <pt x="1389" y="1151" on="1"/>
        <pt x="1436" y="1029" on="0"/>
      </contour>
    </TTGlyph>
    <TTGlyph name="Ograve" xMin="143" yMin="15" xMax="1436" yMax="1879">
      <contour>
        <pt x="1237" y="861" on="1"/>
        <pt x="1237" y="911" on="1"/>
        <pt x="1237" y="1096" on="0"/>
        <pt x="1043" y="1340" on="0"/>
        <pt x="881" y="1340" on="1"/>
        <pt x="848" y="1340" on="1"/>
        <pt x="754" y="1340" on="0"/>
        <pt x="654" y="1281" on="1"/>
        <pt x="462" y="1167" on="0"/>
        <pt x="380" y="909" on="1"/>
        <pt x="340" y="785" on="0"/>
        <pt x="340" y="663" on="1"/>
        <pt x="340" y="629" on="1"/>
        <pt x="340" y="443" on="0"/>
        <pt x="532" y="201" on="0"/>
        <pt x="679" y="201" on="1"/>
        <pt x="713" y="201" on="1"/>
        <pt x="806" y="201" on="0"/>
        <pt x="996" y="296" on="0"/>
        <pt x="1147" y="482" on="0"/>
        <pt x="1237" y="737" on="0"/>
      </contour>
      <contour>
        <pt x="1015" y="1565" on="1"/>
        <pt x="1007" y="1565" on="1"/>
        <pt x="952" y="1565" on="0"/>
        <pt x="920" y="1597" on="1"/>
        <pt x="696" y="1821" on="0"/>
        <pt x="696" y="1857" on="1"/>
        <pt x="696" y="1864" on="1"/>
        <pt x="696" y="1876" on="0"/>
        <pt x="729" y="1876" on="1"/>
        <pt x="751" y="1879" on="1"/>
        <pt x="756" y="1878" on="1"/>
        <pt x="833" y="1878" on="0"/>
        <pt x="918" y="1793" on="0"/>
        <pt x="1043" y="1605" on="0"/>
        <pt x="1043" y="1588" on="1"/>
        <pt x="1043" y="1581" on="1"/>
        <pt x="1043" y="1565" on="0"/>
      </contour>
      <contour>
        <pt x="1436" y="903" on="1"/>
        <pt x="1436" y="881" on="1"/>
        <pt x="1436" y="707" on="0"/>
        <pt x="1318" y="385" on="0"/>
        <pt x="1110" y="148" on="0"/>
        <pt x="837" y="15" on="0"/>
        <pt x="706" y="15" on="1"/>
        <pt x="660" y="15" on="1"/>
        <pt x="444" y="15" on="0"/>
        <pt x="305" y="154" on="1"/>
        <pt x="225" y="234" on="0"/>
        <pt x="143" y="458" on="0"/>
        <pt x="143" y="567" on="1"/>
        <pt x="143" y="635" on="1"/>
        <pt x="144" y="787" on="0"/>
        <pt x="200" y="941" on="1"/>
        <pt x="321" y="1272" on="0"/>
        <pt x="601" y="1412" on="1"/>
        <pt x="739" y="1481" on="0"/>
        <pt x="873" y="1481" on="1"/>
        <pt x="919" y="1481" on="1"/>
        <pt x="1142" y="1481" on="0"/>
        <pt x="1289" y="1325" on="1"/>
        <pt x="1355" y="1254" on="0"/>
        <pt x="1436" y="1034" on="0"/>
      </contour>
    </TTGlyph>
    <TTGlyph name="Oslash" xMin="227" yMin="0" xMax="1409" yMax="1452">
      <contour>
        <pt x="358" y="621" on="1"/>
        <pt x="358" y="592" on="1"/>
        <pt x="358" y="431" on="0"/>
        <pt x="412" y="344" on="1"/>
        <pt x="431" y="313" on="0"/>
        <pt x="469" y="313" on="0"/>
        <pt x="508" y="348" on="1"/>
        <pt x="645" y="470" on="0"/>
        <pt x="777" y="672" on="1"/>
        <pt x="1074" y="1127" on="0"/>
        <pt x="1074" y="1190" on="1"/>
        <pt x="1074" y="1201" on="1"/>
        <pt x="1074" y="1248" on="0"/>
        <pt x="983" y="1311" on="0"/>
        <pt x="929" y="1311" on="1"/>
        <pt x="915" y="1311" on="1"/>
        <pt x="813" y="1311" on="0"/>
        <pt x="611" y="1218" on="0"/>
        <pt x="451" y="1021" on="0"/>
        <pt x="358" y="752" on="0"/>
      </contour>
      <contour>
        <pt x="631" y="153" on="1"/>
        <pt x="651" y="153" on="1"/>
        <pt x="736" y="153" on="0"/>
        <pt x="836" y="228" on="1"/>
        <pt x="1041" y="382" on="0"/>
        <pt x="1147" y="709" on="1"/>
        <pt x="1201" y="878" on="0"/>
        <pt x="1201" y="993" on="1"/>
        <pt x="1201" y="1029" on="1"/>
        <pt x="1201" y="1155" on="0"/>
        <pt x="1172" y="1155" on="1"/>
        <pt x="1165" y="1155" on="1"/>
        <pt x="1150" y="1155" on="0"/>
        <pt x="915" y="738" on="0"/>
        <pt x="785" y="548" on="0"/>
        <pt x="558" y="236" on="0"/>
        <pt x="558" y="220" on="1"/>
        <pt x="558" y="153" on="0"/>
      </contour>
      <contour>
        <pt x="1048" y="1439" on="1"/>
        <pt x="1170" y="1432" on="1"/>
        <pt x="1191" y="1432" on="0"/>
        <pt x="1246" y="1452" on="0"/>
        <pt x="1255" y="1452" on="1"/>
        <pt x="1350" y="1452" on="0"/>
        <pt x="1350" y="1397" on="1"/>
        <pt x="1350" y="1394" on="0"/>
        <pt x="1328" y="1295" on="0"/>
        <pt x="1328" y="1269" on="1"/>
        <pt x="1328" y="1268" on="0"/>
        <pt x="1409" y="1020" on="0"/>
        <pt x="1409" y="920" on="1"/>
        <pt x="1409" y="868" on="1"/>
        <pt x="1409" y="721" on="0"/>
        <pt x="1353" y="559" on="1"/>
        <pt x="1232" y="210" on="0"/>
        <pt x="918" y="60" on="1"/>
        <pt x="792" y="0" on="0"/>
        <pt x="642" y="0" on="1"/>
        <pt x="594" y="0" on="1"/>
        <pt x="356" y="23" on="1"/>
        <pt x="324" y="17" on="0"/>
        <pt x="311" y="17" on="1"/>
        <pt x="227" y="17" on="0"/>
        <pt x="227" y="66" on="1"/>
        <pt x="227" y="85" on="1"/>
        <pt x="227" y="88" on="0"/>
        <pt x="275" y="248" on="0"/>
        <pt x="275" y="274" on="0"/>
        <pt x="230" y="427" on="0"/>
        <pt x="230" y="735" on="0"/>
        <pt x="333" y="1084" on="0"/>
        <pt x="532" y="1304" on="0"/>
        <pt x="858" y="1439" on="0"/>
      </contour>
    </TTGlyph>
    <TTGlyph name="Otilde" xMin="141" yMin="-6" xMax="1434" yMax="1778">
      <contour>
        <pt x="1245" y="859" on="1"/>
        <pt x="1245" y="893" on="1"/>
        <pt x="1244" y="910" on="1"/>
        <pt x="1244" y="995" on="0"/>
        <pt x="1214" y="1077" on="1"/>
        <pt x="1126" y="1317" on="0"/>
        <pt x="886" y="1317" on="1"/>
        <pt x="869" y="1317" on="1"/>
        <pt x="770" y="1317" on="0"/>
        <pt x="670" y="1263" on="1"/>
        <pt x="568" y="1209" on="0"/>
        <pt x="490" y="1102" on="1"/>
        <pt x="339" y="896" on="0"/>
        <pt x="339" y="626" on="1"/>
        <pt x="339" y="624" on="0"/>
        <pt x="339" y="622" on="1"/>
        <pt x="339" y="605" on="1"/>
        <pt x="339" y="423" on="0"/>
        <pt x="531" y="182" on="0"/>
        <pt x="681" y="182" on="1"/>
        <pt x="715" y="182" on="1"/>
        <pt x="814" y="182" on="0"/>
        <pt x="910" y="234" on="1"/>
        <pt x="1104" y="337" on="0"/>
        <pt x="1199" y="597" on="1"/>
        <pt x="1245" y="722" on="0"/>
      </contour>
      <contour>
        <pt x="1126" y="1588" on="0"/>
        <pt x="994" y="1588" on="0"/>
        <pt x="840" y="1670" on="0"/>
        <pt x="765" y="1670" on="0"/>
        <pt x="681" y="1578" on="0"/>
        <pt x="607" y="1578" on="0"/>
        <pt x="607" y="1599" on="1"/>
        <pt x="607" y="1663" on="0"/>
        <pt x="744" y="1766" on="0"/>
        <pt x="881" y="1766" on="0"/>
        <pt x="1027" y="1688" on="0"/>
        <pt x="1098" y="1688" on="0"/>
        <pt x="1188" y="1778" on="0"/>
        <pt x="1216" y="1778" on="1"/>
        <pt x="1223" y="1778" on="1"/>
        <pt x="1258" y="1778" on="0"/>
        <pt x="1258" y="1756" on="1"/>
        <pt x="1258" y="1748" on="1"/>
        <pt x="1258" y="1690" on="0"/>
        <pt x="1178" y="1628" on="1"/>
      </contour>
      <contour>
        <pt x="1434" y="882" on="1"/>
        <pt x="1434" y="860" on="1"/>
        <pt x="1434" y="686" on="0"/>
        <pt x="1316" y="364" on="0"/>
        <pt x="1108" y="127" on="0"/>
        <pt x="835" y="-6" on="0"/>
        <pt x="704" y="-6" on="1"/>
        <pt x="659" y="-6" on="1"/>
        <pt x="556" y="-6" on="0"/>
        <pt x="458" y="32" on="1"/>
        <pt x="274" y="103" on="0"/>
        <pt x="189" y="308" on="1"/>
        <pt x="141" y="425" on="0"/>
        <pt x="141" y="569" on="1"/>
        <pt x="141" y="614" on="1"/>
        <pt x="141" y="766" on="0"/>
        <pt x="259" y="1089" on="0"/>
        <pt x="468" y="1327" on="0"/>
        <pt x="741" y="1460" on="0"/>
        <pt x="871" y="1460" on="1"/>
        <pt x="917" y="1460" on="1"/>
        <pt x="1140" y="1460" on="0"/>
        <pt x="1287" y="1304" on="1"/>
        <pt x="1353" y="1233" on="0"/>
        <pt x="1434" y="1013" on="0"/>
      </contour>
    </TTGlyph>
    <TTGlyph name="P" xMin="114" yMin="4" xMax="1190" yMax="1424">
      <contour>
        <pt x="482" y="723" on="1"/>
        <pt x="549" y="723" on="1"/>
        <pt x="559" y="724" on="1"/>
        <pt x="569" y="724" on="1"/>
        <pt x="780" y="724" on="0"/>
        <pt x="879" y="802" on="1"/>
        <pt x="933" y="845" on="0"/>
        <pt x="997" y="980" on="0"/>
        <pt x="997" y="1043" on="1"/>
        <pt x="997" y="1074" on="1"/>
        <pt x="997" y="1170" on="0"/>
        <pt x="864" y="1275" on="0"/>
        <pt x="744" y="1275" on="1"/>
        <pt x="685" y="1275" on="1"/>
        <pt x="541" y="1275" on="0"/>
        <pt x="524" y="1245" on="1"/>
        <pt x="500" y="1135" on="1"/>
        <pt x="488" y="1068" on="1"/>
        <pt x="432" y="802" on="0"/>
        <pt x="432" y="755" on="1"/>
        <pt x="432" y="723" on="0"/>
      </contour>
      <contour>
        <pt x="1190" y="1109" on="1"/>
        <pt x="1190" y="1085" on="1"/>
        <pt x="1190" y="970" on="0"/>
        <pt x="1141" y="864" on="1"/>
        <pt x="1048" y="662" on="0"/>
        <pt x="805" y="597" on="1"/>
        <pt x="724" y="575" on="0"/>
        <pt x="431" y="562" on="0"/>
        <pt x="400" y="524" on="1"/>
        <pt x="387" y="508" on="0"/>
        <pt x="305" y="79" on="0"/>
        <pt x="303" y="74" on="1"/>
        <pt x="275" y="4" on="0"/>
        <pt x="186" y="4" on="1"/>
        <pt x="167" y="4" on="1"/>
        <pt x="114" y="4" on="0"/>
        <pt x="114" y="34" on="1"/>
        <pt x="114" y="52" on="1"/>
        <pt x="114" y="86" on="0"/>
        <pt x="190" y="442" on="0"/>
        <pt x="335" y="1328" on="0"/>
        <pt x="342" y="1352" on="1"/>
        <pt x="355" y="1394" on="0"/>
        <pt x="478" y="1421" on="0"/>
        <pt x="654" y="1421" on="1"/>
        <pt x="698" y="1423" on="1"/>
        <pt x="765" y="1424" on="1"/>
        <pt x="1076" y="1424" on="0"/>
        <pt x="1162" y="1235" on="1"/>
        <pt x="1190" y="1174" on="0"/>
      </contour>
    </TTGlyph>
    <TTGlyph name="Q" xMin="154" yMin="-187" xMax="1429" yMax="1440">
      <contour>
        <pt x="899" y="1285" on="1"/>
        <pt x="863" y="1285" on="1"/>
        <pt x="863" y="1285" on="0"/>
        <pt x="859" y="1285" on="1"/>
        <pt x="758" y="1285" on="0"/>
        <pt x="667" y="1234" on="1"/>
        <pt x="476" y="1128" on="0"/>
        <pt x="387" y="870" on="1"/>
        <pt x="338" y="727" on="0"/>
        <pt x="338" y="580" on="1"/>
        <pt x="339" y="562" on="1"/>
        <pt x="339" y="559" on="0"/>
        <pt x="339" y="556" on="1"/>
        <pt x="339" y="469" on="0"/>
        <pt x="366" y="388" on="1"/>
        <pt x="445" y="147" on="0"/>
        <pt x="686" y="146" on="1"/>
        <pt x="702" y="146" on="1"/>
        <pt x="788" y="146" on="0"/>
        <pt x="860" y="203" on="1"/>
        <pt x="1038" y="343" on="0"/>
        <pt x="1131" y="454" on="1"/>
        <pt x="1177" y="509" on="0"/>
        <pt x="1239" y="729" on="0"/>
        <pt x="1239" y="837" on="1"/>
        <pt x="1239" y="872" on="1"/>
        <pt x="1239" y="1050" on="0"/>
        <pt x="1061" y="1285" on="0"/>
      </contour>
      <contour>
        <pt x="1429" y="891" on="1"/>
        <pt x="1429" y="864" on="1"/>
        <pt x="1429" y="660" on="0"/>
        <pt x="1324" y="430" on="1"/>
        <pt x="1275" y="322" on="0"/>
        <pt x="1081" y="86" on="0"/>
        <pt x="1081" y="75" on="1"/>
        <pt x="1081" y="32" on="0"/>
        <pt x="1142" y="-78" on="0"/>
        <pt x="1171" y="-106" on="0"/>
        <pt x="1199" y="-122" on="0"/>
        <pt x="1199" y="-135" on="0"/>
        <pt x="1184" y="-144" on="1"/>
        <pt x="1112" y="-187" on="0"/>
        <pt x="905" y="-187" on="0"/>
        <pt x="490" y="-21" on="0"/>
        <pt x="261" y="163" on="0"/>
        <pt x="154" y="429" on="0"/>
        <pt x="154" y="568" on="1"/>
        <pt x="154" y="595" on="1"/>
        <pt x="154" y="756" on="0"/>
        <pt x="267" y="1070" on="0"/>
        <pt x="463" y="1307" on="0"/>
        <pt x="730" y="1440" on="0"/>
        <pt x="869" y="1440" on="1"/>
        <pt x="924" y="1440" on="1"/>
        <pt x="1043" y="1440" on="0"/>
        <pt x="1142" y="1394" on="1"/>
        <pt x="1429" y="1260" on="0"/>
      </contour>
    </TTGlyph>
    <TTGlyph name="R" xMin="115" yMin="13" xMax="1163" yMax="1423">
      <contour>
        <pt x="464" y="769" on="1"/>
        <pt x="593" y="769" on="1"/>
        <pt x="603" y="770" on="1"/>
        <pt x="660" y="772" on="1"/>
        <pt x="670" y="773" on="0"/>
        <pt x="679" y="773" on="1"/>
        <pt x="798" y="773" on="0"/>
        <pt x="977" y="938" on="0"/>
        <pt x="977" y="1052" on="1"/>
        <pt x="977" y="1091" on="1"/>
        <pt x="977" y="1177" on="0"/>
        <pt x="840" y="1272" on="0"/>
        <pt x="733" y="1272" on="1"/>
        <pt x="630" y="1272" on="1"/>
        <pt x="518" y="1272" on="0"/>
        <pt x="504" y="1244" on="1"/>
        <pt x="496" y="1228" on="0"/>
        <pt x="425" y="802" on="0"/>
        <pt x="425" y="799" on="1"/>
        <pt x="425" y="791" on="1"/>
        <pt x="425" y="769" on="0"/>
      </contour>
      <contour>
        <pt x="464" y="615" on="1"/>
        <pt x="400" y="615" on="0"/>
        <pt x="380" y="545" on="1"/>
        <pt x="368" y="504" on="0"/>
        <pt x="312" y="145" on="0"/>
        <pt x="293" y="102" on="1"/>
        <pt x="258" y="20" on="0"/>
        <pt x="171" y="20" on="1"/>
        <pt x="115" y="20" on="0"/>
        <pt x="115" y="66" on="1"/>
        <pt x="115" y="71" on="0"/>
        <pt x="177" y="473" on="0"/>
        <pt x="242" y="839" on="0"/>
        <pt x="323" y="1357" on="0"/>
        <pt x="330" y="1372" on="1"/>
        <pt x="352" y="1423" on="0"/>
        <pt x="605" y="1423" on="1"/>
        <pt x="750" y="1423" on="1"/>
        <pt x="1050" y="1423" on="0"/>
        <pt x="1134" y="1243" on="1"/>
        <pt x="1163" y="1181" on="0"/>
        <pt x="1163" y="1108" on="1"/>
        <pt x="1163" y="1079" on="1"/>
        <pt x="1163" y="856" on="0"/>
        <pt x="945" y="708" on="1"/>
        <pt x="856" y="648" on="0"/>
        <pt x="856" y="610" on="1"/>
        <pt x="856" y="597" on="0"/>
        <pt x="908" y="470" on="0"/>
        <pt x="1061" y="52" on="0"/>
        <pt x="1061" y="38" on="1"/>
        <pt x="1061" y="13" on="0"/>
        <pt x="1008" y="13" on="1"/>
        <pt x="983" y="13" on="1"/>
        <pt x="893" y="13" on="0"/>
        <pt x="846" y="93" on="1"/>
        <pt x="844" y="96" on="0"/>
        <pt x="698" y="504" on="0"/>
        <pt x="596" y="615" on="0"/>
      </contour>
    </TTGlyph>
    <TTGlyph name="S" xMin="79" yMin="-15" xMax="1120" yMax="1442">
      <contour>
        <pt x="1012" y="1192" on="1"/>
        <pt x="1002" y="1192" on="0"/>
        <pt x="784" y="1276" on="0"/>
        <pt x="712" y="1276" on="1"/>
        <pt x="592" y="1276" on="0"/>
        <pt x="451" y="1148" on="0"/>
        <pt x="451" y="1043" on="1"/>
        <pt x="451" y="969" on="0"/>
        <pt x="548" y="899" on="1"/>
        <pt x="579" y="877" on="0"/>
        <pt x="879" y="737" on="0"/>
        <pt x="941" y="676" on="1"/>
        <pt x="1042" y="577" on="0"/>
        <pt x="1042" y="424" on="1"/>
        <pt x="1042" y="350" on="0"/>
        <pt x="966" y="180" on="0"/>
        <pt x="888" y="113" on="1"/>
        <pt x="738" y="-15" on="0"/>
        <pt x="505" y="-15" on="1"/>
        <pt x="364" y="-15" on="0"/>
        <pt x="146" y="70" on="0"/>
        <pt x="79" y="142" on="0"/>
        <pt x="79" y="158" on="1"/>
        <pt x="79" y="208" on="0"/>
        <pt x="149" y="275" on="0"/>
        <pt x="201" y="275" on="0"/>
        <pt x="451" y="159" on="0"/>
        <pt x="532" y="159" on="1"/>
        <pt x="670" y="159" on="0"/>
        <pt x="834" y="297" on="0"/>
        <pt x="834" y="415" on="1"/>
        <pt x="834" y="493" on="0"/>
        <pt x="749" y="560" on="1"/>
        <pt x="709" y="592" on="0"/>
        <pt x="400" y="741" on="0"/>
        <pt x="339" y="806" on="1"/>
        <pt x="256" y="895" on="0"/>
        <pt x="256" y="1191" on="0"/>
        <pt x="388" y="1313" on="1"/>
        <pt x="456" y="1375" on="0"/>
        <pt x="644" y="1442" on="0"/>
        <pt x="739" y="1442" on="1"/>
        <pt x="772" y="1442" on="1"/>
        <pt x="889" y="1442" on="0"/>
        <pt x="1053" y="1384" on="0"/>
        <pt x="1120" y="1320" on="0"/>
        <pt x="1120" y="1306" on="1"/>
        <pt x="1120" y="1251" on="0"/>
        <pt x="1053" y="1192" on="0"/>
      </contour>
    </TTGlyph>
    <TTGlyph name="Scaron" xMin="163" yMin="125" xMax="1146" yMax="1858">
      <contour>
        <pt x="1056" y="1276" on="1"/>
        <pt x="1054" y="1276" on="0"/>
        <pt x="847" y="1364" on="0"/>
        <pt x="672" y="1364" on="0"/>
        <pt x="537" y="1257" on="0"/>
        <pt x="537" y="1086" on="0"/>
        <pt x="618" y="1021" on="1"/>
        <pt x="657" y="990" on="0"/>
        <pt x="934" y="846" on="0"/>
        <pt x="1069" y="686" on="0"/>
        <pt x="1069" y="577" on="1"/>
        <pt x="1069" y="376" on="0"/>
        <pt x="780" y="125" on="0"/>
        <pt x="555" y="125" on="1"/>
        <pt x="418" y="125" on="0"/>
        <pt x="163" y="240" on="0"/>
        <pt x="163" y="299" on="1"/>
        <pt x="163" y="332" on="0"/>
        <pt x="217" y="413" on="0"/>
        <pt x="258" y="413" on="1"/>
        <pt x="271" y="413" on="0"/>
        <pt x="391" y="350" on="0"/>
        <pt x="497" y="307" on="0"/>
        <pt x="694" y="307" on="0"/>
        <pt x="822" y="431" on="0"/>
        <pt x="822" y="593" on="0"/>
        <pt x="755" y="657" on="1"/>
        <pt x="711" y="699" on="0"/>
        <pt x="449" y="846" on="0"/>
        <pt x="398" y="903" on="1"/>
        <pt x="316" y="996" on="0"/>
        <pt x="316" y="1100" on="1"/>
        <pt x="316" y="1290" on="0"/>
        <pt x="450" y="1406" on="1"/>
        <pt x="563" y="1504" on="0"/>
        <pt x="722" y="1519" on="1"/>
        <pt x="684" y="1540" on="0"/>
        <pt x="628" y="1596" on="1"/>
        <pt x="540" y="1684" on="0"/>
        <pt x="540" y="1700" on="1"/>
        <pt x="540" y="1706" on="1"/>
        <pt x="541" y="1711" on="1"/>
        <pt x="541" y="1762" on="0"/>
        <pt x="758" y="1762" on="0"/>
        <pt x="797" y="1699" on="1"/>
        <pt x="812" y="1675" on="0"/>
        <pt x="817" y="1675" on="0"/>
        <pt x="858" y="1753" on="0"/>
        <pt x="990" y="1855" on="0"/>
        <pt x="1069" y="1855" on="1"/>
        <pt x="1099" y="1853" on="1"/>
        <pt x="1131" y="1858" on="1"/>
        <pt x="1140" y="1858" on="1"/>
        <pt x="1146" y="1858" on="0"/>
        <pt x="1146" y="1856" on="1"/>
        <pt x="1146" y="1853" on="1"/>
        <pt x="1146" y="1844" on="0"/>
        <pt x="991" y="1734" on="0"/>
        <pt x="946" y="1678" on="1"/>
        <pt x="849" y="1557" on="0"/>
        <pt x="803" y="1522" on="1"/>
        <pt x="812" y="1522" on="1"/>
        <pt x="920" y="1522" on="0"/>
        <pt x="1133" y="1437" on="0"/>
        <pt x="1133" y="1384" on="1"/>
        <pt x="1133" y="1352" on="0"/>
        <pt x="1081" y="1276" on="0"/>
      </contour>
    </TTGlyph>
    <TTGlyph name="T" xMin="192" yMin="-3" xMax="1236" yMax="1433">
      <contour>
        <pt x="570" y="-3" on="0"/>
        <pt x="387" y="-3" on="0"/>
        <pt x="387" y="111" on="0"/>
        <pt x="459" y="405" on="0"/>
        <pt x="570" y="1034" on="0"/>
        <pt x="570" y="1197" on="0"/>
        <pt x="541" y="1248" on="0"/>
        <pt x="442" y="1248" on="0"/>
        <pt x="292" y="1231" on="0"/>
        <pt x="279" y="1231" on="1"/>
        <pt x="192" y="1231" on="0"/>
        <pt x="192" y="1297" on="1"/>
        <pt x="192" y="1318" on="1"/>
        <pt x="192" y="1359" on="0"/>
        <pt x="234" y="1399" on="0"/>
        <pt x="426" y="1432" on="0"/>
        <pt x="756" y="1432" on="1"/>
        <pt x="808" y="1433" on="1"/>
        <pt x="886" y="1433" on="1"/>
        <pt x="1116" y="1433" on="0"/>
        <pt x="1236" y="1411" on="0"/>
        <pt x="1236" y="1372" on="1"/>
        <pt x="1236" y="1304" on="0"/>
        <pt x="1176" y="1255" on="0"/>
        <pt x="1088" y="1255" on="1"/>
        <pt x="929" y="1261" on="1"/>
        <pt x="869" y="1261" on="0"/>
        <pt x="816" y="1221" on="0"/>
        <pt x="768" y="1065" on="0"/>
        <pt x="597" y="73" on="0"/>
        <pt x="595" y="68" on="1"/>
      </contour>
    </TTGlyph>
    <TTGlyph name="Thorn" xMin="164" yMin="20" xMax="1147" yMax="1416">
      <contour>
        <pt x="976" y="824" on="1"/>
        <pt x="976" y="866" on="1"/>
        <pt x="976" y="961" on="0"/>
        <pt x="824" y="1082" on="0"/>
        <pt x="707" y="1082" on="1"/>
        <pt x="668" y="1085" on="1"/>
        <pt x="536" y="1085" on="0"/>
        <pt x="513" y="1032" on="1"/>
        <pt x="497" y="995" on="0"/>
        <pt x="456" y="721" on="0"/>
        <pt x="418" y="532" on="0"/>
        <pt x="418" y="505" on="1"/>
        <pt x="418" y="496" on="1"/>
        <pt x="418" y="471" on="0"/>
        <pt x="491" y="471" on="1"/>
        <pt x="522" y="471" on="1"/>
        <pt x="718" y="471" on="0"/>
        <pt x="842" y="562" on="1"/>
        <pt x="904" y="608" on="0"/>
        <pt x="976" y="751" on="0"/>
      </contour>
      <contour>
        <pt x="164" y="75" on="1"/>
        <pt x="164" y="85" on="0"/>
        <pt x="252" y="537" on="0"/>
        <pt x="271" y="725" on="0"/>
        <pt x="320" y="1033" on="0"/>
        <pt x="320" y="1322" on="0"/>
        <pt x="363" y="1416" on="0"/>
        <pt x="491" y="1416" on="0"/>
        <pt x="517" y="1394" on="1"/>
        <pt x="522" y="1390" on="0"/>
        <pt x="584" y="1249" on="0"/>
        <pt x="606" y="1238" on="0"/>
        <pt x="683" y="1226" on="1"/>
        <pt x="925" y="1190" on="0"/>
        <pt x="1036" y="1104" on="1"/>
        <pt x="1147" y="1017" on="0"/>
        <pt x="1147" y="639" on="0"/>
        <pt x="1007" y="507" on="1"/>
        <pt x="929" y="434" on="0"/>
        <pt x="749" y="373" on="0"/>
        <pt x="473" y="336" on="0"/>
        <pt x="445" y="319" on="1"/>
        <pt x="393" y="288" on="0"/>
        <pt x="365" y="198" on="1"/>
        <pt x="362" y="188" on="0"/>
        <pt x="337" y="76" on="0"/>
        <pt x="326" y="57" on="1"/>
        <pt x="305" y="20" on="0"/>
        <pt x="247" y="20" on="1"/>
        <pt x="164" y="20" on="0"/>
      </contour>
    </TTGlyph>
    <TTGlyph name="U" xMin="186" yMin="-3" xMax="1363" yMax="1404">
      <contour>
        <pt x="387" y="426" on="1"/>
        <pt x="387" y="286" on="0"/>
        <pt x="532" y="151" on="0"/>
        <pt x="644" y="151" on="1"/>
        <pt x="856" y="151" on="0"/>
        <pt x="965" y="355" on="1"/>
        <pt x="1022" y="461" on="0"/>
        <pt x="1169" y="1256" on="0"/>
        <pt x="1199" y="1353" on="0"/>
        <pt x="1257" y="1404" on="0"/>
        <pt x="1322" y="1404" on="1"/>
        <pt x="1363" y="1404" on="0"/>
        <pt x="1363" y="1295" on="0"/>
        <pt x="1229" y="536" on="1"/>
        <pt x="1170" y="196" on="0"/>
        <pt x="938" y="67" on="1"/>
        <pt x="812" y="-3" on="0"/>
        <pt x="672" y="-3" on="1"/>
        <pt x="419" y="-3" on="0"/>
        <pt x="303" y="106" on="1"/>
        <pt x="186" y="215" on="0"/>
        <pt x="186" y="438" on="1"/>
        <pt x="186" y="573" on="0"/>
        <pt x="280" y="1073" on="0"/>
        <pt x="295" y="1193" on="1"/>
        <pt x="301" y="1257" on="1"/>
        <pt x="309" y="1341" on="0"/>
        <pt x="312" y="1356" on="1"/>
        <pt x="322" y="1402" on="0"/>
        <pt x="369" y="1402" on="1"/>
        <pt x="442" y="1402" on="0"/>
        <pt x="494" y="1356" on="0"/>
        <pt x="494" y="1278" on="1"/>
        <pt x="494" y="1110" on="0"/>
        <pt x="415" y="675" on="1"/>
        <pt x="387" y="522" on="0"/>
      </contour>
    </TTGlyph>
    <TTGlyph name="Uacute" xMin="213" yMin="23" xMax="1393" yMax="1895">
      <contour>
        <pt x="819" y="1588" on="1"/>
        <pt x="791" y="1588" on="0"/>
        <pt x="791" y="1601" on="1"/>
        <pt x="791" y="1608" on="1"/>
        <pt x="791" y="1623" on="0"/>
        <pt x="821" y="1662" on="1"/>
        <pt x="933" y="1806" on="0"/>
        <pt x="1029" y="1890" on="0"/>
        <pt x="1089" y="1890" on="1"/>
        <pt x="1095" y="1891" on="1"/>
        <pt x="1100" y="1892" on="1"/>
        <pt x="1143" y="1895" on="1"/>
        <pt x="1154" y="1895" on="1"/>
        <pt x="1193" y="1895" on="0"/>
        <pt x="1193" y="1881" on="1"/>
        <pt x="1193" y="1877" on="1"/>
        <pt x="1193" y="1843" on="0"/>
        <pt x="911" y="1592" on="0"/>
        <pt x="862" y="1592" on="1"/>
        <pt x="850" y="1590" on="0"/>
        <pt x="845" y="1590" on="1"/>
        <pt x="824" y="1588" on="1"/>
      </contour>
      <contour>
        <pt x="403" y="478" on="1"/>
        <pt x="403" y="334" on="0"/>
        <pt x="540" y="165" on="0"/>
        <pt x="658" y="165" on="1"/>
        <pt x="904" y="165" on="0"/>
        <pt x="1017" y="390" on="1"/>
        <pt x="1069" y="494" on="0"/>
        <pt x="1217" y="1300" on="0"/>
        <pt x="1234" y="1348" on="1"/>
        <pt x="1263" y="1429" on="0"/>
        <pt x="1347" y="1429" on="1"/>
        <pt x="1393" y="1429" on="0"/>
        <pt x="1393" y="1392" on="1"/>
        <pt x="1393" y="1363" on="0"/>
        <pt x="1326" y="1052" on="0"/>
        <pt x="1255" y="462" on="0"/>
        <pt x="1125" y="192" on="0"/>
        <pt x="867" y="23" on="0"/>
        <pt x="708" y="23" on="1"/>
        <pt x="673" y="23" on="1"/>
        <pt x="456" y="23" on="0"/>
        <pt x="213" y="260" on="0"/>
        <pt x="213" y="475" on="1"/>
        <pt x="213" y="534" on="0"/>
        <pt x="267" y="922" on="0"/>
        <pt x="304" y="1132" on="0"/>
        <pt x="316" y="1374" on="0"/>
        <pt x="318" y="1385" on="1"/>
        <pt x="326" y="1425" on="0"/>
        <pt x="371" y="1425" on="1"/>
        <pt x="447" y="1425" on="0"/>
        <pt x="473" y="1382" on="1"/>
        <pt x="488" y="1357" on="0"/>
        <pt x="488" y="1072" on="0"/>
        <pt x="403" y="557" on="0"/>
      </contour>
    </TTGlyph>
    <TTGlyph name="Ucircumflex" xMin="210" yMin="17" xMax="1391" yMax="1886">
      <contour>
        <pt x="682" y="1582" on="1"/>
        <pt x="659" y="1582" on="1"/>
        <pt x="633" y="1582" on="0"/>
        <pt x="633" y="1599" on="1"/>
        <pt x="633" y="1624" on="0"/>
        <pt x="849" y="1822" on="1"/>
        <pt x="919" y="1886" on="0"/>
        <pt x="1020" y="1886" on="0"/>
        <pt x="1056" y="1843" on="1"/>
        <pt x="1204" y="1665" on="0"/>
        <pt x="1204" y="1613" on="1"/>
        <pt x="1204" y="1606" on="1"/>
        <pt x="1204" y="1583" on="0"/>
        <pt x="1104" y="1583" on="0"/>
        <pt x="950" y="1751" on="0"/>
        <pt x="948" y="1751" on="1"/>
        <pt x="938" y="1751" on="0"/>
        <pt x="738" y="1582" on="0"/>
      </contour>
      <contour>
        <pt x="402" y="474" on="1"/>
        <pt x="402" y="327" on="0"/>
        <pt x="539" y="162" on="0"/>
        <pt x="793" y="162" on="0"/>
        <pt x="964" y="288" on="0"/>
        <pt x="1066" y="492" on="0"/>
        <pt x="1209" y="1271" on="0"/>
        <pt x="1239" y="1368" on="0"/>
        <pt x="1289" y="1420" on="0"/>
        <pt x="1340" y="1420" on="1"/>
        <pt x="1341" y="1421" on="1"/>
        <pt x="1391" y="1421" on="0"/>
        <pt x="1391" y="1383" on="1"/>
        <pt x="1391" y="1355" on="0"/>
        <pt x="1321" y="1035" on="0"/>
        <pt x="1252" y="451" on="0"/>
        <pt x="1118" y="183" on="0"/>
        <pt x="862" y="17" on="0"/>
        <pt x="724" y="17" on="1"/>
        <pt x="719" y="17" on="0"/>
        <pt x="714" y="17" on="1"/>
        <pt x="583" y="17" on="0"/>
        <pt x="492" y="42" on="1"/>
        <pt x="301" y="94" on="0"/>
        <pt x="234" y="296" on="1"/>
        <pt x="210" y="368" on="0"/>
        <pt x="210" y="563" on="0"/>
        <pt x="297" y="1123" on="0"/>
        <pt x="305" y="1183" on="0"/>
        <pt x="314" y="1367" on="0"/>
        <pt x="316" y="1378" on="1"/>
        <pt x="324" y="1417" on="0"/>
        <pt x="370" y="1417" on="1"/>
        <pt x="447" y="1417" on="0"/>
        <pt x="473" y="1376" on="1"/>
        <pt x="489" y="1351" on="0"/>
        <pt x="489" y="1211" on="1"/>
        <pt x="489" y="1208" on="0"/>
        <pt x="489" y="1205" on="1"/>
        <pt x="489" y="1066" on="0"/>
        <pt x="446" y="812" on="1"/>
        <pt x="402" y="552" on="0"/>
      </contour>
    </TTGlyph>
    <TTGlyph name="Udieresis" xMin="220" yMin="19" xMax="1401" yMax="1814">
      <contour>
        <pt x="859" y="1745" on="1"/>
        <pt x="859" y="1726" on="1"/>
        <pt x="858" y="1722" on="1"/>
        <pt x="858" y="1715" on="1"/>
        <pt x="856" y="1709" on="0"/>
        <pt x="856" y="1679" on="0"/>
        <pt x="797" y="1608" on="0"/>
        <pt x="746" y="1608" on="1"/>
        <pt x="725" y="1608" on="1"/>
        <pt x="653" y="1608" on="0"/>
        <pt x="653" y="1672" on="1"/>
        <pt x="653" y="1696" on="1"/>
        <pt x="654" y="1699" on="1"/>
        <pt x="654" y="1706" on="1"/>
        <pt x="656" y="1712" on="0"/>
        <pt x="656" y="1716" on="1"/>
        <pt x="656" y="1750" on="0"/>
        <pt x="720" y="1814" on="0"/>
        <pt x="768" y="1814" on="1"/>
        <pt x="782" y="1814" on="1"/>
        <pt x="791" y="1811" on="0"/>
        <pt x="802" y="1811" on="1"/>
        <pt x="859" y="1811" on="0"/>
      </contour>
      <contour>
        <pt x="1228" y="1729" on="1"/>
        <pt x="1228" y="1729" on="0"/>
        <pt x="1225" y="1703" on="1"/>
        <pt x="1225" y="1681" on="0"/>
        <pt x="1170" y="1612" on="0"/>
        <pt x="1135" y="1612" on="1"/>
        <pt x="1129" y="1610" on="1"/>
        <pt x="1122" y="1610" on="1"/>
        <pt x="1101" y="1609" on="1"/>
        <pt x="1091" y="1609" on="1"/>
        <pt x="1077" y="1611" on="1"/>
        <pt x="1025" y="1611" on="0"/>
        <pt x="1025" y="1660" on="1"/>
        <pt x="1022" y="1679" on="1"/>
        <pt x="1022" y="1689" on="1"/>
        <pt x="1023" y="1693" on="1"/>
        <pt x="1023" y="1700" on="1"/>
        <pt x="1027" y="1721" on="0"/>
        <pt x="1027" y="1723" on="1"/>
        <pt x="1027" y="1752" on="0"/>
        <pt x="1085" y="1810" on="0"/>
        <pt x="1111" y="1810" on="1"/>
        <pt x="1117" y="1812" on="0"/>
        <pt x="1120" y="1812" on="1"/>
        <pt x="1134" y="1814" on="1"/>
        <pt x="1158" y="1814" on="1"/>
        <pt x="1167" y="1811" on="0"/>
        <pt x="1175" y="1811" on="1"/>
        <pt x="1229" y="1811" on="0"/>
        <pt x="1229" y="1739" on="1"/>
        <pt x="1229" y="1733" on="1"/>
      </contour>
      <contour>
        <pt x="411" y="476" on="1"/>
        <pt x="411" y="332" on="0"/>
        <pt x="479" y="248" on="1"/>
        <pt x="546" y="164" on="0"/>
        <pt x="666" y="164" on="1"/>
        <pt x="910" y="164" on="0"/>
        <pt x="1024" y="390" on="1"/>
        <pt x="1075" y="492" on="0"/>
        <pt x="1222" y="1296" on="0"/>
        <pt x="1241" y="1344" on="1"/>
        <pt x="1272" y="1423" on="0"/>
        <pt x="1356" y="1423" on="1"/>
        <pt x="1401" y="1423" on="0"/>
        <pt x="1401" y="1385" on="1"/>
        <pt x="1401" y="1364" on="0"/>
        <pt x="1346" y="1091" on="0"/>
        <pt x="1319" y="936" on="0"/>
        <pt x="1263" y="457" on="0"/>
        <pt x="1126" y="182" on="0"/>
        <pt x="870" y="19" on="0"/>
        <pt x="571" y="19" on="0"/>
        <pt x="485" y="49" on="1"/>
        <pt x="318" y="107" on="0"/>
        <pt x="255" y="267" on="1"/>
        <pt x="220" y="356" on="0"/>
        <pt x="220" y="537" on="0"/>
        <pt x="273" y="917" on="0"/>
        <pt x="279" y="949" on="1"/>
        <pt x="291" y="1013" on="1"/>
        <pt x="309" y="1114" on="0"/>
        <pt x="318" y="1255" on="1"/>
        <pt x="321" y="1318" on="1"/>
        <pt x="324" y="1374" on="0"/>
        <pt x="325" y="1380" on="1"/>
        <pt x="333" y="1419" on="0"/>
        <pt x="380" y="1419" on="1"/>
        <pt x="456" y="1419" on="0"/>
        <pt x="482" y="1378" on="1"/>
        <pt x="498" y="1353" on="0"/>
        <pt x="498" y="1131" on="0"/>
        <pt x="411" y="483" on="0"/>
      </contour>
    </TTGlyph>
    <TTGlyph name="Ugrave" xMin="210" yMin="23" xMax="1391" yMax="1899">
      <contour>
        <pt x="982" y="1587" on="1"/>
        <pt x="962" y="1587" on="1"/>
        <pt x="927" y="1592" on="1"/>
        <pt x="905" y="1592" on="0"/>
        <pt x="681" y="1816" on="0"/>
        <pt x="681" y="1867" on="1"/>
        <pt x="681" y="1879" on="1"/>
        <pt x="681" y="1899" on="0"/>
        <pt x="726" y="1899" on="1"/>
        <pt x="751" y="1899" on="1"/>
        <pt x="756" y="1898" on="1"/>
        <pt x="835" y="1898" on="0"/>
        <pt x="910" y="1823" on="0"/>
        <pt x="1013" y="1638" on="0"/>
        <pt x="1013" y="1615" on="1"/>
        <pt x="1013" y="1607" on="1"/>
        <pt x="1013" y="1587" on="0"/>
      </contour>
      <contour>
        <pt x="402" y="479" on="1"/>
        <pt x="402" y="332" on="0"/>
        <pt x="472" y="250" on="1"/>
        <pt x="540" y="168" on="0"/>
        <pt x="658" y="168" on="1"/>
        <pt x="899" y="168" on="0"/>
        <pt x="1014" y="394" on="1"/>
        <pt x="1065" y="495" on="0"/>
        <pt x="1208" y="1275" on="0"/>
        <pt x="1239" y="1374" on="0"/>
        <pt x="1255" y="1391" on="1"/>
        <pt x="1288" y="1427" on="0"/>
        <pt x="1391" y="1427" on="0"/>
        <pt x="1391" y="1355" on="0"/>
        <pt x="1323" y="1043" on="0"/>
        <pt x="1252" y="457" on="0"/>
        <pt x="1118" y="189" on="0"/>
        <pt x="862" y="23" on="0"/>
        <pt x="562" y="23" on="0"/>
        <pt x="476" y="53" on="1"/>
        <pt x="309" y="111" on="0"/>
        <pt x="246" y="271" on="1"/>
        <pt x="210" y="363" on="0"/>
        <pt x="210" y="621" on="0"/>
        <pt x="302" y="1131" on="0"/>
        <pt x="314" y="1373" on="0"/>
        <pt x="316" y="1384" on="1"/>
        <pt x="324" y="1423" on="0"/>
        <pt x="370" y="1423" on="1"/>
        <pt x="446" y="1423" on="0"/>
        <pt x="473" y="1382" on="1"/>
        <pt x="489" y="1357" on="0"/>
        <pt x="489" y="1085" on="0"/>
        <pt x="402" y="558" on="0"/>
      </contour>
    </TTGlyph>
    <TTGlyph name="V" xMin="198" yMin="4" xMax="1361" yMax="1417">
      <contour>
        <pt x="595" y="276" on="1"/>
        <pt x="622" y="276" on="0"/>
        <pt x="1086" y="1221" on="0"/>
        <pt x="1128" y="1289" on="1"/>
        <pt x="1206" y="1417" on="0"/>
        <pt x="1309" y="1417" on="1"/>
        <pt x="1361" y="1417" on="0"/>
        <pt x="1361" y="1375" on="0"/>
        <pt x="1290" y="1240" on="1"/>
        <pt x="723" y="164" on="0"/>
        <pt x="688" y="107" on="1"/>
        <pt x="625" y="4" on="0"/>
        <pt x="450" y="4" on="0"/>
        <pt x="426" y="91" on="1"/>
        <pt x="408" y="155" on="0"/>
        <pt x="342" y="607" on="0"/>
        <pt x="284" y="910" on="1"/>
        <pt x="198" y="1356" on="1"/>
        <pt x="198" y="1396" on="0"/>
        <pt x="321" y="1396" on="0"/>
        <pt x="396" y="1323" on="0"/>
        <pt x="418" y="1246" on="1"/>
        <pt x="476" y="1040" on="0"/>
        <pt x="589" y="276" on="0"/>
      </contour>
    </TTGlyph>
    <TTGlyph name="W" xMin="226" yMin="60" xMax="1890" yMax="1379">
      <contour>
        <pt x="965" y="1317" on="0"/>
        <pt x="1120" y="1317" on="0"/>
        <pt x="1159" y="1214" on="0"/>
        <pt x="1267" y="351" on="0"/>
        <pt x="1326" y="351" on="0"/>
        <pt x="1686" y="1230" on="0"/>
        <pt x="1708" y="1266" on="1"/>
        <pt x="1776" y="1379" on="0"/>
        <pt x="1869" y="1379" on="1"/>
        <pt x="1890" y="1379" on="0"/>
        <pt x="1890" y="1342" on="1"/>
        <pt x="1890" y="1330" on="0"/>
        <pt x="1488" y="314" on="0"/>
        <pt x="1390" y="123" on="0"/>
        <pt x="1289" y="60" on="0"/>
        <pt x="1263" y="60" on="1"/>
        <pt x="1232" y="60" on="1"/>
        <pt x="1183" y="60" on="0"/>
        <pt x="1120" y="240" on="0"/>
        <pt x="1000" y="920" on="0"/>
        <pt x="989" y="920" on="0"/>
        <pt x="664" y="303" on="0"/>
        <pt x="524" y="85" on="0"/>
        <pt x="431" y="85" on="0"/>
        <pt x="358" y="157" on="0"/>
        <pt x="343" y="225" on="0"/>
        <pt x="276" y="829" on="0"/>
        <pt x="257" y="1038" on="0"/>
        <pt x="226" y="1233" on="0"/>
        <pt x="226" y="1337" on="0"/>
        <pt x="249" y="1370" on="0"/>
        <pt x="343" y="1370" on="0"/>
        <pt x="414" y="1262" on="0"/>
        <pt x="448" y="1101" on="0"/>
        <pt x="518" y="357" on="0"/>
        <pt x="531" y="357" on="1"/>
        <pt x="568" y="357" on="0"/>
        <pt x="743" y="746" on="1"/>
        <pt x="790" y="851" on="0"/>
        <pt x="843" y="999" on="1"/>
        <pt x="930" y="1246" on="1"/>
      </contour>
    </TTGlyph>
    <TTGlyph name="X" xMin="36" yMin="-1" xMax="1316" yMax="1399">
      <contour>
        <pt x="831" y="704" on="1"/>
        <pt x="831" y="686" on="0"/>
        <pt x="995" y="298" on="0"/>
        <pt x="1116" y="60" on="0"/>
        <pt x="1116" y="45" on="1"/>
        <pt x="1116" y="-1" on="0"/>
        <pt x="1043" y="-1" on="1"/>
        <pt x="925" y="-1" on="0"/>
        <pt x="881" y="69" on="1"/>
        <pt x="852" y="115" on="0"/>
        <pt x="680" y="557" on="0"/>
        <pt x="645" y="557" on="1"/>
        <pt x="643" y="557" on="0"/>
        <pt x="311" y="124" on="0"/>
        <pt x="287" y="99" on="1"/>
        <pt x="205" y="13" on="0"/>
        <pt x="36" y="13" on="0"/>
        <pt x="36" y="30" on="1"/>
        <pt x="36" y="48" on="1"/>
        <pt x="36" y="64" on="0"/>
        <pt x="200" y="254" on="0"/>
        <pt x="307" y="396" on="1"/>
        <pt x="545" y="713" on="0"/>
        <pt x="545" y="797" on="0"/>
        <pt x="422" y="1056" on="1"/>
        <pt x="408" y="1086" on="1"/>
        <pt x="394" y="1116" on="0"/>
        <pt x="274" y="1342" on="0"/>
        <pt x="274" y="1364" on="1"/>
        <pt x="274" y="1399" on="0"/>
        <pt x="452" y="1399" on="0"/>
        <pt x="494" y="1348" on="1"/>
        <pt x="509" y="1329" on="0"/>
        <pt x="699" y="907" on="0"/>
        <pt x="724" y="907" on="1"/>
        <pt x="730" y="907" on="0"/>
        <pt x="1072" y="1316" on="0"/>
        <pt x="1099" y="1338" on="1"/>
        <pt x="1169" y="1396" on="0"/>
        <pt x="1270" y="1396" on="1"/>
        <pt x="1316" y="1396" on="0"/>
        <pt x="1316" y="1380" on="0"/>
        <pt x="889" y="837" on="0"/>
        <pt x="878" y="822" on="1"/>
        <pt x="831" y="757" on="0"/>
      </contour>
    </TTGlyph>
    <TTGlyph name="Y" xMin="197" yMin="15" xMax="1257" yMax="1396">
      <contour>
        <pt x="638" y="803" on="1"/>
        <pt x="648" y="803" on="0"/>
        <pt x="889" y="1098" on="0"/>
        <pt x="1026" y="1301" on="0"/>
        <pt x="1043" y="1317" on="1"/>
        <pt x="1127" y="1396" on="0"/>
        <pt x="1230" y="1396" on="1"/>
        <pt x="1257" y="1396" on="0"/>
        <pt x="1257" y="1376" on="1"/>
        <pt x="1257" y="1371" on="0"/>
        <pt x="778" y="668" on="0"/>
        <pt x="753" y="622" on="1"/>
        <pt x="697" y="519" on="0"/>
        <pt x="641" y="170" on="0"/>
        <pt x="587" y="15" on="0"/>
        <pt x="537" y="15" on="1"/>
        <pt x="514" y="15" on="1"/>
        <pt x="453" y="15" on="0"/>
        <pt x="419" y="44" on="0"/>
        <pt x="419" y="109" on="0"/>
        <pt x="481" y="497" on="0"/>
        <pt x="481" y="540" on="1"/>
        <pt x="481" y="654" on="0"/>
        <pt x="399" y="873" on="0"/>
        <pt x="197" y="1317" on="0"/>
        <pt x="197" y="1343" on="1"/>
        <pt x="197" y="1382" on="0"/>
        <pt x="375" y="1382" on="0"/>
        <pt x="426" y="1301" on="1"/>
        <pt x="447" y="1268" on="0"/>
        <pt x="619" y="803" on="0"/>
      </contour>
    </TTGlyph>
    <TTGlyph name="Yacute" xMin="206" yMin="32" xMax="1238" yMax="1885">
      <contour>
        <pt x="698" y="1573" on="1"/>
        <pt x="669" y="1573" on="0"/>
        <pt x="669" y="1585" on="1"/>
        <pt x="669" y="1589" on="1"/>
        <pt x="669" y="1602" on="0"/>
        <pt x="783" y="1773" on="0"/>
        <pt x="911" y="1885" on="0"/>
        <pt x="998" y="1885" on="1"/>
        <pt x="1035" y="1885" on="1"/>
        <pt x="1068" y="1885" on="0"/>
        <pt x="1068" y="1871" on="1"/>
        <pt x="1068" y="1867" on="1"/>
        <pt x="1068" y="1828" on="0"/>
        <pt x="780" y="1576" on="0"/>
        <pt x="741" y="1576" on="1"/>
        <pt x="714" y="1573" on="1"/>
      </contour>
      <contour>
        <pt x="635" y="826" on="1"/>
        <pt x="662" y="826" on="0"/>
        <pt x="835" y="1047" on="1"/>
        <pt x="917" y="1151" on="0"/>
        <pt x="1032" y="1327" on="0"/>
        <pt x="1040" y="1335" on="1"/>
        <pt x="1124" y="1427" on="0"/>
        <pt x="1212" y="1427" on="1"/>
        <pt x="1238" y="1427" on="0"/>
        <pt x="1238" y="1392" on="0"/>
        <pt x="816" y="758" on="0"/>
        <pt x="708" y="564" on="0"/>
        <pt x="625" y="122" on="0"/>
        <pt x="590" y="32" on="0"/>
        <pt x="538" y="32" on="1"/>
        <pt x="444" y="32" on="0"/>
        <pt x="444" y="81" on="1"/>
        <pt x="444" y="102" on="0"/>
        <pt x="470" y="310" on="1"/>
        <pt x="491" y="528" on="0"/>
        <pt x="491" y="549" on="1"/>
        <pt x="491" y="769" on="0"/>
        <pt x="293" y="1156" on="1"/>
        <pt x="206" y="1326" on="0"/>
        <pt x="206" y="1369" on="1"/>
        <pt x="206" y="1403" on="0"/>
        <pt x="370" y="1403" on="0"/>
        <pt x="419" y="1323" on="1"/>
        <pt x="449" y="1275" on="0"/>
        <pt x="628" y="826" on="0"/>
      </contour>
    </TTGlyph>
    <TTGlyph name="Ydieresis" xMin="228" yMin="36" xMax="1243" yMax="1806">
      <contour>
        <pt x="584" y="1595" on="1"/>
        <pt x="513" y="1595" on="0"/>
        <pt x="513" y="1649" on="1"/>
        <pt x="513" y="1673" on="1"/>
        <pt x="517" y="1701" on="1"/>
        <pt x="517" y="1737" on="0"/>
        <pt x="569" y="1800" on="0"/>
        <pt x="596" y="1800" on="1"/>
        <pt x="608" y="1803" on="0"/>
        <pt x="610" y="1803" on="1"/>
        <pt x="632" y="1806" on="1"/>
        <pt x="664" y="1806" on="1"/>
        <pt x="676" y="1803" on="0"/>
        <pt x="681" y="1803" on="1"/>
        <pt x="724" y="1803" on="0"/>
        <pt x="724" y="1756" on="1"/>
        <pt x="724" y="1725" on="1"/>
        <pt x="719" y="1693" on="1"/>
        <pt x="719" y="1664" on="0"/>
        <pt x="668" y="1601" on="0"/>
        <pt x="638" y="1601" on="1"/>
        <pt x="622" y="1597" on="0"/>
        <pt x="620" y="1597" on="1"/>
        <pt x="595" y="1595" on="1"/>
      </contour>
      <contour>
        <pt x="1108" y="1702" on="0"/>
        <pt x="1108" y="1665" on="0"/>
        <pt x="1056" y="1600" on="0"/>
        <pt x="1023" y="1600" on="1"/>
        <pt x="1019" y="1599" on="1"/>
        <pt x="1016" y="1598" on="1"/>
        <pt x="987" y="1595" on="1"/>
        <pt x="972" y="1595" on="1"/>
        <pt x="906" y="1595" on="0"/>
        <pt x="906" y="1629" on="1"/>
        <pt x="902" y="1652" on="1"/>
        <pt x="902" y="1676" on="1"/>
        <pt x="902" y="1731" on="0"/>
        <pt x="959" y="1802" on="0"/>
        <pt x="996" y="1802" on="1"/>
        <pt x="1002" y="1804" on="0"/>
        <pt x="1006" y="1804" on="1"/>
        <pt x="1025" y="1806" on="1"/>
        <pt x="1050" y="1806" on="1"/>
        <pt x="1073" y="1802" on="1"/>
        <pt x="1109" y="1802" on="0"/>
        <pt x="1109" y="1772" on="1"/>
        <pt x="1111" y="1766" on="0"/>
        <pt x="1111" y="1762" on="1"/>
        <pt x="1113" y="1749" on="1"/>
        <pt x="1113" y="1725" on="1"/>
        <pt x="1112" y="1721" on="1"/>
        <pt x="1112" y="1714" on="1"/>
      </contour>
      <contour>
        <pt x="650" y="839" on="1"/>
        <pt x="678" y="839" on="0"/>
        <pt x="841" y="1051" on="1"/>
        <pt x="909" y="1140" on="0"/>
        <pt x="1005" y="1302" on="0"/>
        <pt x="1039" y="1338" on="1"/>
        <pt x="1113" y="1416" on="0"/>
        <pt x="1201" y="1416" on="1"/>
        <pt x="1219" y="1416" on="1"/>
        <pt x="1243" y="1416" on="0"/>
        <pt x="1243" y="1381" on="0"/>
        <pt x="810" y="732" on="0"/>
        <pt x="722" y="559" on="0"/>
        <pt x="642" y="159" on="0"/>
        <pt x="631" y="126" on="1"/>
        <pt x="602" y="36" on="0"/>
        <pt x="571" y="36" on="1"/>
        <pt x="551" y="36" on="1"/>
        <pt x="435" y="36" on="0"/>
        <pt x="435" y="83" on="1"/>
        <pt x="435" y="167" on="0"/>
        <pt x="495" y="494" on="0"/>
        <pt x="495" y="676" on="0"/>
        <pt x="427" y="884" on="0"/>
        <pt x="228" y="1312" on="0"/>
        <pt x="228" y="1349" on="1"/>
        <pt x="228" y="1404" on="0"/>
        <pt x="412" y="1404" on="0"/>
        <pt x="455" y="1337" on="1"/>
        <pt x="467" y="1318" on="0"/>
        <pt x="638" y="839" on="0"/>
      </contour>
    </TTGlyph>
    <TTGlyph name="Z" xMin="62" yMin="-5" xMax="1257" yMax="1424">
      <contour>
        <pt x="1257" y="1409" on="0"/>
        <pt x="1257" y="1326" on="0"/>
        <pt x="367" y="214" on="0"/>
        <pt x="367" y="191" on="1"/>
        <pt x="367" y="153" on="0"/>
        <pt x="575" y="153" on="1"/>
        <pt x="667" y="153" on="0"/>
        <pt x="935" y="173" on="0"/>
        <pt x="948" y="173" on="1"/>
        <pt x="1020" y="173" on="0"/>
        <pt x="1065" y="128" on="0"/>
        <pt x="1065" y="24" on="0"/>
        <pt x="961" y="-5" on="0"/>
        <pt x="817" y="-5" on="1"/>
        <pt x="711" y="-5" on="1"/>
        <pt x="675" y="-4" on="1"/>
        <pt x="498" y="-3" on="1"/>
        <pt x="155" y="-3" on="0"/>
        <pt x="62" y="14" on="0"/>
        <pt x="62" y="49" on="1"/>
        <pt x="62" y="107" on="0"/>
        <pt x="167" y="248" on="1"/>
        <pt x="220" y="319" on="0"/>
        <pt x="955" y="1217" on="0"/>
        <pt x="955" y="1245" on="1"/>
        <pt x="955" y="1268" on="0"/>
        <pt x="685" y="1268" on="0"/>
        <pt x="432" y="1245" on="0"/>
        <pt x="421" y="1245" on="1"/>
        <pt x="349" y="1245" on="0"/>
        <pt x="307" y="1292" on="0"/>
        <pt x="307" y="1385" on="0"/>
        <pt x="351" y="1420" on="0"/>
        <pt x="449" y="1420" on="1"/>
        <pt x="481" y="1422" on="1"/>
        <pt x="525" y="1424" on="0"/>
        <pt x="550" y="1424" on="1"/>
        <pt x="621" y="1424" on="1"/>
        <pt x="657" y="1423" on="1"/>
        <pt x="1047" y="1424" on="1"/>
        <pt x="1179" y="1424" on="0"/>
      </contour>
    </TTGlyph>
    <TTGlyph name="Zcaron" xMin="70" yMin="9" xMax="1254" yMax="1895">
      <contour>
        <pt x="581" y="1849" on="1"/>
        <pt x="581" y="1863" on="1"/>
        <pt x="581" y="1892" on="0"/>
        <pt x="702" y="1892" on="0"/>
        <pt x="755" y="1829" on="1"/>
        <pt x="838" y="1731" on="0"/>
        <pt x="853" y="1731" on="1"/>
        <pt x="856" y="1731" on="0"/>
        <pt x="896" y="1765" on="0"/>
        <pt x="936" y="1795" on="0"/>
        <pt x="940" y="1799" on="1"/>
        <pt x="1048" y="1895" on="0"/>
        <pt x="1115" y="1895" on="1"/>
        <pt x="1123" y="1894" on="1"/>
        <pt x="1131" y="1894" on="1"/>
        <pt x="1176" y="1894" on="0"/>
        <pt x="1176" y="1872" on="1"/>
        <pt x="1176" y="1831" on="0"/>
        <pt x="948" y="1638" on="1"/>
        <pt x="878" y="1579" on="0"/>
        <pt x="823" y="1579" on="1"/>
        <pt x="807" y="1579" on="1"/>
        <pt x="799" y="1580" on="1"/>
        <pt x="761" y="1580" on="0"/>
        <pt x="699" y="1661" on="1"/>
        <pt x="581" y="1814" on="0"/>
      </contour>
      <contour>
        <pt x="70" y="57" on="1"/>
        <pt x="70" y="84" on="1"/>
        <pt x="70" y="153" on="0"/>
        <pt x="933" y="1232" on="0"/>
        <pt x="933" y="1293" on="0"/>
        <pt x="667" y="1293" on="0"/>
        <pt x="423" y="1264" on="0"/>
        <pt x="344" y="1264" on="0"/>
        <pt x="303" y="1296" on="0"/>
        <pt x="303" y="1407" on="0"/>
        <pt x="341" y="1423" on="1"/>
        <pt x="415" y="1455" on="0"/>
        <pt x="568" y="1455" on="1"/>
        <pt x="603" y="1454" on="1"/>
        <pt x="851" y="1452" on="1"/>
        <pt x="1169" y="1452" on="0"/>
        <pt x="1254" y="1440" on="0"/>
        <pt x="1254" y="1410" on="1"/>
        <pt x="1254" y="1342" on="0"/>
        <pt x="384" y="255" on="0"/>
        <pt x="384" y="205" on="1"/>
        <pt x="384" y="175" on="0"/>
        <pt x="613" y="175" on="1"/>
        <pt x="694" y="175" on="0"/>
        <pt x="965" y="200" on="0"/>
        <pt x="1023" y="200" on="0"/>
        <pt x="1069" y="164" on="0"/>
        <pt x="1069" y="54" on="0"/>
        <pt x="1028" y="37" on="1"/>
        <pt x="962" y="9" on="0"/>
        <pt x="799" y="9" on="1"/>
        <pt x="764" y="9" on="1"/>
        <pt x="728" y="10" on="1"/>
        <pt x="621" y="11" on="1"/>
        <pt x="305" y="16" on="1"/>
        <pt x="70" y="16" on="0"/>
      </contour>
    </TTGlyph>
    <TTGlyph name="a" xMin="91" yMin="13" xMax="1014" yMax="995">
      <contour>
        <pt x="278" y="423" on="1"/>
        <pt x="278" y="371" on="1"/>
        <pt x="278" y="271" on="0"/>
        <pt x="372" y="143" on="0"/>
        <pt x="443" y="143" on="1"/>
        <pt x="463" y="143" on="1"/>
        <pt x="464" y="143" on="0"/>
        <pt x="466" y="143" on="1"/>
        <pt x="516" y="143" on="0"/>
        <pt x="578" y="180" on="1"/>
        <pt x="705" y="255" on="0"/>
        <pt x="763" y="450" on="1"/>
        <pt x="793" y="550" on="0"/>
        <pt x="793" y="622" on="1"/>
        <pt x="795" y="643" on="1"/>
        <pt x="796" y="683" on="1"/>
        <pt x="796" y="693" on="1"/>
        <pt x="796" y="796" on="0"/>
        <pt x="731" y="866" on="0"/>
        <pt x="649" y="866" on="1"/>
        <pt x="628" y="866" on="1"/>
        <pt x="618" y="865" on="1"/>
        <pt x="575" y="865" on="0"/>
        <pt x="451" y="807" on="0"/>
        <pt x="343" y="675" on="0"/>
        <pt x="278" y="497" on="0"/>
      </contour>
      <contour>
        <pt x="1014" y="859" on="1"/>
        <pt x="1014" y="842" on="1"/>
        <pt x="1014" y="797" on="0"/>
        <pt x="994" y="701" on="1"/>
        <pt x="943" y="452" on="0"/>
        <pt x="943" y="256" on="1"/>
        <pt x="943" y="252" on="0"/>
        <pt x="943" y="248" on="1"/>
        <pt x="944" y="218" on="1"/>
        <pt x="944" y="191" on="1"/>
        <pt x="950" y="128" on="1"/>
        <pt x="950" y="98" on="0"/>
        <pt x="913" y="43" on="0"/>
        <pt x="830" y="43" on="0"/>
        <pt x="764" y="146" on="0"/>
        <pt x="743" y="146" on="1"/>
        <pt x="739" y="146" on="0"/>
        <pt x="645" y="80" on="0"/>
        <pt x="599" y="64" on="1"/>
        <pt x="451" y="13" on="0"/>
        <pt x="410" y="13" on="1"/>
        <pt x="373" y="13" on="1"/>
        <pt x="249" y="13" on="0"/>
        <pt x="91" y="215" on="0"/>
        <pt x="91" y="359" on="1"/>
        <pt x="91" y="378" on="1"/>
        <pt x="92" y="488" on="0"/>
        <pt x="176" y="724" on="0"/>
        <pt x="249" y="808" on="1"/>
        <pt x="410" y="995" on="0"/>
        <pt x="617" y="995" on="1"/>
        <pt x="619" y="995" on="1"/>
        <pt x="700" y="995" on="0"/>
        <pt x="885" y="921" on="0"/>
        <pt x="900" y="921" on="1"/>
        <pt x="957" y="933" on="1"/>
        <pt x="1014" y="933" on="0"/>
      </contour>
    </TTGlyph>
    <TTGlyph name="aacute" xMin="113" yMin="47" xMax="1022" yMax="1489">
      <contour>
        <pt x="300" y="454" on="1"/>
        <pt x="300" y="433" on="1"/>
        <pt x="300" y="317" on="0"/>
        <pt x="398" y="195" on="0"/>
        <pt x="465" y="195" on="1"/>
        <pt x="475" y="195" on="1"/>
        <pt x="486" y="196" on="1"/>
        <pt x="542" y="196" on="0"/>
        <pt x="675" y="282" on="0"/>
        <pt x="713" y="341" on="1"/>
        <pt x="819" y="505" on="0"/>
        <pt x="819" y="684" on="1"/>
        <pt x="821" y="705" on="1"/>
        <pt x="821" y="755" on="1"/>
        <pt x="821" y="844" on="0"/>
        <pt x="757" y="919" on="0"/>
        <pt x="673" y="919" on="1"/>
        <pt x="653" y="919" on="1"/>
        <pt x="651" y="919" on="0"/>
        <pt x="650" y="919" on="1"/>
        <pt x="595" y="919" on="0"/>
        <pt x="534" y="886" on="1"/>
        <pt x="401" y="815" on="0"/>
        <pt x="330" y="625" on="1"/>
        <pt x="300" y="544" on="0"/>
      </contour>
      <contour>
        <pt x="970" y="1480" on="1"/>
        <pt x="970" y="1473" on="1"/>
        <pt x="970" y="1462" on="0"/>
        <pt x="938" y="1421" on="1"/>
        <pt x="839" y="1294" on="0"/>
        <pt x="708" y="1192" on="1"/>
        <pt x="660" y="1155" on="0"/>
        <pt x="617" y="1155" on="1"/>
        <pt x="598" y="1155" on="1"/>
        <pt x="585" y="1155" on="0"/>
        <pt x="585" y="1161" on="1"/>
        <pt x="585" y="1165" on="1"/>
        <pt x="585" y="1213" on="0"/>
        <pt x="784" y="1440" on="1"/>
        <pt x="824" y="1486" on="0"/>
        <pt x="901" y="1486" on="1"/>
        <pt x="928" y="1489" on="1"/>
        <pt x="949" y="1489" on="1"/>
        <pt x="970" y="1489" on="0"/>
      </contour>
      <contour>
        <pt x="1022" y="889" on="1"/>
        <pt x="1022" y="873" on="1"/>
        <pt x="1022" y="866" on="0"/>
        <pt x="1007" y="766" on="0"/>
        <pt x="1001" y="730" on="1"/>
        <pt x="996" y="695" on="1"/>
        <pt x="990" y="660" on="1"/>
        <pt x="986" y="629" on="0"/>
        <pt x="984" y="617" on="1"/>
        <pt x="952" y="425" on="0"/>
        <pt x="952" y="272" on="1"/>
        <pt x="952" y="257" on="0"/>
        <pt x="952" y="242" on="1"/>
        <pt x="955" y="205" on="1"/>
        <pt x="959" y="179" on="0"/>
        <pt x="959" y="121" on="0"/>
        <pt x="913" y="80" on="0"/>
        <pt x="838" y="80" on="0"/>
        <pt x="776" y="173" on="0"/>
        <pt x="755" y="173" on="0"/>
        <pt x="655" y="110" on="0"/>
        <pt x="472" y="47" on="0"/>
        <pt x="404" y="47" on="1"/>
        <pt x="275" y="47" on="0"/>
        <pt x="113" y="245" on="0"/>
        <pt x="113" y="393" on="1"/>
        <pt x="113" y="412" on="1"/>
        <pt x="113" y="519" on="0"/>
        <pt x="198" y="754" on="0"/>
        <pt x="356" y="937" on="0"/>
        <pt x="546" y="1024" on="0"/>
        <pt x="633" y="1024" on="1"/>
        <pt x="651" y="1024" on="1"/>
        <pt x="710" y="1024" on="0"/>
        <pt x="904" y="953" on="0"/>
        <pt x="911" y="953" on="1"/>
        <pt x="967" y="963" on="1"/>
        <pt x="1022" y="963" on="0"/>
      </contour>
    </TTGlyph>
    <TTGlyph name="acircumflex" xMin="113" yMin="36" xMax="1024" yMax="1472">
      <contour>
        <pt x="294" y="460" on="1"/>
        <pt x="294" y="429" on="1"/>
        <pt x="294" y="324" on="0"/>
        <pt x="385" y="188" on="0"/>
        <pt x="463" y="188" on="1"/>
        <pt x="483" y="188" on="1"/>
        <pt x="541" y="188" on="0"/>
        <pt x="675" y="274" on="0"/>
        <pt x="722" y="343" on="1"/>
        <pt x="817" y="481" on="0"/>
        <pt x="817" y="686" on="1"/>
        <pt x="817" y="706" on="1"/>
        <pt x="817" y="825" on="0"/>
        <pt x="747" y="901" on="0"/>
        <pt x="668" y="901" on="1"/>
        <pt x="637" y="901" on="1"/>
        <pt x="582" y="901" on="0"/>
        <pt x="454" y="826" on="0"/>
        <pt x="398" y="753" on="1"/>
        <pt x="294" y="617" on="0"/>
      </contour>
      <contour>
        <pt x="764" y="1472" on="1"/>
        <pt x="771" y="1472" on="1"/>
        <pt x="812" y="1472" on="0"/>
        <pt x="868" y="1385" on="1"/>
        <pt x="985" y="1203" on="0"/>
        <pt x="985" y="1180" on="1"/>
        <pt x="985" y="1175" on="1"/>
        <pt x="985" y="1158" on="0"/>
        <pt x="897" y="1158" on="0"/>
        <pt x="752" y="1346" on="0"/>
        <pt x="721" y="1346" on="0"/>
        <pt x="605" y="1230" on="1"/>
        <pt x="526" y="1151" on="0"/>
        <pt x="455" y="1151" on="1"/>
        <pt x="448" y="1152" on="1"/>
        <pt x="442" y="1152" on="1"/>
        <pt x="428" y="1152" on="0"/>
        <pt x="428" y="1178" on="0"/>
        <pt x="722" y="1472" on="0"/>
      </contour>
      <contour>
        <pt x="952" y="261" on="1"/>
        <pt x="960" y="156" on="1"/>
        <pt x="960" y="112" on="0"/>
        <pt x="913" y="67" on="0"/>
        <pt x="842" y="67" on="0"/>
        <pt x="774" y="162" on="0"/>
        <pt x="763" y="162" on="1"/>
        <pt x="747" y="162" on="0"/>
        <pt x="677" y="111" on="0"/>
        <pt x="503" y="36" on="0"/>
        <pt x="423" y="36" on="1"/>
        <pt x="387" y="36" on="1"/>
        <pt x="283" y="36" on="0"/>
        <pt x="113" y="220" on="0"/>
        <pt x="113" y="380" on="1"/>
        <pt x="113" y="400" on="1"/>
        <pt x="113" y="510" on="0"/>
        <pt x="196" y="733" on="0"/>
        <pt x="340" y="907" on="0"/>
        <pt x="530" y="1008" on="0"/>
        <pt x="616" y="1008" on="1"/>
        <pt x="653" y="1008" on="1"/>
        <pt x="709" y="1008" on="0"/>
        <pt x="902" y="937" on="0"/>
        <pt x="911" y="937" on="1"/>
        <pt x="977" y="948" on="1"/>
        <pt x="1024" y="948" on="0"/>
        <pt x="1024" y="877" on="1"/>
        <pt x="1024" y="861" on="1"/>
        <pt x="1024" y="836" on="0"/>
        <pt x="952" y="416" on="0"/>
      </contour>
    </TTGlyph>
    <TTGlyph name="acute" xMin="264" yMin="1090" xMax="650" yMax="1411">
      <contour>
        <pt x="584" y="1411" on="1"/>
        <pt x="625" y="1411" on="1"/>
        <pt x="650" y="1411" on="0"/>
        <pt x="650" y="1399" on="1"/>
        <pt x="650" y="1395" on="1"/>
        <pt x="650" y="1385" on="0"/>
        <pt x="621" y="1342" on="1"/>
        <pt x="556" y="1245" on="0"/>
        <pt x="424" y="1142" on="1"/>
        <pt x="357" y="1090" on="0"/>
        <pt x="303" y="1090" on="1"/>
        <pt x="288" y="1090" on="1"/>
        <pt x="264" y="1090" on="0"/>
        <pt x="264" y="1098" on="1"/>
        <pt x="264" y="1105" on="1"/>
        <pt x="264" y="1124" on="0"/>
        <pt x="412" y="1335" on="0"/>
        <pt x="499" y="1411" on="0"/>
      </contour>
    </TTGlyph>
    <TTGlyph name="adieresis" xMin="120" yMin="43" xMax="1031" yMax="1409">
      <contour>
        <pt x="302" y="472" on="1"/>
        <pt x="302" y="421" on="1"/>
        <pt x="302" y="329" on="0"/>
        <pt x="392" y="193" on="0"/>
        <pt x="464" y="193" on="1"/>
        <pt x="494" y="193" on="1"/>
        <pt x="540" y="193" on="0"/>
        <pt x="603" y="230" on="1"/>
        <pt x="722" y="300" on="0"/>
        <pt x="783" y="490" on="1"/>
        <pt x="815" y="591" on="0"/>
        <pt x="815" y="701" on="1"/>
        <pt x="815" y="730" on="1"/>
        <pt x="815" y="834" on="0"/>
        <pt x="744" y="905" on="0"/>
        <pt x="661" y="905" on="1"/>
        <pt x="651" y="905" on="1"/>
        <pt x="520" y="905" on="0"/>
        <pt x="416" y="777" on="1"/>
        <pt x="358" y="705" on="0"/>
        <pt x="302" y="529" on="0"/>
      </contour>
      <contour>
        <pt x="462" y="1287" on="1"/>
        <pt x="465" y="1326" on="1"/>
        <pt x="465" y="1340" on="0"/>
        <pt x="516" y="1404" on="0"/>
        <pt x="544" y="1404" on="1"/>
        <pt x="553" y="1407" on="0"/>
        <pt x="557" y="1407" on="1"/>
        <pt x="573" y="1409" on="1"/>
        <pt x="590" y="1409" on="1"/>
        <pt x="602" y="1406" on="0"/>
        <pt x="610" y="1406" on="1"/>
        <pt x="659" y="1406" on="0"/>
        <pt x="659" y="1361" on="1"/>
        <pt x="661" y="1355" on="0"/>
        <pt x="661" y="1352" on="1"/>
        <pt x="663" y="1339" on="1"/>
        <pt x="663" y="1322" on="1"/>
        <pt x="662" y="1319" on="1"/>
        <pt x="662" y="1312" on="1"/>
        <pt x="657" y="1297" on="0"/>
        <pt x="657" y="1272" on="0"/>
        <pt x="606" y="1208" on="0"/>
        <pt x="572" y="1208" on="1"/>
        <pt x="566" y="1206" on="1"/>
        <pt x="559" y="1206" on="1"/>
        <pt x="542" y="1204" on="1"/>
        <pt x="535" y="1204" on="1"/>
        <pt x="509" y="1208" on="1"/>
        <pt x="461" y="1208" on="0"/>
        <pt x="461" y="1277" on="1"/>
        <pt x="461" y="1284" on="1"/>
      </contour>
      <contour>
        <pt x="817" y="1272" on="1"/>
        <pt x="817" y="1320" on="0"/>
        <pt x="894" y="1397" on="0"/>
        <pt x="942" y="1397" on="1"/>
        <pt x="963" y="1397" on="1"/>
        <pt x="1006" y="1397" on="0"/>
        <pt x="1006" y="1366" on="1"/>
        <pt x="1008" y="1360" on="0"/>
        <pt x="1008" y="1357" on="1"/>
        <pt x="1010" y="1341" on="1"/>
        <pt x="1010" y="1335" on="1"/>
        <pt x="1009" y="1332" on="1"/>
        <pt x="1009" y="1255" on="0"/>
        <pt x="930" y="1176" on="0"/>
        <pt x="900" y="1176" on="1"/>
        <pt x="894" y="1174" on="0"/>
        <pt x="891" y="1174" on="1"/>
        <pt x="879" y="1173" on="1"/>
        <pt x="876" y="1174" on="1"/>
        <pt x="821" y="1174" on="0"/>
        <pt x="821" y="1224" on="1"/>
        <pt x="819" y="1231" on="1"/>
        <pt x="819" y="1235" on="0"/>
        <pt x="819" y="1239" on="1"/>
        <pt x="817" y="1254" on="1"/>
      </contour>
      <contour>
        <pt x="1031" y="884" on="1"/>
        <pt x="1031" y="868" on="1"/>
        <pt x="1031" y="848" on="0"/>
        <pt x="961" y="440" on="0"/>
        <pt x="959" y="328" on="0"/>
        <pt x="959" y="313" on="1"/>
        <pt x="958" y="298" on="1"/>
        <pt x="958" y="283" on="0"/>
        <pt x="958" y="268" on="1"/>
        <pt x="967" y="163" on="1"/>
        <pt x="967" y="119" on="0"/>
        <pt x="920" y="74" on="0"/>
        <pt x="846" y="74" on="0"/>
        <pt x="782" y="169" on="0"/>
        <pt x="755" y="169" on="0"/>
        <pt x="676" y="114" on="0"/>
        <pt x="505" y="43" on="0"/>
        <pt x="430" y="43" on="1"/>
        <pt x="394" y="43" on="1"/>
        <pt x="287" y="43" on="0"/>
        <pt x="120" y="231" on="0"/>
        <pt x="120" y="387" on="1"/>
        <pt x="120" y="407" on="1"/>
        <pt x="120" y="517" on="0"/>
        <pt x="204" y="742" on="0"/>
        <pt x="345" y="913" on="0"/>
        <pt x="537" y="1015" on="0"/>
        <pt x="622" y="1015" on="1"/>
        <pt x="659" y="1015" on="1"/>
        <pt x="716" y="1015" on="0"/>
        <pt x="909" y="944" on="0"/>
        <pt x="917" y="944" on="1"/>
        <pt x="983" y="955" on="1"/>
        <pt x="1031" y="955" on="0"/>
      </contour>
    </TTGlyph>
    <TTGlyph name="ae" xMin="157" yMin="33" xMax="1631" yMax="1051">
      <contour>
        <pt x="480" y="166" on="1"/>
        <pt x="510" y="166" on="1"/>
        <pt x="556" y="166" on="0"/>
        <pt x="706" y="254" on="0"/>
        <pt x="768" y="355" on="0"/>
        <pt x="891" y="767" on="0"/>
        <pt x="891" y="804" on="1"/>
        <pt x="892" y="814" on="1"/>
        <pt x="893" y="823" on="1"/>
        <pt x="894" y="849" on="1"/>
        <pt x="894" y="858" on="1"/>
        <pt x="894" y="866" on="0"/>
        <pt x="834" y="917" on="0"/>
        <pt x="745" y="917" on="1"/>
        <pt x="734" y="917" on="1"/>
        <pt x="586" y="917" on="0"/>
        <pt x="468" y="764" on="1"/>
        <pt x="408" y="686" on="0"/>
        <pt x="342" y="487" on="0"/>
        <pt x="342" y="403" on="1"/>
        <pt x="342" y="392" on="1"/>
        <pt x="342" y="289" on="0"/>
        <pt x="419" y="166" on="0"/>
      </contour>
      <contour>
        <pt x="1039" y="645" on="1"/>
        <pt x="1039" y="636" on="1"/>
        <pt x="1039" y="601" on="0"/>
        <pt x="1079" y="601" on="1"/>
        <pt x="1085" y="601" on="1"/>
        <pt x="1130" y="606" on="1"/>
        <pt x="1253" y="606" on="0"/>
        <pt x="1409" y="671" on="1"/>
        <pt x="1498" y="708" on="0"/>
        <pt x="1498" y="757" on="1"/>
        <pt x="1498" y="789" on="1"/>
        <pt x="1496" y="801" on="0"/>
        <pt x="1496" y="807" on="1"/>
        <pt x="1496" y="855" on="0"/>
        <pt x="1417" y="925" on="0"/>
        <pt x="1369" y="925" on="1"/>
        <pt x="1338" y="925" on="1"/>
        <pt x="1257" y="925" on="0"/>
        <pt x="1160" y="838" on="1"/>
        <pt x="1105" y="789" on="0"/>
        <pt x="1039" y="656" on="0"/>
      </contour>
      <contour>
        <pt x="901" y="1031" on="0"/>
        <pt x="970" y="1031" on="0"/>
        <pt x="1067" y="956" on="0"/>
        <pt x="1075" y="956" on="0"/>
        <pt x="1272" y="1051" on="0"/>
        <pt x="1360" y="1051" on="1"/>
        <pt x="1390" y="1051" on="1"/>
        <pt x="1492" y="1051" on="0"/>
        <pt x="1631" y="908" on="0"/>
        <pt x="1631" y="783" on="1"/>
        <pt x="1631" y="755" on="1"/>
        <pt x="1631" y="652" on="0"/>
        <pt x="1513" y="551" on="0"/>
        <pt x="1200" y="442" on="0"/>
        <pt x="1075" y="425" on="0"/>
        <pt x="1037" y="410" on="0"/>
        <pt x="1037" y="373" on="1"/>
        <pt x="1037" y="293" on="0"/>
        <pt x="1160" y="193" on="0"/>
        <pt x="1333" y="193" on="0"/>
        <pt x="1566" y="278" on="0"/>
        <pt x="1571" y="278" on="1"/>
        <pt x="1596" y="278" on="0"/>
        <pt x="1596" y="256" on="1"/>
        <pt x="1596" y="176" on="0"/>
        <pt x="1343" y="33" on="0"/>
        <pt x="1219" y="33" on="1"/>
        <pt x="1189" y="33" on="1"/>
        <pt x="1080" y="33" on="0"/>
        <pt x="906" y="149" on="0"/>
        <pt x="873" y="149" on="1"/>
        <pt x="841" y="143" on="0"/>
        <pt x="817" y="143" on="1"/>
        <pt x="772" y="150" on="1"/>
        <pt x="741" y="150" on="0"/>
        <pt x="721" y="142" on="1"/>
        <pt x="677" y="120" on="1"/>
        <pt x="659" y="112" on="0"/>
        <pt x="502" y="64" on="0"/>
        <pt x="431" y="64" on="1"/>
        <pt x="327" y="64" on="0"/>
        <pt x="157" y="254" on="0"/>
        <pt x="157" y="386" on="1"/>
        <pt x="157" y="638" on="0"/>
        <pt x="348" y="844" on="1"/>
        <pt x="425" y="927" on="0"/>
        <pt x="621" y="1014" on="0"/>
        <pt x="704" y="1014" on="1"/>
        <pt x="811" y="1005" on="1"/>
        <pt x="815" y="1005" on="0"/>
      </contour>
    </TTGlyph>
    <TTGlyph name="agrave" xMin="113" yMin="49" xMax="1024" yMax="1490">
      <contour>
        <pt x="295" y="477" on="1"/>
        <pt x="295" y="436" on="1"/>
        <pt x="295" y="326" on="0"/>
        <pt x="395" y="198" on="0"/>
        <pt x="471" y="198" on="1"/>
        <pt x="481" y="198" on="1"/>
        <pt x="543" y="198" on="0"/>
        <pt x="665" y="277" on="0"/>
        <pt x="745" y="394" on="0"/>
        <pt x="807" y="590" on="0"/>
        <pt x="807" y="709" on="1"/>
        <pt x="807" y="719" on="1"/>
        <pt x="807" y="838" on="0"/>
        <pt x="737" y="914" on="0"/>
        <pt x="651" y="914" on="1"/>
        <pt x="631" y="914" on="1"/>
        <pt x="582" y="914" on="0"/>
        <pt x="521" y="884" on="1"/>
        <pt x="391" y="819" on="0"/>
        <pt x="324" y="636" on="1"/>
        <pt x="295" y="557" on="0"/>
      </contour>
      <contour>
        <pt x="790" y="1151" on="1"/>
        <pt x="781" y="1151" on="1"/>
        <pt x="776" y="1152" on="1"/>
        <pt x="724" y="1152" on="0"/>
        <pt x="691" y="1190" on="1"/>
        <pt x="498" y="1411" on="0"/>
        <pt x="498" y="1467" on="1"/>
        <pt x="498" y="1471" on="1"/>
        <pt x="498" y="1487" on="0"/>
        <pt x="524" y="1487" on="1"/>
        <pt x="537" y="1490" on="1"/>
        <pt x="551" y="1490" on="1"/>
        <pt x="561" y="1488" on="0"/>
        <pt x="566" y="1488" on="1"/>
        <pt x="632" y="1488" on="0"/>
        <pt x="672" y="1442" on="1"/>
        <pt x="813" y="1281" on="0"/>
        <pt x="813" y="1183" on="1"/>
        <pt x="813" y="1173" on="1"/>
        <pt x="813" y="1151" on="0"/>
      </contour>
      <contour>
        <pt x="1024" y="890" on="1"/>
        <pt x="1024" y="874" on="1"/>
        <pt x="1024" y="855" on="0"/>
        <pt x="951" y="429" on="0"/>
        <pt x="951" y="240" on="0"/>
        <pt x="960" y="182" on="0"/>
        <pt x="960" y="125" on="0"/>
        <pt x="913" y="80" on="0"/>
        <pt x="837" y="80" on="0"/>
        <pt x="778" y="174" on="0"/>
        <pt x="753" y="174" on="1"/>
        <pt x="750" y="174" on="0"/>
        <pt x="652" y="110" on="0"/>
        <pt x="476" y="49" on="0"/>
        <pt x="423" y="49" on="1"/>
        <pt x="386" y="49" on="1"/>
        <pt x="280" y="49" on="0"/>
        <pt x="113" y="237" on="0"/>
        <pt x="113" y="374" on="1"/>
        <pt x="113" y="431" on="1"/>
        <pt x="113" y="530" on="0"/>
        <pt x="156" y="640" on="1"/>
        <pt x="245" y="869" on="0"/>
        <pt x="423" y="964" on="1"/>
        <pt x="530" y="1021" on="0"/>
        <pt x="615" y="1021" on="1"/>
        <pt x="652" y="1021" on="1"/>
        <pt x="710" y="1021" on="0"/>
        <pt x="897" y="950" on="0"/>
        <pt x="910" y="950" on="1"/>
        <pt x="976" y="961" on="1"/>
        <pt x="1024" y="961" on="0"/>
      </contour>
    </TTGlyph>
    <TTGlyph name="ampersand" xMin="129" yMin="-16" xMax="1312" yMax="1433">
      <contour>
        <pt x="601" y="1071" on="1"/>
        <pt x="603" y="1043" on="1"/>
        <pt x="603" y="998" on="0"/>
        <pt x="648" y="923" on="1"/>
        <pt x="664" y="897" on="0"/>
        <pt x="680" y="897" on="1"/>
        <pt x="689" y="897" on="1"/>
        <pt x="697" y="897" on="0"/>
        <pt x="833" y="978" on="0"/>
        <pt x="928" y="1087" on="0"/>
        <pt x="928" y="1138" on="1"/>
        <pt x="930" y="1150" on="1"/>
        <pt x="930" y="1180" on="1"/>
        <pt x="930" y="1221" on="0"/>
        <pt x="863" y="1288" on="0"/>
        <pt x="809" y="1288" on="1"/>
        <pt x="790" y="1288" on="1"/>
        <pt x="772" y="1285" on="0"/>
        <pt x="761" y="1285" on="1"/>
        <pt x="696" y="1285" on="0"/>
        <pt x="600" y="1161" on="0"/>
        <pt x="600" y="1094" on="1"/>
        <pt x="600" y="1076" on="1"/>
      </contour>
      <contour>
        <pt x="577" y="663" on="1"/>
        <pt x="563" y="663" on="1"/>
        <pt x="500" y="663" on="0"/>
        <pt x="400" y="533" on="1"/>
        <pt x="331" y="443" on="0"/>
        <pt x="331" y="362" on="1"/>
        <pt x="331" y="320" on="1"/>
        <pt x="331" y="236" on="0"/>
        <pt x="465" y="136" on="0"/>
        <pt x="558" y="136" on="1"/>
        <pt x="576" y="136" on="1"/>
        <pt x="585" y="137" on="1"/>
        <pt x="663" y="137" on="0"/>
        <pt x="860" y="229" on="0"/>
        <pt x="860" y="263" on="1"/>
        <pt x="860" y="276" on="1"/>
        <pt x="860" y="282" on="0"/>
        <pt x="690" y="519" on="0"/>
        <pt x="675" y="543" on="1"/>
        <pt x="598" y="663" on="0"/>
      </contour>
      <contour>
        <pt x="808" y="732" on="1"/>
        <pt x="808" y="673" on="0"/>
        <pt x="973" y="477" on="0"/>
        <pt x="1017" y="477" on="1"/>
        <pt x="1037" y="477" on="0"/>
        <pt x="1146" y="661" on="0"/>
        <pt x="1210" y="720" on="0"/>
        <pt x="1312" y="720" on="0"/>
        <pt x="1312" y="608" on="0"/>
        <pt x="1142" y="309" on="0"/>
        <pt x="1142" y="236" on="0"/>
        <pt x="1253" y="110" on="0"/>
        <pt x="1253" y="61" on="1"/>
        <pt x="1253" y="20" on="0"/>
        <pt x="1173" y="20" on="1"/>
        <pt x="1135" y="20" on="0"/>
        <pt x="1004" y="94" on="0"/>
        <pt x="928" y="94" on="0"/>
        <pt x="653" y="-16" on="0"/>
        <pt x="530" y="-16" on="1"/>
        <pt x="500" y="-16" on="1"/>
        <pt x="332" y="-16" on="0"/>
        <pt x="129" y="164" on="0"/>
        <pt x="129" y="292" on="1"/>
        <pt x="129" y="528" on="0"/>
        <pt x="340" y="697" on="1"/>
        <pt x="464" y="797" on="0"/>
        <pt x="464" y="851" on="1"/>
        <pt x="464" y="856" on="0"/>
        <pt x="411" y="1018" on="0"/>
        <pt x="411" y="1084" on="1"/>
        <pt x="411" y="1230" on="0"/>
        <pt x="640" y="1433" on="0"/>
        <pt x="789" y="1433" on="1"/>
        <pt x="820" y="1433" on="1"/>
        <pt x="961" y="1433" on="0"/>
        <pt x="1105" y="1300" on="0"/>
        <pt x="1105" y="1185" on="1"/>
        <pt x="1104" y="1109" on="0"/>
        <pt x="1066" y="1045" on="1"/>
        <pt x="992" y="922" on="0"/>
        <pt x="864" y="806" on="1"/>
        <pt x="808" y="756" on="0"/>
      </contour>
    </TTGlyph>
    <TTGlyph name="aring" xMin="111" yMin="50" xMax="1022" yMax="1533">
      <contour>
        <pt x="752" y="1451" on="1"/>
        <pt x="725" y="1451" on="1"/>
        <pt x="717" y="1449" on="0"/>
        <pt x="715" y="1449" on="1"/>
        <pt x="690" y="1449" on="0"/>
        <pt x="630" y="1389" on="0"/>
        <pt x="630" y="1367" on="1"/>
        <pt x="625" y="1340" on="1"/>
        <pt x="625" y="1323" on="1"/>
        <pt x="626" y="1319" on="1"/>
        <pt x="626" y="1312" on="1"/>
        <pt x="629" y="1303" on="0"/>
        <pt x="629" y="1300" on="1"/>
        <pt x="629" y="1243" on="0"/>
        <pt x="689" y="1243" on="1"/>
        <pt x="706" y="1240" on="1"/>
        <pt x="727" y="1240" on="1"/>
        <pt x="755" y="1240" on="0"/>
        <pt x="827" y="1298" on="0"/>
        <pt x="827" y="1331" on="1"/>
        <pt x="830" y="1351" on="1"/>
        <pt x="830" y="1372" on="1"/>
        <pt x="826" y="1391" on="1"/>
        <pt x="826" y="1405" on="0"/>
        <pt x="780" y="1451" on="0"/>
      </contour>
      <contour>
        <pt x="286" y="442" on="1"/>
        <pt x="286" y="421" on="1"/>
        <pt x="286" y="309" on="0"/>
        <pt x="384" y="175" on="0"/>
        <pt x="461" y="175" on="1"/>
        <pt x="471" y="175" on="1"/>
        <pt x="522" y="175" on="0"/>
        <pt x="667" y="252" on="0"/>
        <pt x="719" y="327" on="1"/>
        <pt x="813" y="464" on="0"/>
        <pt x="813" y="660" on="1"/>
        <pt x="815" y="681" on="1"/>
        <pt x="815" y="732" on="1"/>
        <pt x="815" y="839" on="0"/>
        <pt x="741" y="902" on="0"/>
        <pt x="668" y="902" on="1"/>
        <pt x="637" y="902" on="1"/>
        <pt x="509" y="902" on="0"/>
        <pt x="396" y="762" on="1"/>
        <pt x="348" y="703" on="0"/>
        <pt x="286" y="526" on="0"/>
      </contour>
      <contour>
        <pt x="532" y="1310" on="1"/>
        <pt x="532" y="1341" on="1"/>
        <pt x="532" y="1417" on="0"/>
        <pt x="663" y="1533" on="0"/>
        <pt x="732" y="1533" on="1"/>
        <pt x="764" y="1533" on="1"/>
        <pt x="778" y="1531" on="0"/>
        <pt x="783" y="1531" on="1"/>
        <pt x="835" y="1531" on="0"/>
        <pt x="923" y="1432" on="0"/>
        <pt x="923" y="1376" on="1"/>
        <pt x="923" y="1351" on="1"/>
        <pt x="923" y="1282" on="0"/>
        <pt x="800" y="1159" on="0"/>
        <pt x="723" y="1159" on="1"/>
        <pt x="691" y="1159" on="1"/>
        <pt x="634" y="1159" on="0"/>
        <pt x="532" y="1249" on="0"/>
      </contour>
      <contour>
        <pt x="1022" y="892" on="1"/>
        <pt x="1022" y="876" on="1"/>
        <pt x="1022" y="851" on="0"/>
        <pt x="950" y="431" on="0"/>
        <pt x="950" y="276" on="1"/>
        <pt x="959" y="171" on="1"/>
        <pt x="959" y="128" on="0"/>
        <pt x="912" y="81" on="0"/>
        <pt x="838" y="81" on="0"/>
        <pt x="774" y="177" on="0"/>
        <pt x="746" y="177" on="0"/>
        <pt x="667" y="119" on="0"/>
        <pt x="484" y="50" on="0"/>
        <pt x="423" y="50" on="1"/>
        <pt x="386" y="50" on="1"/>
        <pt x="281" y="50" on="0"/>
        <pt x="111" y="234" on="0"/>
        <pt x="111" y="393" on="1"/>
        <pt x="111" y="412" on="1"/>
        <pt x="111" y="530" on="0"/>
        <pt x="154" y="640" on="1"/>
        <pt x="242" y="865" on="0"/>
        <pt x="420" y="965" on="1"/>
        <pt x="523" y="1023" on="0"/>
        <pt x="631" y="1023" on="1"/>
        <pt x="650" y="1023" on="1"/>
        <pt x="740" y="1023" on="0"/>
        <pt x="842" y="965" on="1"/>
        <pt x="868" y="952" on="0"/>
        <pt x="896" y="952" on="1"/>
        <pt x="975" y="961" on="1"/>
        <pt x="1022" y="961" on="0"/>
      </contour>
    </TTGlyph>
    <TTGlyph name="asciicircum" xMin="227" yMin="765" xMax="1009" yMax="1392">
      <contour>
        <pt x="696" y="1392" on="1"/>
        <pt x="708" y="1392" on="1"/>
        <pt x="746" y="1392" on="0"/>
        <pt x="787" y="1310" on="1"/>
        <pt x="1009" y="866" on="0"/>
        <pt x="1009" y="786" on="1"/>
        <pt x="1009" y="765" on="0"/>
        <pt x="946" y="765" on="1"/>
        <pt x="934" y="765" on="1"/>
        <pt x="891" y="765" on="0"/>
        <pt x="844" y="843" on="1"/>
        <pt x="814" y="892" on="0"/>
        <pt x="675" y="1206" on="0"/>
        <pt x="666" y="1206" on="1"/>
        <pt x="665" y="1206" on="0"/>
        <pt x="406" y="840" on="0"/>
        <pt x="402" y="836" on="1"/>
        <pt x="338" y="765" on="0"/>
        <pt x="285" y="765" on="1"/>
        <pt x="273" y="765" on="1"/>
        <pt x="227" y="765" on="0"/>
        <pt x="227" y="799" on="0"/>
        <pt x="255" y="841" on="1"/>
        <pt x="528" y="1250" on="0"/>
        <pt x="639" y="1392" on="0"/>
      </contour>
    </TTGlyph>
    <TTGlyph name="asciitilde" xMin="159" yMin="545" xMax="1013" yMax="811">
      <contour>
        <pt x="762" y="545" on="1"/>
        <pt x="741" y="545" on="1"/>
        <pt x="677" y="545" on="0"/>
        <pt x="459" y="676" on="0"/>
        <pt x="365" y="676" on="0"/>
        <pt x="235" y="563" on="0"/>
        <pt x="159" y="563" on="0"/>
        <pt x="159" y="588" on="1"/>
        <pt x="159" y="597" on="1"/>
        <pt x="159" y="678" on="0"/>
        <pt x="260" y="755" on="1"/>
        <pt x="333" y="811" on="0"/>
        <pt x="410" y="811" on="1"/>
        <pt x="442" y="811" on="1"/>
        <pt x="498" y="811" on="0"/>
        <pt x="715" y="681" on="0"/>
        <pt x="805" y="681" on="0"/>
        <pt x="940" y="791" on="0"/>
        <pt x="1013" y="791" on="0"/>
        <pt x="1013" y="768" on="1"/>
        <pt x="1013" y="758" on="1"/>
        <pt x="1013" y="677" on="0"/>
        <pt x="912" y="600" on="1"/>
        <pt x="840" y="545" on="0"/>
      </contour>
    </TTGlyph>
    <TTGlyph name="asterisk" xMin="240" yMin="742" xMax="857" yMax="1375">
      <contour>
        <pt x="281" y="858" on="1"/>
        <pt x="240" y="858" on="0"/>
        <pt x="240" y="913" on="1"/>
        <pt x="240" y="925" on="1"/>
        <pt x="240" y="933" on="0"/>
        <pt x="300" y="1018" on="0"/>
        <pt x="342" y="1047" on="0"/>
        <pt x="342" y="1050" on="1"/>
        <pt x="337" y="1056" on="1"/>
        <pt x="318" y="1072" on="0"/>
        <pt x="273" y="1163" on="0"/>
        <pt x="273" y="1169" on="1"/>
        <pt x="273" y="1235" on="0"/>
        <pt x="337" y="1235" on="1"/>
        <pt x="375" y="1235" on="0"/>
        <pt x="475" y="1176" on="0"/>
        <pt x="487" y="1176" on="0"/>
        <pt x="527" y="1328" on="0"/>
        <pt x="535" y="1338" on="1"/>
        <pt x="566" y="1375" on="0"/>
        <pt x="624" y="1375" on="1"/>
        <pt x="638" y="1375" on="1"/>
        <pt x="656" y="1375" on="0"/>
        <pt x="656" y="1278" on="1"/>
        <pt x="656" y="1254" on="0"/>
        <pt x="623" y="1155" on="1"/>
        <pt x="623" y="1145" on="0"/>
        <pt x="629" y="1145" on="1"/>
        <pt x="640" y="1145" on="0"/>
        <pt x="765" y="1205" on="0"/>
        <pt x="800" y="1205" on="1"/>
        <pt x="857" y="1205" on="0"/>
        <pt x="857" y="1157" on="1"/>
        <pt x="857" y="1095" on="0"/>
        <pt x="782" y="1061" on="1"/>
        <pt x="677" y="1013" on="0"/>
        <pt x="677" y="1008" on="1"/>
        <pt x="677" y="990" on="0"/>
        <pt x="746" y="903" on="0"/>
        <pt x="746" y="856" on="1"/>
        <pt x="746" y="802" on="0"/>
        <pt x="684" y="802" on="1"/>
        <pt x="657" y="802" on="0"/>
        <pt x="571" y="848" on="0"/>
        <pt x="568" y="848" on="1"/>
        <pt x="550" y="848" on="0"/>
        <pt x="489" y="742" on="0"/>
        <pt x="414" y="742" on="1"/>
        <pt x="381" y="742" on="0"/>
        <pt x="381" y="833" on="1"/>
        <pt x="381" y="860" on="0"/>
        <pt x="349" y="860" on="1"/>
        <pt x="332" y="862" on="1"/>
        <pt x="310" y="862" on="1"/>
        <pt x="290" y="858" on="0"/>
      </contour>
    </TTGlyph>
    <TTGlyph name="at" xMin="188" yMin="-175" xMax="1653" yMax="1357">
      <contour>
        <pt x="1037" y="858" on="1"/>
        <pt x="999" y="858" on="1"/>
        <pt x="910" y="858" on="0"/>
        <pt x="779" y="715" on="1"/>
        <pt x="735" y="667" on="0"/>
        <pt x="671" y="512" on="0"/>
        <pt x="671" y="446" on="1"/>
        <pt x="671" y="437" on="1"/>
        <pt x="671" y="374" on="0"/>
        <pt x="728" y="292" on="0"/>
        <pt x="770" y="292" on="1"/>
        <pt x="797" y="292" on="1"/>
        <pt x="846" y="292" on="0"/>
        <pt x="979" y="415" on="0"/>
        <pt x="1115" y="626" on="0"/>
        <pt x="1115" y="739" on="1"/>
        <pt x="1115" y="763" on="1"/>
        <pt x="1115" y="858" on="0"/>
      </contour>
      <contour>
        <pt x="1322" y="218" on="0"/>
        <pt x="1214" y="218" on="0"/>
        <pt x="1091" y="281" on="0"/>
        <pt x="1060" y="281" on="0"/>
        <pt x="890" y="200" on="0"/>
        <pt x="757" y="200" on="0"/>
        <pt x="662" y="258" on="0"/>
        <pt x="589" y="371" on="0"/>
        <pt x="589" y="470" on="1"/>
        <pt x="589" y="473" on="0"/>
        <pt x="589" y="475" on="1"/>
        <pt x="589" y="571" on="0"/>
        <pt x="624" y="656" on="1"/>
        <pt x="695" y="829" on="0"/>
        <pt x="833" y="913" on="1"/>
        <pt x="907" y="958" on="0"/>
        <pt x="1001" y="958" on="0"/>
        <pt x="1102" y="936" on="0"/>
        <pt x="1125" y="936" on="1"/>
        <pt x="1155" y="939" on="1"/>
        <pt x="1182" y="942" on="1"/>
        <pt x="1235" y="942" on="0"/>
        <pt x="1235" y="868" on="1"/>
        <pt x="1235" y="817" on="0"/>
        <pt x="1190" y="520" on="0"/>
        <pt x="1190" y="481" on="1"/>
        <pt x="1190" y="390" on="0"/>
        <pt x="1257" y="390" on="1"/>
        <pt x="1317" y="390" on="0"/>
        <pt x="1424" y="564" on="0"/>
        <pt x="1424" y="814" on="0"/>
        <pt x="1396" y="886" on="1"/>
        <pt x="1330" y="1056" on="0"/>
        <pt x="1161" y="1116" on="1"/>
        <pt x="1091" y="1141" on="0"/>
        <pt x="895" y="1141" on="0"/>
        <pt x="696" y="1064" on="0"/>
        <pt x="505" y="859" on="0"/>
        <pt x="407" y="614" on="0"/>
        <pt x="407" y="468" on="1"/>
        <pt x="407" y="324" on="0"/>
        <pt x="441" y="230" on="1"/>
        <pt x="476" y="136" on="0"/>
        <pt x="544" y="66" on="1"/>
        <pt x="670" y="-64" on="0"/>
        <pt x="895" y="-64" on="1"/>
        <pt x="942" y="-61" on="1"/>
        <pt x="1105" y="-45" on="1"/>
        <pt x="1148" y="-45" on="0"/>
        <pt x="1148" y="-107" on="0"/>
        <pt x="939" y="-175" on="0"/>
        <pt x="809" y="-175" on="1"/>
        <pt x="806" y="-175" on="0"/>
        <pt x="804" y="-175" on="1"/>
        <pt x="677" y="-175" on="0"/>
        <pt x="557" y="-128" on="1"/>
        <pt x="434" y="-80" on="0"/>
        <pt x="346" y="18" on="1"/>
        <pt x="188" y="193" on="0"/>
        <pt x="188" y="470" on="1"/>
        <pt x="188" y="663" on="0"/>
        <pt x="268" y="835" on="1"/>
        <pt x="416" y="1156" on="0"/>
        <pt x="705" y="1284" on="1"/>
        <pt x="870" y="1357" on="0"/>
        <pt x="1034" y="1357" on="1"/>
        <pt x="1332" y="1357" on="0"/>
        <pt x="1653" y="1032" on="0"/>
        <pt x="1653" y="562" on="0"/>
        <pt x="1539" y="389" on="1"/>
        <pt x="1485" y="307" on="0"/>
      </contour>
    </TTGlyph>
    <TTGlyph name="atilde" xMin="111" yMin="34" xMax="1041" yMax="1370">
      <contour>
        <pt x="292" y="443" on="1"/>
        <pt x="292" y="422" on="1"/>
        <pt x="292" y="324" on="0"/>
        <pt x="383" y="187" on="0"/>
        <pt x="458" y="187" on="1"/>
        <pt x="488" y="187" on="1"/>
        <pt x="535" y="187" on="0"/>
        <pt x="667" y="265" on="0"/>
        <pt x="713" y="332" on="1"/>
        <pt x="814" y="479" on="0"/>
        <pt x="814" y="663" on="1"/>
        <pt x="816" y="684" on="1"/>
        <pt x="816" y="724" on="1"/>
        <pt x="816" y="827" on="0"/>
        <pt x="742" y="895" on="0"/>
        <pt x="668" y="895" on="1"/>
        <pt x="638" y="895" on="1"/>
        <pt x="596" y="895" on="0"/>
        <pt x="530" y="866" on="1"/>
        <pt x="466" y="836" on="0"/>
        <pt x="410" y="768" on="1"/>
        <pt x="292" y="622" on="0"/>
      </contour>
      <contour>
        <pt x="611" y="1370" on="1"/>
        <pt x="628" y="1370" on="1"/>
        <pt x="635" y="1369" on="1"/>
        <pt x="688" y="1369" on="0"/>
        <pt x="816" y="1284" on="0"/>
        <pt x="901" y="1284" on="0"/>
        <pt x="974" y="1364" on="0"/>
        <pt x="1041" y="1364" on="0"/>
        <pt x="1041" y="1343" on="1"/>
        <pt x="1041" y="1336" on="1"/>
        <pt x="1041" y="1274" on="0"/>
        <pt x="915" y="1180" on="0"/>
        <pt x="782" y="1180" on="0"/>
        <pt x="631" y="1265" on="0"/>
        <pt x="550" y="1265" on="0"/>
        <pt x="455" y="1178" on="0"/>
        <pt x="393" y="1178" on="0"/>
        <pt x="393" y="1199" on="1"/>
        <pt x="393" y="1260" on="0"/>
        <pt x="540" y="1370" on="0"/>
      </contour>
      <contour>
        <pt x="949" y="274" on="1"/>
        <pt x="958" y="140" on="1"/>
        <pt x="958" y="111" on="0"/>
        <pt x="911" y="66" on="0"/>
        <pt x="837" y="66" on="0"/>
        <pt x="774" y="160" on="0"/>
        <pt x="751" y="160" on="1"/>
        <pt x="745" y="160" on="0"/>
        <pt x="650" y="94" on="0"/>
        <pt x="607" y="81" on="1"/>
        <pt x="456" y="34" on="0"/>
        <pt x="402" y="34" on="1"/>
        <pt x="279" y="34" on="0"/>
        <pt x="111" y="223" on="0"/>
        <pt x="111" y="360" on="1"/>
        <pt x="111" y="417" on="1"/>
        <pt x="111" y="419" on="0"/>
        <pt x="111" y="421" on="1"/>
        <pt x="111" y="520" on="0"/>
        <pt x="156" y="632" on="1"/>
        <pt x="253" y="875" on="0"/>
        <pt x="453" y="966" on="1"/>
        <pt x="543" y="1007" on="0"/>
        <pt x="632" y="1007" on="1"/>
        <pt x="650" y="1007" on="1"/>
        <pt x="735" y="1007" on="0"/>
        <pt x="813" y="965" on="1"/>
        <pt x="842" y="949" on="1"/>
        <pt x="872" y="935" on="0"/>
        <pt x="896" y="935" on="1"/>
        <pt x="974" y="947" on="1"/>
        <pt x="1022" y="947" on="0"/>
        <pt x="1022" y="876" on="1"/>
        <pt x="1022" y="860" on="1"/>
        <pt x="1022" y="840" on="0"/>
        <pt x="949" y="414" on="0"/>
      </contour>
    </TTGlyph>
    <TTGlyph name="b" xMin="110" yMin="-6" xMax="1037" yMax="1457">
      <contour>
        <pt x="514" y="135" on="1"/>
        <pt x="535" y="135" on="1"/>
        <pt x="600" y="135" on="0"/>
        <pt x="719" y="212" on="0"/>
        <pt x="756" y="269" on="1"/>
        <pt x="856" y="424" on="0"/>
        <pt x="856" y="590" on="1"/>
        <pt x="856" y="642" on="1"/>
        <pt x="856" y="740" on="0"/>
        <pt x="762" y="860" on="0"/>
        <pt x="691" y="860" on="1"/>
        <pt x="660" y="860" on="1"/>
        <pt x="596" y="860" on="0"/>
        <pt x="469" y="778" on="0"/>
        <pt x="394" y="649" on="0"/>
        <pt x="337" y="423" on="0"/>
        <pt x="337" y="315" on="1"/>
        <pt x="337" y="305" on="1"/>
        <pt x="337" y="135" on="0"/>
      </contour>
      <contour>
        <pt x="399" y="1457" on="1"/>
        <pt x="501" y="1457" on="0"/>
        <pt x="501" y="1372" on="1"/>
        <pt x="501" y="1338" on="0"/>
        <pt x="442" y="950" on="0"/>
        <pt x="442" y="912" on="0"/>
        <pt x="464" y="912" on="1"/>
        <pt x="467" y="912" on="0"/>
        <pt x="537" y="945" on="0"/>
        <pt x="664" y="995" on="0"/>
        <pt x="869" y="995" on="0"/>
        <pt x="1037" y="810" on="0"/>
        <pt x="1037" y="636" on="1"/>
        <pt x="1037" y="589" on="1"/>
        <pt x="1037" y="487" on="0"/>
        <pt x="995" y="369" on="1"/>
        <pt x="913" y="138" on="0"/>
        <pt x="754" y="49" on="1"/>
        <pt x="656" y="-6" on="0"/>
        <pt x="557" y="-6" on="1"/>
        <pt x="534" y="-6" on="1"/>
        <pt x="466" y="-6" on="0"/>
        <pt x="386" y="29" on="0"/>
        <pt x="292" y="84" on="0"/>
        <pt x="272" y="84" on="0"/>
        <pt x="232" y="53" on="1"/>
        <pt x="200" y="34" on="0"/>
        <pt x="166" y="34" on="1"/>
        <pt x="110" y="34" on="0"/>
        <pt x="110" y="91" on="1"/>
        <pt x="110" y="256" on="0"/>
        <pt x="327" y="1395" on="1"/>
        <pt x="339" y="1457" on="0"/>
        <pt x="381" y="1457" on="1"/>
      </contour>
    </TTGlyph>
    <TTGlyph name="backslash" xMin="179" yMin="-135" xMax="724" yMax="1479">
      <contour>
        <pt x="724" y="-93" on="1"/>
        <pt x="724" y="-108" on="1"/>
        <pt x="724" y="-135" on="0"/>
        <pt x="568" y="-135" on="0"/>
        <pt x="543" y="-47" on="1"/>
        <pt x="533" y="-12" on="0"/>
        <pt x="519" y="49" on="0"/>
        <pt x="503" y="113" on="1"/>
        <pt x="486" y="183" on="1"/>
        <pt x="478" y="210" on="0"/>
        <pt x="476" y="220" on="1"/>
        <pt x="403" y="519" on="1"/>
        <pt x="385" y="590" on="1"/>
        <pt x="376" y="626" on="0"/>
        <pt x="368" y="661" on="1"/>
        <pt x="346" y="749" on="1"/>
        <pt x="337" y="785" on="0"/>
        <pt x="329" y="820" on="1"/>
        <pt x="307" y="908" on="1"/>
        <pt x="274" y="1040" on="0"/>
        <pt x="252" y="1139" on="0"/>
        <pt x="179" y="1423" on="0"/>
        <pt x="179" y="1437" on="1"/>
        <pt x="179" y="1453" on="1"/>
        <pt x="179" y="1479" on="0"/>
        <pt x="265" y="1479" on="1"/>
        <pt x="282" y="1479" on="1"/>
        <pt x="339" y="1479" on="0"/>
        <pt x="361" y="1392" on="1"/>
        <pt x="724" y="-20" on="0"/>
      </contour>
    </TTGlyph>
    <TTGlyph name="bar" xMin="160" yMin="-355" xMax="516" yMax="1514">
      <contour>
        <pt x="160" y="-329" on="1"/>
        <pt x="160" y="-311" on="1"/>
        <pt x="160" y="-242" on="0"/>
        <pt x="285" y="785" on="0"/>
        <pt x="344" y="1392" on="0"/>
        <pt x="371" y="1514" on="0"/>
        <pt x="447" y="1514" on="1"/>
        <pt x="466" y="1514" on="1"/>
        <pt x="516" y="1514" on="0"/>
        <pt x="516" y="1488" on="1"/>
        <pt x="516" y="1470" on="1"/>
        <pt x="516" y="1292" on="0"/>
        <pt x="320" y="-276" on="1"/>
        <pt x="314" y="-326" on="0"/>
        <pt x="277" y="-355" on="0"/>
        <pt x="228" y="-355" on="1"/>
        <pt x="209" y="-355" on="1"/>
        <pt x="160" y="-355" on="0"/>
      </contour>
    </TTGlyph>
    <TTGlyph name="braceleft" xMin="134" yMin="-328" xMax="838" yMax="1512">
      <contour>
        <pt x="838" y="1465" on="1"/>
        <pt x="838" y="1412" on="0"/>
        <pt x="641" y="1321" on="0"/>
        <pt x="569" y="1187" on="0"/>
        <pt x="515" y="841" on="0"/>
        <pt x="487" y="768" on="1"/>
        <pt x="460" y="695" on="0"/>
        <pt x="378" y="629" on="1"/>
        <pt x="340" y="598" on="0"/>
        <pt x="339" y="590" on="0"/>
        <pt x="384" y="536" on="0"/>
        <pt x="424" y="463" on="0"/>
        <pt x="424" y="341" on="0"/>
        <pt x="364" y="41" on="0"/>
        <pt x="364" y="-114" on="0"/>
        <pt x="430" y="-159" on="1"/>
        <pt x="525" y="-223" on="0"/>
        <pt x="525" y="-266" on="1"/>
        <pt x="525" y="-328" on="0"/>
        <pt x="470" y="-328" on="1"/>
        <pt x="329" y="-328" on="0"/>
        <pt x="190" y="-189" on="0"/>
        <pt x="190" y="-61" on="1"/>
        <pt x="190" y="-5" on="0"/>
        <pt x="257" y="330" on="0"/>
        <pt x="257" y="433" on="0"/>
        <pt x="224" y="489" on="0"/>
        <pt x="134" y="546" on="0"/>
        <pt x="134" y="565" on="1"/>
        <pt x="134" y="586" on="1"/>
        <pt x="134" y="636" on="0"/>
        <pt x="293" y="715" on="0"/>
        <pt x="327" y="790" on="1"/>
        <pt x="348" y="836" on="0"/>
        <pt x="420" y="1280" on="0"/>
        <pt x="518" y="1426" on="0"/>
        <pt x="678" y="1512" on="0"/>
        <pt x="776" y="1512" on="1"/>
        <pt x="800" y="1512" on="1"/>
        <pt x="838" y="1512" on="0"/>
        <pt x="838" y="1484" on="1"/>
      </contour>
    </TTGlyph>
    <TTGlyph name="braceright" xMin="-2" yMin="-327" xMax="695" yMax="1513">
      <contour>
        <pt x="474" y="1228" on="1"/>
        <pt x="474" y="1310" on="0"/>
        <pt x="312" y="1409" on="0"/>
        <pt x="312" y="1471" on="1"/>
        <pt x="312" y="1513" on="0"/>
        <pt x="367" y="1513" on="1"/>
        <pt x="503" y="1513" on="0"/>
        <pt x="637" y="1366" on="0"/>
        <pt x="637" y="1244" on="1"/>
        <pt x="637" y="1164" on="0"/>
        <pt x="574" y="878" on="0"/>
        <pt x="574" y="744" on="0"/>
        <pt x="611" y="704" on="1"/>
        <pt x="617" y="697" on="0"/>
        <pt x="695" y="645" on="0"/>
        <pt x="695" y="621" on="1"/>
        <pt x="695" y="557" on="0"/>
        <pt x="533" y="472" on="0"/>
        <pt x="501" y="393" on="1"/>
        <pt x="488" y="360" on="0"/>
        <pt x="404" y="-95" on="0"/>
        <pt x="298" y="-251" on="0"/>
        <pt x="137" y="-327" on="0"/>
        <pt x="55" y="-327" on="1"/>
        <pt x="33" y="-327" on="1"/>
        <pt x="-2" y="-327" on="0"/>
        <pt x="-2" y="-297" on="1"/>
        <pt x="-2" y="-258" on="0"/>
        <pt x="42" y="-211" on="0"/>
        <pt x="191" y="-139" on="0"/>
        <pt x="257" y="-33" on="0"/>
        <pt x="331" y="379" on="0"/>
        <pt x="378" y="501" on="0"/>
        <pt x="500" y="589" on="0"/>
        <pt x="500" y="593" on="1"/>
        <pt x="500" y="604" on="0"/>
        <pt x="476" y="632" on="1"/>
        <pt x="412" y="707" on="0"/>
        <pt x="412" y="773" on="1"/>
        <pt x="412" y="838" on="0"/>
        <pt x="444" y="992" on="1"/>
        <pt x="474" y="1144" on="0"/>
      </contour>
    </TTGlyph>
    <TTGlyph name="bracketleft" xMin="101" yMin="-313" xMax="841" yMax="1513">
      <contour>
        <pt x="792" y="1513" on="1"/>
        <pt x="841" y="1513" on="0"/>
        <pt x="841" y="1494" on="1"/>
        <pt x="841" y="1435" on="0"/>
        <pt x="768" y="1384" on="0"/>
        <pt x="614" y="1361" on="0"/>
        <pt x="603" y="1355" on="1"/>
        <pt x="559" y="1330" on="0"/>
        <pt x="519" y="1226" on="0"/>
        <pt x="300" y="-16" on="0"/>
        <pt x="300" y="-125" on="0"/>
        <pt x="338" y="-150" on="1"/>
        <pt x="355" y="-161" on="0"/>
        <pt x="477" y="-183" on="0"/>
        <pt x="522" y="-214" on="0"/>
        <pt x="522" y="-257" on="1"/>
        <pt x="522" y="-313" on="0"/>
        <pt x="440" y="-313" on="1"/>
        <pt x="240" y="-313" on="1"/>
        <pt x="162" y="-313" on="0"/>
        <pt x="144" y="-306" on="1"/>
        <pt x="101" y="-290" on="0"/>
        <pt x="101" y="-252" on="1"/>
        <pt x="101" y="-208" on="1"/>
        <pt x="101" y="-169" on="0"/>
        <pt x="375" y="1354" on="0"/>
        <pt x="416" y="1488" on="0"/>
        <pt x="466" y="1504" on="1"/>
        <pt x="491" y="1512" on="0"/>
        <pt x="666" y="1512" on="1"/>
        <pt x="717" y="1513" on="1"/>
      </contour>
    </TTGlyph>
    <TTGlyph name="bracketright" xMin="-9" yMin="-313" xMax="723" yMax="1513">
      <contour>
        <pt x="409" y="1513" on="1"/>
        <pt x="505" y="1513" on="1"/>
        <pt x="668" y="1513" on="0"/>
        <pt x="723" y="1478" on="0"/>
        <pt x="723" y="1411" on="1"/>
        <pt x="723" y="1389" on="1"/>
        <pt x="723" y="1352" on="0"/>
        <pt x="458" y="-119" on="0"/>
        <pt x="450" y="-152" on="1"/>
        <pt x="423" y="-260" on="0"/>
        <pt x="352" y="-309" on="0"/>
        <pt x="241" y="-309" on="1"/>
        <pt x="216" y="-309" on="0"/>
        <pt x="191" y="-310" on="1"/>
        <pt x="116" y="-313" on="1"/>
        <pt x="43" y="-313" on="1"/>
        <pt x="-9" y="-313" on="0"/>
        <pt x="-9" y="-299" on="1"/>
        <pt x="-9" y="-281" on="1"/>
        <pt x="-9" y="-232" on="0"/>
        <pt x="48" y="-197" on="1"/>
        <pt x="73" y="-182" on="0"/>
        <pt x="207" y="-165" on="0"/>
        <pt x="224" y="-157" on="1"/>
        <pt x="272" y="-135" on="0"/>
        <pt x="311" y="-31" on="0"/>
        <pt x="531" y="1215" on="0"/>
        <pt x="531" y="1264" on="1"/>
        <pt x="531" y="1354" on="0"/>
        <pt x="426" y="1374" on="1"/>
        <pt x="370" y="1384" on="0"/>
        <pt x="314" y="1419" on="0"/>
        <pt x="314" y="1472" on="1"/>
        <pt x="314" y="1513" on="0"/>
      </contour>
    </TTGlyph>
    <TTGlyph name="breve" xMin="230" yMin="1060" xMax="829" yMax="1330">
      <contour>
        <pt x="829" y="1304" on="1"/>
        <pt x="829" y="1296" on="1"/>
        <pt x="829" y="1277" on="0"/>
        <pt x="756" y="1164" on="0"/>
        <pt x="700" y="1125" on="1"/>
        <pt x="606" y="1060" on="0"/>
        <pt x="489" y="1060" on="1"/>
        <pt x="471" y="1060" on="1"/>
        <pt x="462" y="1061" on="0"/>
        <pt x="454" y="1061" on="1"/>
        <pt x="373" y="1061" on="0"/>
        <pt x="230" y="1191" on="0"/>
        <pt x="230" y="1277" on="1"/>
        <pt x="230" y="1285" on="1"/>
        <pt x="230" y="1327" on="0"/>
        <pt x="302" y="1327" on="1"/>
        <pt x="336" y="1327" on="0"/>
        <pt x="402" y="1220" on="0"/>
        <pt x="465" y="1186" on="0"/>
        <pt x="598" y="1186" on="0"/>
        <pt x="742" y="1330" on="0"/>
        <pt x="769" y="1330" on="1"/>
        <pt x="829" y="1330" on="0"/>
      </contour>
    </TTGlyph>
    <TTGlyph name="brokenbar" xMin="136" yMin="-331" xMax="453" yMax="1533">
      <contour>
        <pt x="282" y="755" on="1"/>
        <pt x="235" y="755" on="0"/>
        <pt x="235" y="787" on="1"/>
        <pt x="235" y="804" on="1"/>
        <pt x="243" y="876" on="0"/>
        <pt x="243" y="887" on="1"/>
        <pt x="256" y="1026" on="1"/>
        <pt x="260" y="1064" on="1"/>
        <pt x="271" y="1170" on="0"/>
        <pt x="271" y="1185" on="1"/>
        <pt x="275" y="1223" on="1"/>
        <pt x="287" y="1337" on="0"/>
        <pt x="287" y="1354" on="1"/>
        <pt x="291" y="1392" on="1"/>
        <pt x="295" y="1430" on="0"/>
        <pt x="295" y="1502" on="0"/>
        <pt x="332" y="1532" on="0"/>
        <pt x="389" y="1532" on="1"/>
        <pt x="398" y="1533" on="1"/>
        <pt x="453" y="1533" on="0"/>
        <pt x="453" y="1508" on="1"/>
        <pt x="453" y="1483" on="1"/>
        <pt x="444" y="1402" on="0"/>
        <pt x="444" y="1390" on="1"/>
        <pt x="440" y="1352" on="1"/>
        <pt x="424" y="1197" on="0"/>
        <pt x="424" y="1175" on="1"/>
        <pt x="412" y="1044" on="1"/>
        <pt x="408" y="1007" on="1"/>
        <pt x="405" y="978" on="0"/>
        <pt x="405" y="969" on="1"/>
        <pt x="392" y="829" on="1"/>
        <pt x="392" y="757" on="0"/>
        <pt x="334" y="757" on="1"/>
        <pt x="316" y="755" on="1"/>
      </contour>
      <contour>
        <pt x="354" y="407" on="1"/>
        <pt x="339" y="287" on="0"/>
        <pt x="339" y="241" on="1"/>
        <pt x="328" y="120" on="1"/>
        <pt x="325" y="92" on="1"/>
        <pt x="322" y="63" on="0"/>
        <pt x="322" y="55" on="1"/>
        <pt x="315" y="-20" on="1"/>
        <pt x="312" y="-48" on="1"/>
        <pt x="303" y="-135" on="0"/>
        <pt x="303" y="-150" on="1"/>
        <pt x="297" y="-215" on="1"/>
        <pt x="297" y="-290" on="0"/>
        <pt x="264" y="-331" on="0"/>
        <pt x="207" y="-331" on="1"/>
        <pt x="172" y="-331" on="1"/>
        <pt x="136" y="-331" on="0"/>
        <pt x="136" y="-305" on="1"/>
        <pt x="136" y="-297" on="1"/>
        <pt x="145" y="-216" on="0"/>
        <pt x="151" y="-141" on="0"/>
        <pt x="162" y="-18" on="0"/>
        <pt x="168" y="45" on="0"/>
        <pt x="179" y="168" on="0"/>
        <pt x="185" y="231" on="0"/>
        <pt x="196" y="354" on="0"/>
        <pt x="196" y="409" on="0"/>
        <pt x="229" y="442" on="0"/>
        <pt x="292" y="442" on="1"/>
        <pt x="309" y="442" on="1"/>
        <pt x="354" y="442" on="0"/>
        <pt x="354" y="416" on="1"/>
      </contour>
    </TTGlyph>
    <TTGlyph name="bullet" xMin="230" yMin="380" xMax="749" yMax="895">
      <contour>
        <pt x="470" y="380" on="1"/>
        <pt x="445" y="380" on="1"/>
        <pt x="364" y="380" on="0"/>
        <pt x="230" y="503" on="0"/>
        <pt x="230" y="595" on="1"/>
        <pt x="230" y="612" on="1"/>
        <pt x="231" y="620" on="1"/>
        <pt x="231" y="712" on="0"/>
        <pt x="386" y="895" on="0"/>
        <pt x="501" y="895" on="1"/>
        <pt x="542" y="895" on="1"/>
        <pt x="620" y="895" on="0"/>
        <pt x="749" y="766" on="0"/>
        <pt x="749" y="679" on="1"/>
        <pt x="749" y="654" on="1"/>
        <pt x="749" y="536" on="0"/>
        <pt x="565" y="380" on="0"/>
      </contour>
    </TTGlyph>
</ttFont>
